%TF.GenerationSoftware,KiCad,Pcbnew,9.0.4*%
%TF.CreationDate,2025-09-15T10:19:04+02:00*%
%TF.ProjectId,gaia-primary,67616961-2d70-4726-996d-6172792e6b69,1.0*%
%TF.SameCoordinates,Original*%
%TF.FileFunction,Plated,1,6,PTH,Drill*%
%TF.FilePolarity,Positive*%
%FSLAX46Y46*%
G04 Gerber Fmt 4.6, Leading zero omitted, Abs format (unit mm)*
G04 Created by KiCad (PCBNEW 9.0.4) date 2025-09-15 10:19:04*
%MOMM*%
%LPD*%
G01*
G04 APERTURE LIST*
%TA.AperFunction,ViaDrill*%
%ADD10C,0.300000*%
%TD*%
%TA.AperFunction,ViaDrill*%
%ADD11C,0.400000*%
%TD*%
%TA.AperFunction,ComponentDrill*%
%ADD12C,0.400000*%
%TD*%
%TA.AperFunction,ComponentDrill*%
%ADD13C,0.700000*%
%TD*%
%TA.AperFunction,ComponentDrill*%
%ADD14C,1.000000*%
%TD*%
G04 APERTURE END LIST*
D10*
X169130000Y-79660000D03*
X169140000Y-74290000D03*
X170890000Y-72470000D03*
X170970000Y-107850000D03*
X170975380Y-70415380D03*
X172160000Y-75980000D03*
X172260000Y-74120000D03*
X172280000Y-73300000D03*
X172350000Y-71160000D03*
X172650000Y-77540000D03*
X173581000Y-78780000D03*
X173605000Y-77540000D03*
X173730000Y-103290000D03*
X173730000Y-104250000D03*
X174120000Y-106740000D03*
X174120000Y-107420000D03*
X174120000Y-108130000D03*
X174120000Y-108870000D03*
X174200000Y-68770000D03*
X174200000Y-69730000D03*
X174660000Y-103290000D03*
X174660000Y-104250000D03*
X174846667Y-106740000D03*
X174846667Y-107420000D03*
X174846667Y-108130000D03*
X174846667Y-108870000D03*
X175146068Y-71042030D03*
X175200000Y-75420000D03*
X175593333Y-106740000D03*
X175593333Y-107420000D03*
X175593333Y-108130000D03*
X175593333Y-108870000D03*
X175860000Y-76499998D03*
X176070000Y-71110000D03*
X176300000Y-106740000D03*
X176300000Y-107420000D03*
X176300000Y-108130000D03*
X176300000Y-108870000D03*
X176650000Y-75440000D03*
X177270000Y-80540000D03*
X177720000Y-73470000D03*
X178060000Y-68430000D03*
X178220000Y-80540000D03*
X178548106Y-107845000D03*
X178780000Y-74260000D03*
X179040000Y-108530000D03*
X179150000Y-79520000D03*
X179150000Y-80480000D03*
X179219972Y-72390028D03*
X180840000Y-76660000D03*
X181870000Y-109571000D03*
X182020000Y-70280000D03*
X182980000Y-70280000D03*
X183780000Y-111822500D03*
X184450737Y-76285000D03*
X184580000Y-114197500D03*
X184650000Y-72940000D03*
X185246606Y-75285000D03*
X185460000Y-68970000D03*
X185776745Y-75884130D03*
X186370000Y-115240000D03*
X186660000Y-73982500D03*
X187190000Y-111080000D03*
X187310000Y-75460000D03*
X187380000Y-69420000D03*
X187380000Y-70440000D03*
X188170000Y-112700000D03*
X188220000Y-71787500D03*
X188220000Y-74000000D03*
X188270000Y-75480000D03*
X189820000Y-73982500D03*
X190580000Y-75520000D03*
X190620000Y-73982500D03*
X191540000Y-75520000D03*
X192500000Y-111822500D03*
X192590000Y-76845000D03*
X193300000Y-114197500D03*
X194060000Y-71980000D03*
X194270000Y-73370000D03*
X195100000Y-115240000D03*
X195170000Y-71510000D03*
X195960000Y-111080000D03*
X196920000Y-112700000D03*
X197000707Y-110196707D03*
X198030000Y-111770000D03*
X198170000Y-75730000D03*
X200115000Y-74800000D03*
X200210000Y-73810000D03*
X201062525Y-69702475D03*
X201620000Y-72220000D03*
X202880000Y-71470000D03*
X202957500Y-70632500D03*
X203400000Y-68640000D03*
X203513984Y-103290000D03*
X203520000Y-104260000D03*
X203551942Y-81048058D03*
X203755000Y-86370000D03*
X203900000Y-106740000D03*
X203900000Y-107420000D03*
X203900000Y-108130000D03*
X203900000Y-108870000D03*
X203950000Y-77610000D03*
X204420000Y-104260000D03*
X204440000Y-103290000D03*
X204614939Y-99428945D03*
X204626667Y-106740000D03*
X204626667Y-107420000D03*
X204626667Y-108130000D03*
X204626667Y-108870000D03*
X205373333Y-106740000D03*
X205373333Y-107420000D03*
X205373333Y-108130000D03*
X205373333Y-108870000D03*
X205530000Y-113570000D03*
X206080000Y-106740000D03*
X206080000Y-107420000D03*
X206080000Y-108130000D03*
X206080000Y-108870000D03*
X207390000Y-77610000D03*
X208140000Y-107820000D03*
X208645000Y-108495000D03*
X208837623Y-74969463D03*
X209425000Y-107170000D03*
X210050000Y-103820000D03*
D11*
X165370000Y-78410000D03*
X165740000Y-102680000D03*
X166970000Y-105710000D03*
X167250000Y-74800000D03*
X167810000Y-108470000D03*
X170760000Y-103860000D03*
X172300000Y-112670000D03*
X175290000Y-97240000D03*
X175730000Y-80860000D03*
X175790000Y-73860000D03*
X175790000Y-84480000D03*
X177080000Y-103990000D03*
X177610000Y-71930000D03*
X177730000Y-111490000D03*
X178970000Y-105850000D03*
X180030000Y-67850000D03*
X180410000Y-71410000D03*
X180420000Y-112610000D03*
X181480000Y-78710000D03*
X181930000Y-115010000D03*
X185570000Y-67630000D03*
X189610000Y-115110000D03*
X190190000Y-69090000D03*
X190400000Y-112290000D03*
X197520000Y-69090000D03*
X197630000Y-114930000D03*
X197770000Y-70800000D03*
X198020000Y-105030000D03*
X200150000Y-112290000D03*
X201080000Y-78820000D03*
X201340000Y-76620000D03*
X203170000Y-97400000D03*
X203700000Y-79320000D03*
X203980000Y-115170000D03*
X207110000Y-71710000D03*
X210280000Y-74560000D03*
X210900000Y-77120000D03*
X211700000Y-106530000D03*
X212160000Y-103170000D03*
X212840000Y-79910000D03*
D12*
%TO.C,TH3*%
X177520000Y-115450000D03*
X178520000Y-115450000D03*
%TO.C,TH4*%
X199770000Y-115450000D03*
X200770000Y-115450000D03*
D13*
%TO.C,J2*%
X166916938Y-82500000D03*
X166916938Y-84500000D03*
X166916938Y-86500000D03*
X166916938Y-88500000D03*
X166916938Y-90500000D03*
X166916938Y-92500000D03*
X166916938Y-94500000D03*
X166916938Y-96500000D03*
X166916938Y-98500000D03*
X166916938Y-100500000D03*
X171086938Y-82500000D03*
X171086938Y-84500000D03*
X171086938Y-86500000D03*
X171086938Y-88500000D03*
X171086938Y-90500000D03*
X171086938Y-92500000D03*
X171086938Y-94500000D03*
X171086938Y-96500000D03*
X171086938Y-98500000D03*
X171086938Y-100500000D03*
%TO.C,J3*%
X207306938Y-82500000D03*
X207306938Y-84500000D03*
X207306938Y-86500000D03*
X207306938Y-88500000D03*
X207306938Y-90500000D03*
X207306938Y-92500000D03*
X207306938Y-94500000D03*
X207306938Y-96500000D03*
X207306938Y-98500000D03*
X207306938Y-100500000D03*
X211476938Y-82500000D03*
X211476938Y-84500000D03*
X211476938Y-86500000D03*
X211476938Y-88500000D03*
X211476938Y-90500000D03*
X211476938Y-92500000D03*
X211476938Y-94500000D03*
X211476938Y-96500000D03*
X211476938Y-98500000D03*
X211476938Y-100500000D03*
D14*
%TO.C,J1*%
X181576938Y-107770000D03*
X184116938Y-107770000D03*
X186656938Y-107770000D03*
X189196938Y-107770000D03*
X191736938Y-107770000D03*
X194276938Y-107770000D03*
X196816938Y-107770000D03*
M02*
