%TF.GenerationSoftware,KiCad,Pcbnew,9.0.4*%
%TF.CreationDate,2025-09-18T12:06:00+02:00*%
%TF.ProjectId,gaia-primary,67616961-2d70-4726-996d-6172792e6b69,1.0*%
%TF.SameCoordinates,Original*%
%TF.FileFunction,Soldermask,Bot*%
%TF.FilePolarity,Negative*%
%FSLAX46Y46*%
G04 Gerber Fmt 4.6, Leading zero omitted, Abs format (unit mm)*
G04 Created by KiCad (PCBNEW 9.0.4) date 2025-09-18 12:06:00*
%MOMM*%
%LPD*%
G01*
G04 APERTURE LIST*
G04 Aperture macros list*
%AMRoundRect*
0 Rectangle with rounded corners*
0 $1 Rounding radius*
0 $2 $3 $4 $5 $6 $7 $8 $9 X,Y pos of 4 corners*
0 Add a 4 corners polygon primitive as box body*
4,1,4,$2,$3,$4,$5,$6,$7,$8,$9,$2,$3,0*
0 Add four circle primitives for the rounded corners*
1,1,$1+$1,$2,$3*
1,1,$1+$1,$4,$5*
1,1,$1+$1,$6,$7*
1,1,$1+$1,$8,$9*
0 Add four rect primitives between the rounded corners*
20,1,$1+$1,$2,$3,$4,$5,0*
20,1,$1+$1,$4,$5,$6,$7,0*
20,1,$1+$1,$6,$7,$8,$9,0*
20,1,$1+$1,$8,$9,$2,$3,0*%
%AMFreePoly0*
4,1,6,1.000000,0.000000,0.500000,-0.750000,-0.500000,-0.750000,-0.500000,0.750000,0.500000,0.750000,1.000000,0.000000,1.000000,0.000000,$1*%
G04 Aperture macros list end*
%ADD10C,0.800000*%
%ADD11R,2.580000X1.000000*%
%ADD12C,1.700000*%
%ADD13RoundRect,0.140000X-0.140000X-0.170000X0.140000X-0.170000X0.140000X0.170000X-0.140000X0.170000X0*%
%ADD14RoundRect,0.135000X-0.185000X0.135000X-0.185000X-0.135000X0.185000X-0.135000X0.185000X0.135000X0*%
%ADD15RoundRect,0.140000X0.140000X0.170000X-0.140000X0.170000X-0.140000X-0.170000X0.140000X-0.170000X0*%
%ADD16RoundRect,0.135000X0.185000X-0.135000X0.185000X0.135000X-0.185000X0.135000X-0.185000X-0.135000X0*%
%ADD17RoundRect,0.150000X-0.587500X-0.150000X0.587500X-0.150000X0.587500X0.150000X-0.587500X0.150000X0*%
%ADD18RoundRect,0.150000X0.150000X-0.512500X0.150000X0.512500X-0.150000X0.512500X-0.150000X-0.512500X0*%
%ADD19FreePoly0,0.000000*%
%ADD20FreePoly0,180.000000*%
%ADD21RoundRect,0.150000X0.587500X0.150000X-0.587500X0.150000X-0.587500X-0.150000X0.587500X-0.150000X0*%
%ADD22R,1.500000X2.700000*%
G04 APERTURE END LIST*
%TO.C,JP3*%
G36*
X166630000Y-77700000D02*
G01*
X171630000Y-77700000D01*
X171630000Y-76200000D01*
X166630000Y-76200000D01*
X166630000Y-77700000D01*
G37*
%TO.C,JP1*%
G36*
X210800000Y-78700000D02*
G01*
X205800000Y-78700000D01*
X205800000Y-80200000D01*
X210800000Y-80200000D01*
X210800000Y-78700000D01*
G37*
%TO.C,JP2*%
G36*
X166630000Y-80410000D02*
G01*
X171630000Y-80410000D01*
X171630000Y-78910000D01*
X166630000Y-78910000D01*
X166630000Y-80410000D01*
G37*
%TD*%
D10*
%TO.C,TH3*%
X177520000Y-115450000D03*
X178520000Y-115450000D03*
%TD*%
D11*
%TO.C,J3*%
X207306938Y-82500000D03*
X211476938Y-82500000D03*
X207306938Y-84500000D03*
X211476938Y-84500000D03*
X207306938Y-86500000D03*
X211476938Y-86500000D03*
X207306938Y-88500000D03*
X211476938Y-88500000D03*
X207306938Y-90500000D03*
X211476938Y-90500000D03*
X207306938Y-92500000D03*
X211476938Y-92500000D03*
X207306938Y-94500000D03*
X211476938Y-94500000D03*
X207306938Y-96500000D03*
X211476938Y-96500000D03*
X207306938Y-98500000D03*
X211476938Y-98500000D03*
X207306938Y-100500000D03*
X211476938Y-100500000D03*
%TD*%
%TO.C,J2*%
X166916938Y-82500000D03*
X171086938Y-82500000D03*
X166916938Y-84500000D03*
X171086938Y-84500000D03*
X166916938Y-86500000D03*
X171086938Y-86500000D03*
X166916938Y-88500000D03*
X171086938Y-88500000D03*
X166916938Y-90500000D03*
X171086938Y-90500000D03*
X166916938Y-92500000D03*
X171086938Y-92500000D03*
X166916938Y-94500000D03*
X171086938Y-94500000D03*
X166916938Y-96500000D03*
X171086938Y-96500000D03*
X166916938Y-98500000D03*
X171086938Y-98500000D03*
X166916938Y-100500000D03*
X171086938Y-100500000D03*
%TD*%
D10*
%TO.C,TH4*%
X199770000Y-115450000D03*
X200770000Y-115450000D03*
%TD*%
D12*
%TO.C,J1*%
X181576938Y-107770000D03*
X184116938Y-107770000D03*
X186656938Y-107770000D03*
X189196938Y-107770000D03*
X191736938Y-107770000D03*
X194276938Y-107770000D03*
X196816938Y-107770000D03*
%TD*%
D13*
%TO.C,C4*%
X205250000Y-72510000D03*
X206210000Y-72510000D03*
%TD*%
D14*
%TO.C,R4*%
X201620000Y-72810000D03*
X201620000Y-73830000D03*
%TD*%
D15*
%TO.C,C1*%
X208350000Y-77610000D03*
X207390000Y-77610000D03*
%TD*%
%TO.C,C12*%
X177610000Y-75440000D03*
X176650000Y-75440000D03*
%TD*%
D16*
%TO.C,R1*%
X199580000Y-71700000D03*
X199580000Y-70680000D03*
%TD*%
D15*
%TO.C,C3*%
X204910000Y-77610000D03*
X203950000Y-77610000D03*
%TD*%
D17*
%TO.C,Q1*%
X201082500Y-71582500D03*
X201082500Y-69682500D03*
X202957500Y-70632500D03*
%TD*%
D18*
%TO.C,U10*%
X204910000Y-76200000D03*
X203960000Y-76200000D03*
X203010000Y-76200000D03*
X203010000Y-73925000D03*
X204910000Y-73925000D03*
%TD*%
%TO.C,U11*%
X208332500Y-76187500D03*
X207382500Y-76187500D03*
X206432500Y-76187500D03*
X206432500Y-73912500D03*
X208332500Y-73912500D03*
%TD*%
D14*
%TO.C,R3*%
X197760000Y-71820000D03*
X197760000Y-72840000D03*
%TD*%
D19*
%TO.C,JP3*%
X167130000Y-76950000D03*
D20*
X171130000Y-76950000D03*
%TD*%
D21*
%TO.C,Q2*%
X200115000Y-72900000D03*
X200115000Y-74800000D03*
X198240000Y-73850000D03*
%TD*%
D20*
%TO.C,JP1*%
X210300000Y-79450000D03*
D19*
X206300000Y-79450000D03*
%TD*%
%TO.C,JP2*%
X167130000Y-79660000D03*
D20*
X171130000Y-79660000D03*
%TD*%
D22*
%TO.C,Y1*%
X176810000Y-78370000D03*
X174910000Y-78370000D03*
%TD*%
D15*
%TO.C,C13*%
X175190000Y-75440000D03*
X174230000Y-75440000D03*
%TD*%
D14*
%TO.C,R2*%
X203400000Y-68640000D03*
X203400000Y-69660000D03*
%TD*%
D15*
%TO.C,C2*%
X208070000Y-72510000D03*
X207110000Y-72510000D03*
%TD*%
M02*
