%TF.GenerationSoftware,KiCad,Pcbnew,9.0.4*%
%TF.CreationDate,2025-09-18T12:06:00+02:00*%
%TF.ProjectId,gaia-primary,67616961-2d70-4726-996d-6172792e6b69,1.0*%
%TF.SameCoordinates,Original*%
%TF.FileFunction,Legend,Bot*%
%TF.FilePolarity,Positive*%
%FSLAX46Y46*%
G04 Gerber Fmt 4.6, Leading zero omitted, Abs format (unit mm)*
G04 Created by KiCad (PCBNEW 9.0.4) date 2025-09-18 12:06:00*
%MOMM*%
%LPD*%
G01*
G04 APERTURE LIST*
%ADD10C,0.017999*%
%ADD11C,0.140000*%
%ADD12C,0.200000*%
%ADD13C,0.112500*%
%ADD14C,0.100000*%
%ADD15C,0.120000*%
G04 APERTURE END LIST*
D10*
X170600000Y-72383326D02*
X171329887Y-72691663D01*
X170600000Y-73000000D01*
X170291663Y-73729888D01*
X169983325Y-73000000D01*
X169253438Y-72691663D01*
X169983325Y-72383326D01*
X170291663Y-71653438D01*
X170600000Y-72383326D01*
G36*
X170600000Y-72383326D02*
G01*
X171329887Y-72691663D01*
X170600000Y-73000000D01*
X170291663Y-73729888D01*
X169983325Y-73000000D01*
X169253438Y-72691663D01*
X169983325Y-72383326D01*
X170291663Y-71653438D01*
X170600000Y-72383326D01*
G37*
D11*
X187884430Y-111327481D02*
X188798124Y-110006327D01*
X189057416Y-110006327D01*
X187901716Y-111730000D01*
X187627608Y-111730000D01*
X187627608Y-110006327D01*
X187877021Y-110006327D01*
X187884430Y-111327481D01*
G36*
X187884430Y-111327481D02*
G01*
X188798124Y-110006327D01*
X189057416Y-110006327D01*
X187901716Y-111730000D01*
X187627608Y-111730000D01*
X187627608Y-110006327D01*
X187877021Y-110006327D01*
X187884430Y-111327481D01*
G37*
X184098770Y-110265618D02*
X182772677Y-110265618D01*
X182772677Y-110006327D01*
X184098770Y-110006327D01*
X184098770Y-110265618D01*
G36*
X184098770Y-110265618D02*
G01*
X182772677Y-110265618D01*
X182772677Y-110006327D01*
X184098770Y-110006327D01*
X184098770Y-110265618D01*
G37*
X189077173Y-111730000D02*
X188820351Y-111730000D01*
X188820351Y-110900264D01*
X189077173Y-110529849D01*
X189077173Y-111730000D01*
G36*
X189077173Y-111730000D02*
G01*
X188820351Y-111730000D01*
X188820351Y-110900264D01*
X189077173Y-110529849D01*
X189077173Y-111730000D01*
G37*
X193559214Y-111730000D02*
X193302391Y-111730000D01*
X193302391Y-110900264D01*
X193559214Y-110529849D01*
X193559214Y-111730000D01*
G36*
X193559214Y-111730000D02*
G01*
X193302391Y-111730000D01*
X193302391Y-110900264D01*
X193559214Y-110529849D01*
X193559214Y-111730000D01*
G37*
X192366471Y-111327481D02*
X193280166Y-110006327D01*
X193539457Y-110006327D01*
X192383757Y-111730000D01*
X192109649Y-111730000D01*
X192109649Y-110006327D01*
X192359063Y-110006327D01*
X192366471Y-111327481D01*
G36*
X192366471Y-111327481D02*
G01*
X193280166Y-110006327D01*
X193539457Y-110006327D01*
X192383757Y-111730000D01*
X192109649Y-111730000D01*
X192109649Y-110006327D01*
X192359063Y-110006327D01*
X192366471Y-111327481D01*
G37*
X186637359Y-110184127D02*
X186601887Y-110187574D01*
X186566922Y-110193291D01*
X186532680Y-110201295D01*
X186499379Y-110211600D01*
X186467235Y-110224220D01*
X186436465Y-110239169D01*
X186407288Y-110256462D01*
X186393364Y-110265993D01*
X186379919Y-110276114D01*
X186366980Y-110286829D01*
X186354576Y-110298139D01*
X186342732Y-110310046D01*
X186331475Y-110322551D01*
X186320834Y-110335657D01*
X186310835Y-110349366D01*
X186301505Y-110363678D01*
X186292871Y-110378596D01*
X186284961Y-110394122D01*
X186277801Y-110410258D01*
X186271419Y-110427005D01*
X186265842Y-110444365D01*
X186261097Y-110462340D01*
X186257211Y-110480932D01*
X186254212Y-110500142D01*
X186252125Y-110519973D01*
X185982957Y-110519971D01*
X185985570Y-110485647D01*
X185989683Y-110452583D01*
X185995261Y-110420767D01*
X186002269Y-110390184D01*
X186010674Y-110360823D01*
X186020440Y-110332669D01*
X186031534Y-110305710D01*
X186043922Y-110279932D01*
X186057568Y-110255323D01*
X186072439Y-110231869D01*
X186088499Y-110209557D01*
X186105716Y-110188375D01*
X186124054Y-110168308D01*
X186143479Y-110149344D01*
X186163956Y-110131470D01*
X186185452Y-110114673D01*
X186207932Y-110098939D01*
X186231361Y-110084255D01*
X186255705Y-110070609D01*
X186280931Y-110057987D01*
X186307003Y-110046375D01*
X186333886Y-110035762D01*
X186361548Y-110026134D01*
X186389953Y-110017477D01*
X186419067Y-110009779D01*
X186448855Y-110003027D01*
X186510319Y-109992306D01*
X186574069Y-109985209D01*
X186639830Y-109981632D01*
X186637359Y-110184127D01*
G36*
X186637359Y-110184127D02*
G01*
X186601887Y-110187574D01*
X186566922Y-110193291D01*
X186532680Y-110201295D01*
X186499379Y-110211600D01*
X186467235Y-110224220D01*
X186436465Y-110239169D01*
X186407288Y-110256462D01*
X186393364Y-110265993D01*
X186379919Y-110276114D01*
X186366980Y-110286829D01*
X186354576Y-110298139D01*
X186342732Y-110310046D01*
X186331475Y-110322551D01*
X186320834Y-110335657D01*
X186310835Y-110349366D01*
X186301505Y-110363678D01*
X186292871Y-110378596D01*
X186284961Y-110394122D01*
X186277801Y-110410258D01*
X186271419Y-110427005D01*
X186265842Y-110444365D01*
X186261097Y-110462340D01*
X186257211Y-110480932D01*
X186254212Y-110500142D01*
X186252125Y-110519973D01*
X185982957Y-110519971D01*
X185985570Y-110485647D01*
X185989683Y-110452583D01*
X185995261Y-110420767D01*
X186002269Y-110390184D01*
X186010674Y-110360823D01*
X186020440Y-110332669D01*
X186031534Y-110305710D01*
X186043922Y-110279932D01*
X186057568Y-110255323D01*
X186072439Y-110231869D01*
X186088499Y-110209557D01*
X186105716Y-110188375D01*
X186124054Y-110168308D01*
X186143479Y-110149344D01*
X186163956Y-110131470D01*
X186185452Y-110114673D01*
X186207932Y-110098939D01*
X186231361Y-110084255D01*
X186255705Y-110070609D01*
X186280931Y-110057987D01*
X186307003Y-110046375D01*
X186333886Y-110035762D01*
X186361548Y-110026134D01*
X186389953Y-110017477D01*
X186419067Y-110009779D01*
X186448855Y-110003027D01*
X186510319Y-109992306D01*
X186574069Y-109985209D01*
X186639830Y-109981632D01*
X186637359Y-110184127D01*
G37*
X185834790Y-111730000D02*
X185545865Y-111730000D01*
X185044569Y-110221168D01*
X185029752Y-110221168D01*
X184493882Y-111730000D01*
X184185201Y-111730000D01*
X184847012Y-110006327D01*
X185227307Y-110006327D01*
X185834790Y-111730000D01*
G36*
X185834790Y-111730000D02*
G01*
X185545865Y-111730000D01*
X185044569Y-110221168D01*
X185029752Y-110221168D01*
X184493882Y-111730000D01*
X184185201Y-111730000D01*
X184847012Y-110006327D01*
X185227307Y-110006327D01*
X185834790Y-111730000D01*
G37*
X191731824Y-111730000D02*
X191465124Y-111730000D01*
X191465124Y-110519971D01*
X191731824Y-110519971D01*
X191731824Y-111730000D01*
G36*
X191731824Y-111730000D02*
G01*
X191465124Y-111730000D01*
X191465124Y-110519971D01*
X191731824Y-110519971D01*
X191731824Y-111730000D01*
G37*
X194705036Y-110233515D02*
X194671636Y-110235567D01*
X194639048Y-110238933D01*
X194607288Y-110243597D01*
X194576374Y-110249542D01*
X194546320Y-110256752D01*
X194517143Y-110265208D01*
X194488860Y-110274896D01*
X194461486Y-110285798D01*
X194435039Y-110297897D01*
X194409534Y-110311176D01*
X194384988Y-110325620D01*
X194361416Y-110341211D01*
X194338836Y-110357932D01*
X194317263Y-110375767D01*
X194296713Y-110394698D01*
X194277204Y-110414710D01*
X194258751Y-110435786D01*
X194241371Y-110457908D01*
X194225079Y-110481060D01*
X194209892Y-110505226D01*
X194195827Y-110530388D01*
X194182900Y-110556530D01*
X194171126Y-110583635D01*
X194160523Y-110611687D01*
X194151106Y-110640668D01*
X194142892Y-110670562D01*
X194135897Y-110701352D01*
X194130137Y-110733022D01*
X194125629Y-110765555D01*
X194122389Y-110798933D01*
X194120432Y-110833141D01*
X194119777Y-110868161D01*
X194120476Y-110904317D01*
X194122560Y-110939615D01*
X194126013Y-110974036D01*
X194130817Y-111007560D01*
X194136954Y-111040169D01*
X194144406Y-111071844D01*
X194153155Y-111102566D01*
X194163185Y-111132316D01*
X194174477Y-111161074D01*
X194187014Y-111188822D01*
X194200779Y-111215541D01*
X194215752Y-111241213D01*
X194231918Y-111265816D01*
X194249258Y-111289334D01*
X194267755Y-111311747D01*
X194287391Y-111333035D01*
X194308148Y-111353181D01*
X194330008Y-111372164D01*
X194352955Y-111389967D01*
X194376971Y-111406569D01*
X194402037Y-111421952D01*
X194428136Y-111436097D01*
X194455251Y-111448986D01*
X194483364Y-111460598D01*
X194512457Y-111470915D01*
X194542513Y-111479918D01*
X194573514Y-111487588D01*
X194605442Y-111493906D01*
X194638280Y-111498853D01*
X194672011Y-111502411D01*
X194706615Y-111504559D01*
X194742077Y-111505279D01*
X194776157Y-111504595D01*
X194809400Y-111502556D01*
X194841792Y-111499181D01*
X194873319Y-111494490D01*
X194903970Y-111488502D01*
X194933730Y-111481236D01*
X194962586Y-111472713D01*
X194990526Y-111462951D01*
X195017537Y-111451970D01*
X195043604Y-111439790D01*
X195068716Y-111426429D01*
X195092859Y-111411908D01*
X195116019Y-111396245D01*
X195138185Y-111379461D01*
X195159342Y-111361574D01*
X195179478Y-111342604D01*
X195198579Y-111322571D01*
X195216632Y-111301493D01*
X195233625Y-111279391D01*
X195249543Y-111256284D01*
X195264375Y-111232191D01*
X195278107Y-111207132D01*
X195290725Y-111181126D01*
X195302217Y-111154193D01*
X195312569Y-111126351D01*
X195321769Y-111097622D01*
X195329804Y-111068023D01*
X195336659Y-111037574D01*
X195342322Y-111006296D01*
X195346781Y-110974206D01*
X195350021Y-110941325D01*
X195352030Y-110907673D01*
X195621200Y-110907675D01*
X195618615Y-110955296D01*
X195614121Y-111001833D01*
X195607749Y-111047258D01*
X195599530Y-111091542D01*
X195589492Y-111134658D01*
X195577667Y-111176578D01*
X195564085Y-111217273D01*
X195548776Y-111256715D01*
X195531770Y-111294877D01*
X195513098Y-111331731D01*
X195492791Y-111367248D01*
X195470877Y-111401400D01*
X195447389Y-111434159D01*
X195422355Y-111465498D01*
X195395806Y-111495388D01*
X195367773Y-111523801D01*
X195338286Y-111550710D01*
X195307375Y-111576085D01*
X195275070Y-111599900D01*
X195241402Y-111622126D01*
X195206401Y-111642735D01*
X195170097Y-111661699D01*
X195132521Y-111678989D01*
X195093703Y-111694579D01*
X195053673Y-111708440D01*
X195012461Y-111720543D01*
X194970099Y-111730862D01*
X194926615Y-111739367D01*
X194882041Y-111746031D01*
X194836406Y-111750825D01*
X194789741Y-111753723D01*
X194742077Y-111754695D01*
X194691952Y-111753736D01*
X194642998Y-111750870D01*
X194595242Y-111746116D01*
X194548713Y-111739492D01*
X194503436Y-111731016D01*
X194459441Y-111720706D01*
X194416754Y-111708580D01*
X194375403Y-111694657D01*
X194335416Y-111678953D01*
X194296820Y-111661488D01*
X194259643Y-111642279D01*
X194223913Y-111621345D01*
X194189657Y-111598704D01*
X194156902Y-111574373D01*
X194125677Y-111548371D01*
X194096008Y-111520715D01*
X194067924Y-111491425D01*
X194041452Y-111460518D01*
X194016619Y-111428012D01*
X193993454Y-111393925D01*
X193971983Y-111358275D01*
X193952234Y-111321081D01*
X193934236Y-111282360D01*
X193918015Y-111242131D01*
X193903599Y-111200411D01*
X193891015Y-111157219D01*
X193880292Y-111112573D01*
X193871457Y-111066491D01*
X193864537Y-111018991D01*
X193859560Y-110970091D01*
X193856554Y-110919809D01*
X193855545Y-110868163D01*
X193856546Y-110818950D01*
X193859524Y-110770875D01*
X193864447Y-110723965D01*
X193871283Y-110678243D01*
X193879998Y-110633735D01*
X193890560Y-110590465D01*
X193902934Y-110548458D01*
X193917089Y-110507740D01*
X193932991Y-110468335D01*
X193950607Y-110430268D01*
X193969904Y-110393564D01*
X193990849Y-110358247D01*
X194013410Y-110324343D01*
X194037552Y-110291877D01*
X194063244Y-110260872D01*
X194090452Y-110231355D01*
X194119143Y-110203350D01*
X194149284Y-110176882D01*
X194180842Y-110151976D01*
X194213784Y-110128656D01*
X194248078Y-110106948D01*
X194283689Y-110086876D01*
X194320586Y-110068466D01*
X194358734Y-110051741D01*
X194398102Y-110036728D01*
X194438655Y-110023451D01*
X194480362Y-110011934D01*
X194523189Y-110002203D01*
X194567103Y-109994282D01*
X194612070Y-109988197D01*
X194658059Y-109983972D01*
X194705036Y-109981632D01*
X194705036Y-110233515D01*
G36*
X194705036Y-110233515D02*
G01*
X194671636Y-110235567D01*
X194639048Y-110238933D01*
X194607288Y-110243597D01*
X194576374Y-110249542D01*
X194546320Y-110256752D01*
X194517143Y-110265208D01*
X194488860Y-110274896D01*
X194461486Y-110285798D01*
X194435039Y-110297897D01*
X194409534Y-110311176D01*
X194384988Y-110325620D01*
X194361416Y-110341211D01*
X194338836Y-110357932D01*
X194317263Y-110375767D01*
X194296713Y-110394698D01*
X194277204Y-110414710D01*
X194258751Y-110435786D01*
X194241371Y-110457908D01*
X194225079Y-110481060D01*
X194209892Y-110505226D01*
X194195827Y-110530388D01*
X194182900Y-110556530D01*
X194171126Y-110583635D01*
X194160523Y-110611687D01*
X194151106Y-110640668D01*
X194142892Y-110670562D01*
X194135897Y-110701352D01*
X194130137Y-110733022D01*
X194125629Y-110765555D01*
X194122389Y-110798933D01*
X194120432Y-110833141D01*
X194119777Y-110868161D01*
X194120476Y-110904317D01*
X194122560Y-110939615D01*
X194126013Y-110974036D01*
X194130817Y-111007560D01*
X194136954Y-111040169D01*
X194144406Y-111071844D01*
X194153155Y-111102566D01*
X194163185Y-111132316D01*
X194174477Y-111161074D01*
X194187014Y-111188822D01*
X194200779Y-111215541D01*
X194215752Y-111241213D01*
X194231918Y-111265816D01*
X194249258Y-111289334D01*
X194267755Y-111311747D01*
X194287391Y-111333035D01*
X194308148Y-111353181D01*
X194330008Y-111372164D01*
X194352955Y-111389967D01*
X194376971Y-111406569D01*
X194402037Y-111421952D01*
X194428136Y-111436097D01*
X194455251Y-111448986D01*
X194483364Y-111460598D01*
X194512457Y-111470915D01*
X194542513Y-111479918D01*
X194573514Y-111487588D01*
X194605442Y-111493906D01*
X194638280Y-111498853D01*
X194672011Y-111502411D01*
X194706615Y-111504559D01*
X194742077Y-111505279D01*
X194776157Y-111504595D01*
X194809400Y-111502556D01*
X194841792Y-111499181D01*
X194873319Y-111494490D01*
X194903970Y-111488502D01*
X194933730Y-111481236D01*
X194962586Y-111472713D01*
X194990526Y-111462951D01*
X195017537Y-111451970D01*
X195043604Y-111439790D01*
X195068716Y-111426429D01*
X195092859Y-111411908D01*
X195116019Y-111396245D01*
X195138185Y-111379461D01*
X195159342Y-111361574D01*
X195179478Y-111342604D01*
X195198579Y-111322571D01*
X195216632Y-111301493D01*
X195233625Y-111279391D01*
X195249543Y-111256284D01*
X195264375Y-111232191D01*
X195278107Y-111207132D01*
X195290725Y-111181126D01*
X195302217Y-111154193D01*
X195312569Y-111126351D01*
X195321769Y-111097622D01*
X195329804Y-111068023D01*
X195336659Y-111037574D01*
X195342322Y-111006296D01*
X195346781Y-110974206D01*
X195350021Y-110941325D01*
X195352030Y-110907673D01*
X195621200Y-110907675D01*
X195618615Y-110955296D01*
X195614121Y-111001833D01*
X195607749Y-111047258D01*
X195599530Y-111091542D01*
X195589492Y-111134658D01*
X195577667Y-111176578D01*
X195564085Y-111217273D01*
X195548776Y-111256715D01*
X195531770Y-111294877D01*
X195513098Y-111331731D01*
X195492791Y-111367248D01*
X195470877Y-111401400D01*
X195447389Y-111434159D01*
X195422355Y-111465498D01*
X195395806Y-111495388D01*
X195367773Y-111523801D01*
X195338286Y-111550710D01*
X195307375Y-111576085D01*
X195275070Y-111599900D01*
X195241402Y-111622126D01*
X195206401Y-111642735D01*
X195170097Y-111661699D01*
X195132521Y-111678989D01*
X195093703Y-111694579D01*
X195053673Y-111708440D01*
X195012461Y-111720543D01*
X194970099Y-111730862D01*
X194926615Y-111739367D01*
X194882041Y-111746031D01*
X194836406Y-111750825D01*
X194789741Y-111753723D01*
X194742077Y-111754695D01*
X194691952Y-111753736D01*
X194642998Y-111750870D01*
X194595242Y-111746116D01*
X194548713Y-111739492D01*
X194503436Y-111731016D01*
X194459441Y-111720706D01*
X194416754Y-111708580D01*
X194375403Y-111694657D01*
X194335416Y-111678953D01*
X194296820Y-111661488D01*
X194259643Y-111642279D01*
X194223913Y-111621345D01*
X194189657Y-111598704D01*
X194156902Y-111574373D01*
X194125677Y-111548371D01*
X194096008Y-111520715D01*
X194067924Y-111491425D01*
X194041452Y-111460518D01*
X194016619Y-111428012D01*
X193993454Y-111393925D01*
X193971983Y-111358275D01*
X193952234Y-111321081D01*
X193934236Y-111282360D01*
X193918015Y-111242131D01*
X193903599Y-111200411D01*
X193891015Y-111157219D01*
X193880292Y-111112573D01*
X193871457Y-111066491D01*
X193864537Y-111018991D01*
X193859560Y-110970091D01*
X193856554Y-110919809D01*
X193855545Y-110868163D01*
X193856546Y-110818950D01*
X193859524Y-110770875D01*
X193864447Y-110723965D01*
X193871283Y-110678243D01*
X193879998Y-110633735D01*
X193890560Y-110590465D01*
X193902934Y-110548458D01*
X193917089Y-110507740D01*
X193932991Y-110468335D01*
X193950607Y-110430268D01*
X193969904Y-110393564D01*
X193990849Y-110358247D01*
X194013410Y-110324343D01*
X194037552Y-110291877D01*
X194063244Y-110260872D01*
X194090452Y-110231355D01*
X194119143Y-110203350D01*
X194149284Y-110176882D01*
X194180842Y-110151976D01*
X194213784Y-110128656D01*
X194248078Y-110106948D01*
X194283689Y-110086876D01*
X194320586Y-110068466D01*
X194358734Y-110051741D01*
X194398102Y-110036728D01*
X194438655Y-110023451D01*
X194480362Y-110011934D01*
X194523189Y-110002203D01*
X194567103Y-109994282D01*
X194612070Y-109988197D01*
X194658059Y-109983972D01*
X194705036Y-109981632D01*
X194705036Y-110233515D01*
G37*
X183565370Y-111730000D02*
X183301139Y-111730000D01*
X183301139Y-110571830D01*
X183565370Y-110571830D01*
X183565370Y-111730000D01*
G36*
X183565370Y-111730000D02*
G01*
X183301139Y-111730000D01*
X183301139Y-110571830D01*
X183565370Y-110571830D01*
X183565370Y-111730000D01*
G37*
X190222995Y-110233515D02*
X190189596Y-110235567D01*
X190157008Y-110238933D01*
X190125248Y-110243597D01*
X190094333Y-110249542D01*
X190064280Y-110256752D01*
X190035103Y-110265208D01*
X190006820Y-110274896D01*
X189979446Y-110285798D01*
X189952999Y-110297897D01*
X189927494Y-110311176D01*
X189902947Y-110325620D01*
X189879376Y-110341211D01*
X189856795Y-110357932D01*
X189835223Y-110375767D01*
X189814673Y-110394698D01*
X189795164Y-110414710D01*
X189776711Y-110435786D01*
X189759330Y-110457908D01*
X189743039Y-110481060D01*
X189727852Y-110505226D01*
X189713787Y-110530388D01*
X189700860Y-110556530D01*
X189689086Y-110583635D01*
X189678483Y-110611687D01*
X189669066Y-110640668D01*
X189660852Y-110670562D01*
X189653857Y-110701352D01*
X189648097Y-110733022D01*
X189643589Y-110765555D01*
X189640348Y-110798933D01*
X189638392Y-110833141D01*
X189637737Y-110868161D01*
X189638436Y-110904317D01*
X189640520Y-110939615D01*
X189643973Y-110974036D01*
X189648777Y-111007560D01*
X189654913Y-111040169D01*
X189662365Y-111071844D01*
X189671115Y-111102566D01*
X189681145Y-111132316D01*
X189692437Y-111161074D01*
X189704974Y-111188822D01*
X189718739Y-111215541D01*
X189733712Y-111241213D01*
X189749878Y-111265816D01*
X189767218Y-111289334D01*
X189785715Y-111311747D01*
X189805351Y-111333035D01*
X189826108Y-111353181D01*
X189847968Y-111372164D01*
X189870915Y-111389967D01*
X189894931Y-111406569D01*
X189919997Y-111421952D01*
X189946096Y-111436097D01*
X189973211Y-111448986D01*
X190001324Y-111460598D01*
X190030418Y-111470915D01*
X190060474Y-111479918D01*
X190091475Y-111487588D01*
X190123403Y-111493906D01*
X190156241Y-111498853D01*
X190189971Y-111502411D01*
X190224576Y-111504559D01*
X190260038Y-111505279D01*
X190294118Y-111504595D01*
X190327361Y-111502556D01*
X190359753Y-111499181D01*
X190391280Y-111494490D01*
X190421931Y-111488502D01*
X190451691Y-111481236D01*
X190480547Y-111472713D01*
X190508487Y-111462951D01*
X190535498Y-111451970D01*
X190561565Y-111439790D01*
X190586677Y-111426429D01*
X190610820Y-111411908D01*
X190633980Y-111396245D01*
X190656146Y-111379461D01*
X190677303Y-111361574D01*
X190697438Y-111342604D01*
X190716539Y-111322571D01*
X190734593Y-111301493D01*
X190751585Y-111279391D01*
X190767504Y-111256284D01*
X190782336Y-111232191D01*
X190796067Y-111207132D01*
X190808685Y-111181126D01*
X190820177Y-111154193D01*
X190830530Y-111126351D01*
X190839730Y-111097622D01*
X190847764Y-111068023D01*
X190854619Y-111037574D01*
X190860283Y-111006296D01*
X190864741Y-110974206D01*
X190867981Y-110941325D01*
X190869990Y-110907673D01*
X191139159Y-110907675D01*
X191136574Y-110955296D01*
X191132080Y-111001833D01*
X191125708Y-111047258D01*
X191117488Y-111091542D01*
X191107451Y-111134658D01*
X191095626Y-111176578D01*
X191082044Y-111217273D01*
X191066735Y-111256715D01*
X191049729Y-111294877D01*
X191031057Y-111331731D01*
X191010750Y-111367248D01*
X190988836Y-111401400D01*
X190965347Y-111434159D01*
X190940314Y-111465498D01*
X190913765Y-111495388D01*
X190885732Y-111523801D01*
X190856245Y-111550710D01*
X190825334Y-111576085D01*
X190793029Y-111599900D01*
X190759361Y-111622126D01*
X190724360Y-111642735D01*
X190688056Y-111661699D01*
X190650480Y-111678989D01*
X190611662Y-111694579D01*
X190571632Y-111708440D01*
X190530421Y-111720543D01*
X190488058Y-111730862D01*
X190444574Y-111739367D01*
X190400000Y-111746031D01*
X190354366Y-111750825D01*
X190307701Y-111753723D01*
X190260037Y-111754695D01*
X190209912Y-111753736D01*
X190160958Y-111750870D01*
X190113202Y-111746116D01*
X190066672Y-111739492D01*
X190021396Y-111731016D01*
X189977400Y-111720706D01*
X189934713Y-111708580D01*
X189893362Y-111694657D01*
X189853375Y-111678953D01*
X189814779Y-111661488D01*
X189777603Y-111642279D01*
X189741872Y-111621345D01*
X189707616Y-111598704D01*
X189674861Y-111574373D01*
X189643636Y-111548371D01*
X189613968Y-111520715D01*
X189585883Y-111491425D01*
X189559411Y-111460518D01*
X189534579Y-111428012D01*
X189511413Y-111393925D01*
X189489942Y-111358275D01*
X189470194Y-111321081D01*
X189452196Y-111282360D01*
X189435975Y-111242131D01*
X189421559Y-111200411D01*
X189408975Y-111157219D01*
X189398252Y-111112573D01*
X189389417Y-111066491D01*
X189382497Y-111018991D01*
X189377520Y-110970091D01*
X189374514Y-110919809D01*
X189373505Y-110868163D01*
X189374505Y-110818950D01*
X189377484Y-110770875D01*
X189382407Y-110723965D01*
X189389243Y-110678243D01*
X189397958Y-110633735D01*
X189408520Y-110590465D01*
X189420894Y-110548458D01*
X189435049Y-110507740D01*
X189450950Y-110468335D01*
X189468566Y-110430268D01*
X189487864Y-110393564D01*
X189508809Y-110358247D01*
X189531369Y-110324343D01*
X189555512Y-110291877D01*
X189581204Y-110260872D01*
X189608412Y-110231355D01*
X189637103Y-110203350D01*
X189667244Y-110176882D01*
X189698802Y-110151976D01*
X189731744Y-110128656D01*
X189766038Y-110106948D01*
X189801649Y-110086876D01*
X189838546Y-110068466D01*
X189876694Y-110051741D01*
X189916062Y-110036728D01*
X189956615Y-110023451D01*
X189998322Y-110011934D01*
X190041149Y-110002203D01*
X190085062Y-109994282D01*
X190130030Y-109988197D01*
X190176019Y-109983972D01*
X190222995Y-109981632D01*
X190222995Y-110233515D01*
G36*
X190222995Y-110233515D02*
G01*
X190189596Y-110235567D01*
X190157008Y-110238933D01*
X190125248Y-110243597D01*
X190094333Y-110249542D01*
X190064280Y-110256752D01*
X190035103Y-110265208D01*
X190006820Y-110274896D01*
X189979446Y-110285798D01*
X189952999Y-110297897D01*
X189927494Y-110311176D01*
X189902947Y-110325620D01*
X189879376Y-110341211D01*
X189856795Y-110357932D01*
X189835223Y-110375767D01*
X189814673Y-110394698D01*
X189795164Y-110414710D01*
X189776711Y-110435786D01*
X189759330Y-110457908D01*
X189743039Y-110481060D01*
X189727852Y-110505226D01*
X189713787Y-110530388D01*
X189700860Y-110556530D01*
X189689086Y-110583635D01*
X189678483Y-110611687D01*
X189669066Y-110640668D01*
X189660852Y-110670562D01*
X189653857Y-110701352D01*
X189648097Y-110733022D01*
X189643589Y-110765555D01*
X189640348Y-110798933D01*
X189638392Y-110833141D01*
X189637737Y-110868161D01*
X189638436Y-110904317D01*
X189640520Y-110939615D01*
X189643973Y-110974036D01*
X189648777Y-111007560D01*
X189654913Y-111040169D01*
X189662365Y-111071844D01*
X189671115Y-111102566D01*
X189681145Y-111132316D01*
X189692437Y-111161074D01*
X189704974Y-111188822D01*
X189718739Y-111215541D01*
X189733712Y-111241213D01*
X189749878Y-111265816D01*
X189767218Y-111289334D01*
X189785715Y-111311747D01*
X189805351Y-111333035D01*
X189826108Y-111353181D01*
X189847968Y-111372164D01*
X189870915Y-111389967D01*
X189894931Y-111406569D01*
X189919997Y-111421952D01*
X189946096Y-111436097D01*
X189973211Y-111448986D01*
X190001324Y-111460598D01*
X190030418Y-111470915D01*
X190060474Y-111479918D01*
X190091475Y-111487588D01*
X190123403Y-111493906D01*
X190156241Y-111498853D01*
X190189971Y-111502411D01*
X190224576Y-111504559D01*
X190260038Y-111505279D01*
X190294118Y-111504595D01*
X190327361Y-111502556D01*
X190359753Y-111499181D01*
X190391280Y-111494490D01*
X190421931Y-111488502D01*
X190451691Y-111481236D01*
X190480547Y-111472713D01*
X190508487Y-111462951D01*
X190535498Y-111451970D01*
X190561565Y-111439790D01*
X190586677Y-111426429D01*
X190610820Y-111411908D01*
X190633980Y-111396245D01*
X190656146Y-111379461D01*
X190677303Y-111361574D01*
X190697438Y-111342604D01*
X190716539Y-111322571D01*
X190734593Y-111301493D01*
X190751585Y-111279391D01*
X190767504Y-111256284D01*
X190782336Y-111232191D01*
X190796067Y-111207132D01*
X190808685Y-111181126D01*
X190820177Y-111154193D01*
X190830530Y-111126351D01*
X190839730Y-111097622D01*
X190847764Y-111068023D01*
X190854619Y-111037574D01*
X190860283Y-111006296D01*
X190864741Y-110974206D01*
X190867981Y-110941325D01*
X190869990Y-110907673D01*
X191139159Y-110907675D01*
X191136574Y-110955296D01*
X191132080Y-111001833D01*
X191125708Y-111047258D01*
X191117488Y-111091542D01*
X191107451Y-111134658D01*
X191095626Y-111176578D01*
X191082044Y-111217273D01*
X191066735Y-111256715D01*
X191049729Y-111294877D01*
X191031057Y-111331731D01*
X191010750Y-111367248D01*
X190988836Y-111401400D01*
X190965347Y-111434159D01*
X190940314Y-111465498D01*
X190913765Y-111495388D01*
X190885732Y-111523801D01*
X190856245Y-111550710D01*
X190825334Y-111576085D01*
X190793029Y-111599900D01*
X190759361Y-111622126D01*
X190724360Y-111642735D01*
X190688056Y-111661699D01*
X190650480Y-111678989D01*
X190611662Y-111694579D01*
X190571632Y-111708440D01*
X190530421Y-111720543D01*
X190488058Y-111730862D01*
X190444574Y-111739367D01*
X190400000Y-111746031D01*
X190354366Y-111750825D01*
X190307701Y-111753723D01*
X190260037Y-111754695D01*
X190209912Y-111753736D01*
X190160958Y-111750870D01*
X190113202Y-111746116D01*
X190066672Y-111739492D01*
X190021396Y-111731016D01*
X189977400Y-111720706D01*
X189934713Y-111708580D01*
X189893362Y-111694657D01*
X189853375Y-111678953D01*
X189814779Y-111661488D01*
X189777603Y-111642279D01*
X189741872Y-111621345D01*
X189707616Y-111598704D01*
X189674861Y-111574373D01*
X189643636Y-111548371D01*
X189613968Y-111520715D01*
X189585883Y-111491425D01*
X189559411Y-111460518D01*
X189534579Y-111428012D01*
X189511413Y-111393925D01*
X189489942Y-111358275D01*
X189470194Y-111321081D01*
X189452196Y-111282360D01*
X189435975Y-111242131D01*
X189421559Y-111200411D01*
X189408975Y-111157219D01*
X189398252Y-111112573D01*
X189389417Y-111066491D01*
X189382497Y-111018991D01*
X189377520Y-110970091D01*
X189374514Y-110919809D01*
X189373505Y-110868163D01*
X189374505Y-110818950D01*
X189377484Y-110770875D01*
X189382407Y-110723965D01*
X189389243Y-110678243D01*
X189397958Y-110633735D01*
X189408520Y-110590465D01*
X189420894Y-110548458D01*
X189435049Y-110507740D01*
X189450950Y-110468335D01*
X189468566Y-110430268D01*
X189487864Y-110393564D01*
X189508809Y-110358247D01*
X189531369Y-110324343D01*
X189555512Y-110291877D01*
X189581204Y-110260872D01*
X189608412Y-110231355D01*
X189637103Y-110203350D01*
X189667244Y-110176882D01*
X189698802Y-110151976D01*
X189731744Y-110128656D01*
X189766038Y-110106948D01*
X189801649Y-110086876D01*
X189838546Y-110068466D01*
X189876694Y-110051741D01*
X189916062Y-110036728D01*
X189956615Y-110023451D01*
X189998322Y-110011934D01*
X190041149Y-110002203D01*
X190085062Y-109994282D01*
X190130030Y-109988197D01*
X190176019Y-109983972D01*
X190222995Y-109981632D01*
X190222995Y-110233515D01*
G37*
X187311759Y-110487674D02*
X187308331Y-110511190D01*
X187303739Y-110533748D01*
X187298015Y-110555376D01*
X187291191Y-110576102D01*
X187283299Y-110595953D01*
X187274374Y-110614956D01*
X187264446Y-110633140D01*
X187253549Y-110650531D01*
X187241714Y-110667158D01*
X187228976Y-110683048D01*
X187215366Y-110698228D01*
X187200916Y-110712727D01*
X187185660Y-110726571D01*
X187169630Y-110739788D01*
X187152858Y-110752407D01*
X187135377Y-110764453D01*
X187117220Y-110775956D01*
X187098418Y-110786943D01*
X187079006Y-110797440D01*
X187038477Y-110817080D01*
X186995894Y-110835095D01*
X186951516Y-110851706D01*
X186905604Y-110867135D01*
X186858420Y-110881601D01*
X186810222Y-110895326D01*
X186785938Y-110903332D01*
X186761335Y-110910760D01*
X186736558Y-110917724D01*
X186711753Y-110924342D01*
X186662634Y-110936998D01*
X186615136Y-110949654D01*
X186522531Y-110981757D01*
X186479007Y-110997577D01*
X186457940Y-111005631D01*
X186437336Y-111013859D01*
X186417729Y-111023851D01*
X186398784Y-111034415D01*
X186380585Y-111045601D01*
X186363214Y-111057460D01*
X186346754Y-111070042D01*
X186331290Y-111083399D01*
X186316903Y-111097580D01*
X186303677Y-111112637D01*
X186297526Y-111120509D01*
X186291696Y-111128619D01*
X186286198Y-111136974D01*
X186281042Y-111145578D01*
X186276239Y-111154440D01*
X186271799Y-111163565D01*
X186267733Y-111172959D01*
X186264050Y-111182630D01*
X186260762Y-111192582D01*
X186257879Y-111202823D01*
X186255410Y-111213358D01*
X186253367Y-111224195D01*
X186251760Y-111235340D01*
X186250599Y-111246798D01*
X186249895Y-111258576D01*
X186249658Y-111270681D01*
X186250406Y-111291252D01*
X186252604Y-111310847D01*
X186256182Y-111329486D01*
X186261070Y-111347190D01*
X186267199Y-111363980D01*
X186274499Y-111379879D01*
X186282900Y-111394907D01*
X186292333Y-111409085D01*
X186302729Y-111422435D01*
X186314017Y-111434977D01*
X186326128Y-111446734D01*
X186338992Y-111457726D01*
X186352540Y-111467975D01*
X186366703Y-111477502D01*
X186381409Y-111486327D01*
X186396590Y-111494474D01*
X186412177Y-111501961D01*
X186428099Y-111508812D01*
X186444287Y-111515047D01*
X186460671Y-111520687D01*
X186493749Y-111530269D01*
X186526777Y-111537728D01*
X186559197Y-111543233D01*
X186590452Y-111546954D01*
X186619985Y-111549063D01*
X186647239Y-111549728D01*
X186686383Y-111548561D01*
X186724940Y-111545020D01*
X186762673Y-111539049D01*
X186799342Y-111530589D01*
X186834709Y-111519583D01*
X186868534Y-111505972D01*
X186884795Y-111498172D01*
X186900580Y-111489698D01*
X186915862Y-111480545D01*
X186930608Y-111470705D01*
X186944790Y-111460170D01*
X186958379Y-111448933D01*
X186971343Y-111436987D01*
X186983653Y-111424325D01*
X186995280Y-111410940D01*
X187006193Y-111396824D01*
X187016362Y-111381970D01*
X187025759Y-111366370D01*
X187034352Y-111350019D01*
X187042113Y-111332908D01*
X187049011Y-111315029D01*
X187055016Y-111296377D01*
X187060099Y-111276944D01*
X187064230Y-111256721D01*
X187067378Y-111235703D01*
X187069515Y-111213882D01*
X187343622Y-111213885D01*
X187341162Y-111250416D01*
X187337048Y-111285477D01*
X187331319Y-111319089D01*
X187324016Y-111351271D01*
X187315177Y-111382045D01*
X187304842Y-111411430D01*
X187293050Y-111439446D01*
X187279841Y-111466115D01*
X187265253Y-111491456D01*
X187249327Y-111515490D01*
X187232101Y-111538237D01*
X187213614Y-111559717D01*
X187193907Y-111579952D01*
X187173019Y-111598960D01*
X187150988Y-111616763D01*
X187127854Y-111633381D01*
X187103657Y-111648834D01*
X187078436Y-111663143D01*
X187052229Y-111676328D01*
X187025078Y-111688408D01*
X186997020Y-111699406D01*
X186968095Y-111709340D01*
X186938343Y-111718232D01*
X186907803Y-111726101D01*
X186876514Y-111732968D01*
X186844516Y-111738854D01*
X186778548Y-111747762D01*
X186710214Y-111752987D01*
X186639830Y-111754693D01*
X186580770Y-111753001D01*
X186521562Y-111747873D01*
X186462752Y-111739228D01*
X186404886Y-111726989D01*
X186348510Y-111711073D01*
X186294170Y-111691403D01*
X186242414Y-111667899D01*
X186193786Y-111640481D01*
X186170817Y-111625279D01*
X186148834Y-111609069D01*
X186127907Y-111591840D01*
X186108103Y-111573584D01*
X186089492Y-111554289D01*
X186072140Y-111533946D01*
X186056117Y-111512545D01*
X186041491Y-111490076D01*
X186028330Y-111466529D01*
X186016702Y-111441894D01*
X186006675Y-111416161D01*
X185998319Y-111389320D01*
X185991701Y-111361362D01*
X185986889Y-111332276D01*
X185983951Y-111302052D01*
X185982957Y-111270681D01*
X185983653Y-111243444D01*
X185985714Y-111217279D01*
X185989104Y-111192155D01*
X185993785Y-111168044D01*
X185999719Y-111144917D01*
X186006870Y-111122745D01*
X186015198Y-111101499D01*
X186024668Y-111081151D01*
X186035240Y-111061670D01*
X186046879Y-111043028D01*
X186059545Y-111025197D01*
X186073203Y-111008148D01*
X186087813Y-110991850D01*
X186103339Y-110976276D01*
X186119744Y-110961397D01*
X186136989Y-110947183D01*
X186155037Y-110933606D01*
X186173850Y-110920637D01*
X186193391Y-110908246D01*
X186213623Y-110896406D01*
X186256009Y-110874258D01*
X186300705Y-110853962D01*
X186347413Y-110835287D01*
X186395832Y-110818001D01*
X186445662Y-110801873D01*
X186496602Y-110786670D01*
X186521702Y-110778558D01*
X186546917Y-110770850D01*
X186597232Y-110756419D01*
X186694157Y-110729872D01*
X186747641Y-110713970D01*
X186804395Y-110695261D01*
X186833139Y-110684555D01*
X186861670Y-110672790D01*
X186889643Y-110659845D01*
X186916716Y-110645602D01*
X186942545Y-110629940D01*
X186966785Y-110612742D01*
X186989094Y-110593886D01*
X186999417Y-110583800D01*
X187009128Y-110573255D01*
X187018184Y-110562236D01*
X187026542Y-110550728D01*
X187034160Y-110538716D01*
X187040994Y-110526186D01*
X187047002Y-110513123D01*
X187052140Y-110499510D01*
X187056366Y-110485335D01*
X187059636Y-110470581D01*
X187313989Y-110463173D01*
X187311759Y-110487674D01*
G36*
X187311759Y-110487674D02*
G01*
X187308331Y-110511190D01*
X187303739Y-110533748D01*
X187298015Y-110555376D01*
X187291191Y-110576102D01*
X187283299Y-110595953D01*
X187274374Y-110614956D01*
X187264446Y-110633140D01*
X187253549Y-110650531D01*
X187241714Y-110667158D01*
X187228976Y-110683048D01*
X187215366Y-110698228D01*
X187200916Y-110712727D01*
X187185660Y-110726571D01*
X187169630Y-110739788D01*
X187152858Y-110752407D01*
X187135377Y-110764453D01*
X187117220Y-110775956D01*
X187098418Y-110786943D01*
X187079006Y-110797440D01*
X187038477Y-110817080D01*
X186995894Y-110835095D01*
X186951516Y-110851706D01*
X186905604Y-110867135D01*
X186858420Y-110881601D01*
X186810222Y-110895326D01*
X186785938Y-110903332D01*
X186761335Y-110910760D01*
X186736558Y-110917724D01*
X186711753Y-110924342D01*
X186662634Y-110936998D01*
X186615136Y-110949654D01*
X186522531Y-110981757D01*
X186479007Y-110997577D01*
X186457940Y-111005631D01*
X186437336Y-111013859D01*
X186417729Y-111023851D01*
X186398784Y-111034415D01*
X186380585Y-111045601D01*
X186363214Y-111057460D01*
X186346754Y-111070042D01*
X186331290Y-111083399D01*
X186316903Y-111097580D01*
X186303677Y-111112637D01*
X186297526Y-111120509D01*
X186291696Y-111128619D01*
X186286198Y-111136974D01*
X186281042Y-111145578D01*
X186276239Y-111154440D01*
X186271799Y-111163565D01*
X186267733Y-111172959D01*
X186264050Y-111182630D01*
X186260762Y-111192582D01*
X186257879Y-111202823D01*
X186255410Y-111213358D01*
X186253367Y-111224195D01*
X186251760Y-111235340D01*
X186250599Y-111246798D01*
X186249895Y-111258576D01*
X186249658Y-111270681D01*
X186250406Y-111291252D01*
X186252604Y-111310847D01*
X186256182Y-111329486D01*
X186261070Y-111347190D01*
X186267199Y-111363980D01*
X186274499Y-111379879D01*
X186282900Y-111394907D01*
X186292333Y-111409085D01*
X186302729Y-111422435D01*
X186314017Y-111434977D01*
X186326128Y-111446734D01*
X186338992Y-111457726D01*
X186352540Y-111467975D01*
X186366703Y-111477502D01*
X186381409Y-111486327D01*
X186396590Y-111494474D01*
X186412177Y-111501961D01*
X186428099Y-111508812D01*
X186444287Y-111515047D01*
X186460671Y-111520687D01*
X186493749Y-111530269D01*
X186526777Y-111537728D01*
X186559197Y-111543233D01*
X186590452Y-111546954D01*
X186619985Y-111549063D01*
X186647239Y-111549728D01*
X186686383Y-111548561D01*
X186724940Y-111545020D01*
X186762673Y-111539049D01*
X186799342Y-111530589D01*
X186834709Y-111519583D01*
X186868534Y-111505972D01*
X186884795Y-111498172D01*
X186900580Y-111489698D01*
X186915862Y-111480545D01*
X186930608Y-111470705D01*
X186944790Y-111460170D01*
X186958379Y-111448933D01*
X186971343Y-111436987D01*
X186983653Y-111424325D01*
X186995280Y-111410940D01*
X187006193Y-111396824D01*
X187016362Y-111381970D01*
X187025759Y-111366370D01*
X187034352Y-111350019D01*
X187042113Y-111332908D01*
X187049011Y-111315029D01*
X187055016Y-111296377D01*
X187060099Y-111276944D01*
X187064230Y-111256721D01*
X187067378Y-111235703D01*
X187069515Y-111213882D01*
X187343622Y-111213885D01*
X187341162Y-111250416D01*
X187337048Y-111285477D01*
X187331319Y-111319089D01*
X187324016Y-111351271D01*
X187315177Y-111382045D01*
X187304842Y-111411430D01*
X187293050Y-111439446D01*
X187279841Y-111466115D01*
X187265253Y-111491456D01*
X187249327Y-111515490D01*
X187232101Y-111538237D01*
X187213614Y-111559717D01*
X187193907Y-111579952D01*
X187173019Y-111598960D01*
X187150988Y-111616763D01*
X187127854Y-111633381D01*
X187103657Y-111648834D01*
X187078436Y-111663143D01*
X187052229Y-111676328D01*
X187025078Y-111688408D01*
X186997020Y-111699406D01*
X186968095Y-111709340D01*
X186938343Y-111718232D01*
X186907803Y-111726101D01*
X186876514Y-111732968D01*
X186844516Y-111738854D01*
X186778548Y-111747762D01*
X186710214Y-111752987D01*
X186639830Y-111754693D01*
X186580770Y-111753001D01*
X186521562Y-111747873D01*
X186462752Y-111739228D01*
X186404886Y-111726989D01*
X186348510Y-111711073D01*
X186294170Y-111691403D01*
X186242414Y-111667899D01*
X186193786Y-111640481D01*
X186170817Y-111625279D01*
X186148834Y-111609069D01*
X186127907Y-111591840D01*
X186108103Y-111573584D01*
X186089492Y-111554289D01*
X186072140Y-111533946D01*
X186056117Y-111512545D01*
X186041491Y-111490076D01*
X186028330Y-111466529D01*
X186016702Y-111441894D01*
X186006675Y-111416161D01*
X185998319Y-111389320D01*
X185991701Y-111361362D01*
X185986889Y-111332276D01*
X185983951Y-111302052D01*
X185982957Y-111270681D01*
X185983653Y-111243444D01*
X185985714Y-111217279D01*
X185989104Y-111192155D01*
X185993785Y-111168044D01*
X185999719Y-111144917D01*
X186006870Y-111122745D01*
X186015198Y-111101499D01*
X186024668Y-111081151D01*
X186035240Y-111061670D01*
X186046879Y-111043028D01*
X186059545Y-111025197D01*
X186073203Y-111008148D01*
X186087813Y-110991850D01*
X186103339Y-110976276D01*
X186119744Y-110961397D01*
X186136989Y-110947183D01*
X186155037Y-110933606D01*
X186173850Y-110920637D01*
X186193391Y-110908246D01*
X186213623Y-110896406D01*
X186256009Y-110874258D01*
X186300705Y-110853962D01*
X186347413Y-110835287D01*
X186395832Y-110818001D01*
X186445662Y-110801873D01*
X186496602Y-110786670D01*
X186521702Y-110778558D01*
X186546917Y-110770850D01*
X186597232Y-110756419D01*
X186694157Y-110729872D01*
X186747641Y-110713970D01*
X186804395Y-110695261D01*
X186833139Y-110684555D01*
X186861670Y-110672790D01*
X186889643Y-110659845D01*
X186916716Y-110645602D01*
X186942545Y-110629940D01*
X186966785Y-110612742D01*
X186989094Y-110593886D01*
X186999417Y-110583800D01*
X187009128Y-110573255D01*
X187018184Y-110562236D01*
X187026542Y-110550728D01*
X187034160Y-110538716D01*
X187040994Y-110526186D01*
X187047002Y-110513123D01*
X187052140Y-110499510D01*
X187056366Y-110485335D01*
X187059636Y-110470581D01*
X187313989Y-110463173D01*
X187311759Y-110487674D01*
G37*
X191731824Y-110206351D02*
X191462654Y-110206351D01*
X191462654Y-110006325D01*
X191731824Y-110006325D01*
X191731824Y-110206351D01*
G36*
X191731824Y-110206351D02*
G01*
X191462654Y-110206351D01*
X191462654Y-110006325D01*
X191731824Y-110006325D01*
X191731824Y-110206351D01*
G37*
D12*
X212177945Y-79685504D02*
X211701755Y-79685504D01*
X212273183Y-79971219D02*
X211939850Y-78971219D01*
X211939850Y-78971219D02*
X211606517Y-79971219D01*
D13*
X194387388Y-113144524D02*
X194387388Y-112244524D01*
X194387388Y-112244524D02*
X194044531Y-112244524D01*
X194044531Y-112244524D02*
X193958816Y-112287381D01*
X193958816Y-112287381D02*
X193915959Y-112330238D01*
X193915959Y-112330238D02*
X193873102Y-112415952D01*
X193873102Y-112415952D02*
X193873102Y-112544524D01*
X193873102Y-112544524D02*
X193915959Y-112630238D01*
X193915959Y-112630238D02*
X193958816Y-112673095D01*
X193958816Y-112673095D02*
X194044531Y-112715952D01*
X194044531Y-112715952D02*
X194387388Y-112715952D01*
X193487388Y-113144524D02*
X193487388Y-112544524D01*
X193487388Y-112715952D02*
X193444531Y-112630238D01*
X193444531Y-112630238D02*
X193401674Y-112587381D01*
X193401674Y-112587381D02*
X193315959Y-112544524D01*
X193315959Y-112544524D02*
X193230245Y-112544524D01*
X192930245Y-113144524D02*
X192930245Y-112544524D01*
X192930245Y-112244524D02*
X192973102Y-112287381D01*
X192973102Y-112287381D02*
X192930245Y-112330238D01*
X192930245Y-112330238D02*
X192887388Y-112287381D01*
X192887388Y-112287381D02*
X192930245Y-112244524D01*
X192930245Y-112244524D02*
X192930245Y-112330238D01*
X192501674Y-113144524D02*
X192501674Y-112544524D01*
X192501674Y-112630238D02*
X192458817Y-112587381D01*
X192458817Y-112587381D02*
X192373102Y-112544524D01*
X192373102Y-112544524D02*
X192244531Y-112544524D01*
X192244531Y-112544524D02*
X192158817Y-112587381D01*
X192158817Y-112587381D02*
X192115960Y-112673095D01*
X192115960Y-112673095D02*
X192115960Y-113144524D01*
X192115960Y-112673095D02*
X192073102Y-112587381D01*
X192073102Y-112587381D02*
X191987388Y-112544524D01*
X191987388Y-112544524D02*
X191858817Y-112544524D01*
X191858817Y-112544524D02*
X191773102Y-112587381D01*
X191773102Y-112587381D02*
X191730245Y-112673095D01*
X191730245Y-112673095D02*
X191730245Y-113144524D01*
X190915960Y-113144524D02*
X190915960Y-112673095D01*
X190915960Y-112673095D02*
X190958817Y-112587381D01*
X190958817Y-112587381D02*
X191044531Y-112544524D01*
X191044531Y-112544524D02*
X191215960Y-112544524D01*
X191215960Y-112544524D02*
X191301674Y-112587381D01*
X190915960Y-113101667D02*
X191001674Y-113144524D01*
X191001674Y-113144524D02*
X191215960Y-113144524D01*
X191215960Y-113144524D02*
X191301674Y-113101667D01*
X191301674Y-113101667D02*
X191344531Y-113015952D01*
X191344531Y-113015952D02*
X191344531Y-112930238D01*
X191344531Y-112930238D02*
X191301674Y-112844524D01*
X191301674Y-112844524D02*
X191215960Y-112801667D01*
X191215960Y-112801667D02*
X191001674Y-112801667D01*
X191001674Y-112801667D02*
X190915960Y-112758809D01*
X190487388Y-113144524D02*
X190487388Y-112544524D01*
X190487388Y-112715952D02*
X190444531Y-112630238D01*
X190444531Y-112630238D02*
X190401674Y-112587381D01*
X190401674Y-112587381D02*
X190315959Y-112544524D01*
X190315959Y-112544524D02*
X190230245Y-112544524D01*
X190015959Y-112544524D02*
X189801673Y-113144524D01*
X189587388Y-112544524D02*
X189801673Y-113144524D01*
X189801673Y-113144524D02*
X189887388Y-113358809D01*
X189887388Y-113358809D02*
X189930245Y-113401667D01*
X189930245Y-113401667D02*
X190015959Y-113444524D01*
X188558817Y-113144524D02*
X188558817Y-112244524D01*
X188558817Y-112244524D02*
X188258817Y-112887381D01*
X188258817Y-112887381D02*
X187958817Y-112244524D01*
X187958817Y-112244524D02*
X187958817Y-113144524D01*
X187530246Y-113144524D02*
X187530246Y-112544524D01*
X187530246Y-112244524D02*
X187573103Y-112287381D01*
X187573103Y-112287381D02*
X187530246Y-112330238D01*
X187530246Y-112330238D02*
X187487389Y-112287381D01*
X187487389Y-112287381D02*
X187530246Y-112244524D01*
X187530246Y-112244524D02*
X187530246Y-112330238D01*
X187144532Y-113101667D02*
X187058818Y-113144524D01*
X187058818Y-113144524D02*
X186887389Y-113144524D01*
X186887389Y-113144524D02*
X186801675Y-113101667D01*
X186801675Y-113101667D02*
X186758818Y-113015952D01*
X186758818Y-113015952D02*
X186758818Y-112973095D01*
X186758818Y-112973095D02*
X186801675Y-112887381D01*
X186801675Y-112887381D02*
X186887389Y-112844524D01*
X186887389Y-112844524D02*
X187015961Y-112844524D01*
X187015961Y-112844524D02*
X187101675Y-112801667D01*
X187101675Y-112801667D02*
X187144532Y-112715952D01*
X187144532Y-112715952D02*
X187144532Y-112673095D01*
X187144532Y-112673095D02*
X187101675Y-112587381D01*
X187101675Y-112587381D02*
X187015961Y-112544524D01*
X187015961Y-112544524D02*
X186887389Y-112544524D01*
X186887389Y-112544524D02*
X186801675Y-112587381D01*
X186415961Y-113101667D02*
X186330247Y-113144524D01*
X186330247Y-113144524D02*
X186158818Y-113144524D01*
X186158818Y-113144524D02*
X186073104Y-113101667D01*
X186073104Y-113101667D02*
X186030247Y-113015952D01*
X186030247Y-113015952D02*
X186030247Y-112973095D01*
X186030247Y-112973095D02*
X186073104Y-112887381D01*
X186073104Y-112887381D02*
X186158818Y-112844524D01*
X186158818Y-112844524D02*
X186287390Y-112844524D01*
X186287390Y-112844524D02*
X186373104Y-112801667D01*
X186373104Y-112801667D02*
X186415961Y-112715952D01*
X186415961Y-112715952D02*
X186415961Y-112673095D01*
X186415961Y-112673095D02*
X186373104Y-112587381D01*
X186373104Y-112587381D02*
X186287390Y-112544524D01*
X186287390Y-112544524D02*
X186158818Y-112544524D01*
X186158818Y-112544524D02*
X186073104Y-112587381D01*
X185644533Y-113144524D02*
X185644533Y-112544524D01*
X185644533Y-112244524D02*
X185687390Y-112287381D01*
X185687390Y-112287381D02*
X185644533Y-112330238D01*
X185644533Y-112330238D02*
X185601676Y-112287381D01*
X185601676Y-112287381D02*
X185644533Y-112244524D01*
X185644533Y-112244524D02*
X185644533Y-112330238D01*
X185087390Y-113144524D02*
X185173105Y-113101667D01*
X185173105Y-113101667D02*
X185215962Y-113058809D01*
X185215962Y-113058809D02*
X185258819Y-112973095D01*
X185258819Y-112973095D02*
X185258819Y-112715952D01*
X185258819Y-112715952D02*
X185215962Y-112630238D01*
X185215962Y-112630238D02*
X185173105Y-112587381D01*
X185173105Y-112587381D02*
X185087390Y-112544524D01*
X185087390Y-112544524D02*
X184958819Y-112544524D01*
X184958819Y-112544524D02*
X184873105Y-112587381D01*
X184873105Y-112587381D02*
X184830248Y-112630238D01*
X184830248Y-112630238D02*
X184787390Y-112715952D01*
X184787390Y-112715952D02*
X184787390Y-112973095D01*
X184787390Y-112973095D02*
X184830248Y-113058809D01*
X184830248Y-113058809D02*
X184873105Y-113101667D01*
X184873105Y-113101667D02*
X184958819Y-113144524D01*
X184958819Y-113144524D02*
X185087390Y-113144524D01*
X184401676Y-112544524D02*
X184401676Y-113144524D01*
X184401676Y-112630238D02*
X184358819Y-112587381D01*
X184358819Y-112587381D02*
X184273104Y-112544524D01*
X184273104Y-112544524D02*
X184144533Y-112544524D01*
X184144533Y-112544524D02*
X184058819Y-112587381D01*
X184058819Y-112587381D02*
X184015962Y-112673095D01*
X184015962Y-112673095D02*
X184015962Y-113144524D01*
D12*
X165316993Y-79573409D02*
X165174136Y-79621028D01*
X165174136Y-79621028D02*
X165126517Y-79668647D01*
X165126517Y-79668647D02*
X165078898Y-79763885D01*
X165078898Y-79763885D02*
X165078898Y-79906742D01*
X165078898Y-79906742D02*
X165126517Y-80001980D01*
X165126517Y-80001980D02*
X165174136Y-80049600D01*
X165174136Y-80049600D02*
X165269374Y-80097219D01*
X165269374Y-80097219D02*
X165650326Y-80097219D01*
X165650326Y-80097219D02*
X165650326Y-79097219D01*
X165650326Y-79097219D02*
X165316993Y-79097219D01*
X165316993Y-79097219D02*
X165221755Y-79144838D01*
X165221755Y-79144838D02*
X165174136Y-79192457D01*
X165174136Y-79192457D02*
X165126517Y-79287695D01*
X165126517Y-79287695D02*
X165126517Y-79382933D01*
X165126517Y-79382933D02*
X165174136Y-79478171D01*
X165174136Y-79478171D02*
X165221755Y-79525790D01*
X165221755Y-79525790D02*
X165316993Y-79573409D01*
X165316993Y-79573409D02*
X165650326Y-79573409D01*
X165316993Y-76863409D02*
X165174136Y-76911028D01*
X165174136Y-76911028D02*
X165126517Y-76958647D01*
X165126517Y-76958647D02*
X165078898Y-77053885D01*
X165078898Y-77053885D02*
X165078898Y-77196742D01*
X165078898Y-77196742D02*
X165126517Y-77291980D01*
X165126517Y-77291980D02*
X165174136Y-77339600D01*
X165174136Y-77339600D02*
X165269374Y-77387219D01*
X165269374Y-77387219D02*
X165650326Y-77387219D01*
X165650326Y-77387219D02*
X165650326Y-76387219D01*
X165650326Y-76387219D02*
X165316993Y-76387219D01*
X165316993Y-76387219D02*
X165221755Y-76434838D01*
X165221755Y-76434838D02*
X165174136Y-76482457D01*
X165174136Y-76482457D02*
X165126517Y-76577695D01*
X165126517Y-76577695D02*
X165126517Y-76672933D01*
X165126517Y-76672933D02*
X165174136Y-76768171D01*
X165174136Y-76768171D02*
X165221755Y-76815790D01*
X165221755Y-76815790D02*
X165316993Y-76863409D01*
X165316993Y-76863409D02*
X165650326Y-76863409D01*
X172967945Y-79811504D02*
X172491755Y-79811504D01*
X173063183Y-80097219D02*
X172729850Y-79097219D01*
X172729850Y-79097219D02*
X172396517Y-80097219D01*
X204526993Y-79447409D02*
X204384136Y-79495028D01*
X204384136Y-79495028D02*
X204336517Y-79542647D01*
X204336517Y-79542647D02*
X204288898Y-79637885D01*
X204288898Y-79637885D02*
X204288898Y-79780742D01*
X204288898Y-79780742D02*
X204336517Y-79875980D01*
X204336517Y-79875980D02*
X204384136Y-79923600D01*
X204384136Y-79923600D02*
X204479374Y-79971219D01*
X204479374Y-79971219D02*
X204860326Y-79971219D01*
X204860326Y-79971219D02*
X204860326Y-78971219D01*
X204860326Y-78971219D02*
X204526993Y-78971219D01*
X204526993Y-78971219D02*
X204431755Y-79018838D01*
X204431755Y-79018838D02*
X204384136Y-79066457D01*
X204384136Y-79066457D02*
X204336517Y-79161695D01*
X204336517Y-79161695D02*
X204336517Y-79256933D01*
X204336517Y-79256933D02*
X204384136Y-79352171D01*
X204384136Y-79352171D02*
X204431755Y-79399790D01*
X204431755Y-79399790D02*
X204526993Y-79447409D01*
X204526993Y-79447409D02*
X204860326Y-79447409D01*
X172967945Y-77101504D02*
X172491755Y-77101504D01*
X173063183Y-77387219D02*
X172729850Y-76387219D01*
X172729850Y-76387219D02*
X172396517Y-77387219D01*
D14*
X191951700Y-115048215D02*
X191951700Y-114614882D01*
X191951700Y-114738691D02*
X191920747Y-114676786D01*
X191920747Y-114676786D02*
X191889795Y-114645834D01*
X191889795Y-114645834D02*
X191827890Y-114614882D01*
X191827890Y-114614882D02*
X191765985Y-114614882D01*
X191301700Y-115017263D02*
X191363604Y-115048215D01*
X191363604Y-115048215D02*
X191487414Y-115048215D01*
X191487414Y-115048215D02*
X191549319Y-115017263D01*
X191549319Y-115017263D02*
X191580271Y-114955358D01*
X191580271Y-114955358D02*
X191580271Y-114707739D01*
X191580271Y-114707739D02*
X191549319Y-114645834D01*
X191549319Y-114645834D02*
X191487414Y-114614882D01*
X191487414Y-114614882D02*
X191363604Y-114614882D01*
X191363604Y-114614882D02*
X191301700Y-114645834D01*
X191301700Y-114645834D02*
X191270747Y-114707739D01*
X191270747Y-114707739D02*
X191270747Y-114769643D01*
X191270747Y-114769643D02*
X191580271Y-114831548D01*
X191054080Y-114614882D02*
X190899318Y-115048215D01*
X190899318Y-115048215D02*
X190744557Y-114614882D01*
X190496938Y-115048215D02*
X190496938Y-114614882D01*
X190496938Y-114398215D02*
X190527890Y-114429167D01*
X190527890Y-114429167D02*
X190496938Y-114460120D01*
X190496938Y-114460120D02*
X190465985Y-114429167D01*
X190465985Y-114429167D02*
X190496938Y-114398215D01*
X190496938Y-114398215D02*
X190496938Y-114460120D01*
X190218366Y-115017263D02*
X190156461Y-115048215D01*
X190156461Y-115048215D02*
X190032652Y-115048215D01*
X190032652Y-115048215D02*
X189970747Y-115017263D01*
X189970747Y-115017263D02*
X189939795Y-114955358D01*
X189939795Y-114955358D02*
X189939795Y-114924405D01*
X189939795Y-114924405D02*
X189970747Y-114862501D01*
X189970747Y-114862501D02*
X190032652Y-114831548D01*
X190032652Y-114831548D02*
X190125509Y-114831548D01*
X190125509Y-114831548D02*
X190187414Y-114800596D01*
X190187414Y-114800596D02*
X190218366Y-114738691D01*
X190218366Y-114738691D02*
X190218366Y-114707739D01*
X190218366Y-114707739D02*
X190187414Y-114645834D01*
X190187414Y-114645834D02*
X190125509Y-114614882D01*
X190125509Y-114614882D02*
X190032652Y-114614882D01*
X190032652Y-114614882D02*
X189970747Y-114645834D01*
X189661224Y-115048215D02*
X189661224Y-114614882D01*
X189661224Y-114398215D02*
X189692176Y-114429167D01*
X189692176Y-114429167D02*
X189661224Y-114460120D01*
X189661224Y-114460120D02*
X189630271Y-114429167D01*
X189630271Y-114429167D02*
X189661224Y-114398215D01*
X189661224Y-114398215D02*
X189661224Y-114460120D01*
X189258842Y-115048215D02*
X189320747Y-115017263D01*
X189320747Y-115017263D02*
X189351700Y-114986310D01*
X189351700Y-114986310D02*
X189382652Y-114924405D01*
X189382652Y-114924405D02*
X189382652Y-114738691D01*
X189382652Y-114738691D02*
X189351700Y-114676786D01*
X189351700Y-114676786D02*
X189320747Y-114645834D01*
X189320747Y-114645834D02*
X189258842Y-114614882D01*
X189258842Y-114614882D02*
X189165985Y-114614882D01*
X189165985Y-114614882D02*
X189104081Y-114645834D01*
X189104081Y-114645834D02*
X189073128Y-114676786D01*
X189073128Y-114676786D02*
X189042176Y-114738691D01*
X189042176Y-114738691D02*
X189042176Y-114924405D01*
X189042176Y-114924405D02*
X189073128Y-114986310D01*
X189073128Y-114986310D02*
X189104081Y-115017263D01*
X189104081Y-115017263D02*
X189165985Y-115048215D01*
X189165985Y-115048215D02*
X189258842Y-115048215D01*
X188763605Y-114614882D02*
X188763605Y-115048215D01*
X188763605Y-114676786D02*
X188732652Y-114645834D01*
X188732652Y-114645834D02*
X188670747Y-114614882D01*
X188670747Y-114614882D02*
X188577890Y-114614882D01*
X188577890Y-114614882D02*
X188515986Y-114645834D01*
X188515986Y-114645834D02*
X188485033Y-114707739D01*
X188485033Y-114707739D02*
X188485033Y-115048215D01*
X187339795Y-115048215D02*
X187711224Y-115048215D01*
X187525510Y-115048215D02*
X187525510Y-114398215D01*
X187525510Y-114398215D02*
X187587414Y-114491072D01*
X187587414Y-114491072D02*
X187649319Y-114552977D01*
X187649319Y-114552977D02*
X187711224Y-114583929D01*
X187061224Y-114986310D02*
X187030271Y-115017263D01*
X187030271Y-115017263D02*
X187061224Y-115048215D01*
X187061224Y-115048215D02*
X187092176Y-115017263D01*
X187092176Y-115017263D02*
X187061224Y-114986310D01*
X187061224Y-114986310D02*
X187061224Y-115048215D01*
X186411223Y-115048215D02*
X186782652Y-115048215D01*
X186596938Y-115048215D02*
X186596938Y-114398215D01*
X186596938Y-114398215D02*
X186658842Y-114491072D01*
X186658842Y-114491072D02*
X186720747Y-114552977D01*
X186720747Y-114552977D02*
X186782652Y-114583929D01*
D15*
%TO.C,J3*%
X207281938Y-81390000D02*
X207281938Y-81690000D01*
X207281938Y-83310000D02*
X207281938Y-83690000D01*
X207281938Y-85310000D02*
X207281938Y-85690000D01*
X207281938Y-87310000D02*
X207281938Y-87690000D01*
X207281938Y-89310000D02*
X207281938Y-89690000D01*
X207281938Y-91310000D02*
X207281938Y-91690000D01*
X207281938Y-93310000D02*
X207281938Y-93690000D01*
X207281938Y-95310000D02*
X207281938Y-95690000D01*
X207281938Y-97310000D02*
X207281938Y-97690000D01*
X207281938Y-99310000D02*
X207281938Y-99690000D01*
X207281938Y-101310000D02*
X207281938Y-101610000D01*
X211501938Y-81390000D02*
X207281938Y-81390000D01*
X211501938Y-81390000D02*
X211501938Y-81690000D01*
X211501938Y-83310000D02*
X211501938Y-83690000D01*
X211501938Y-85310000D02*
X211501938Y-85690000D01*
X211501938Y-87310000D02*
X211501938Y-87690000D01*
X211501938Y-89310000D02*
X211501938Y-89690000D01*
X211501938Y-91310000D02*
X211501938Y-91690000D01*
X211501938Y-93310000D02*
X211501938Y-93690000D01*
X211501938Y-95310000D02*
X211501938Y-95690000D01*
X211501938Y-97310000D02*
X211501938Y-97690000D01*
X211501938Y-99310000D02*
X211501938Y-99690000D01*
X211501938Y-101310000D02*
X211501938Y-101610000D01*
X211501938Y-101610000D02*
X207281938Y-101610000D01*
%TO.C,J2*%
X166891938Y-81390000D02*
X166891938Y-81690000D01*
X166891938Y-83310000D02*
X166891938Y-83690000D01*
X166891938Y-85310000D02*
X166891938Y-85690000D01*
X166891938Y-87310000D02*
X166891938Y-87690000D01*
X166891938Y-89310000D02*
X166891938Y-89690000D01*
X166891938Y-91310000D02*
X166891938Y-91690000D01*
X166891938Y-93310000D02*
X166891938Y-93690000D01*
X166891938Y-95310000D02*
X166891938Y-95690000D01*
X166891938Y-97310000D02*
X166891938Y-97690000D01*
X166891938Y-99310000D02*
X166891938Y-99690000D01*
X166891938Y-101310000D02*
X166891938Y-101610000D01*
X171111938Y-81390000D02*
X166891938Y-81390000D01*
X171111938Y-81390000D02*
X171111938Y-81690000D01*
X171111938Y-83310000D02*
X171111938Y-83690000D01*
X171111938Y-85310000D02*
X171111938Y-85690000D01*
X171111938Y-87310000D02*
X171111938Y-87690000D01*
X171111938Y-89310000D02*
X171111938Y-89690000D01*
X171111938Y-91310000D02*
X171111938Y-91690000D01*
X171111938Y-93310000D02*
X171111938Y-93690000D01*
X171111938Y-95310000D02*
X171111938Y-95690000D01*
X171111938Y-97310000D02*
X171111938Y-97690000D01*
X171111938Y-99310000D02*
X171111938Y-99690000D01*
X171111938Y-101310000D02*
X171111938Y-101610000D01*
X171111938Y-101610000D02*
X166891938Y-101610000D01*
%TO.C,C4*%
X205622164Y-72150000D02*
X205837836Y-72150000D01*
X205622164Y-72870000D02*
X205837836Y-72870000D01*
%TO.C,R4*%
X201240000Y-73166359D02*
X201240000Y-73473641D01*
X202000000Y-73166359D02*
X202000000Y-73473641D01*
%TO.C,C1*%
X207977836Y-77250000D02*
X207762164Y-77250000D01*
X207977836Y-77970000D02*
X207762164Y-77970000D01*
%TO.C,C12*%
X177237836Y-75080000D02*
X177022164Y-75080000D01*
X177237836Y-75800000D02*
X177022164Y-75800000D01*
%TO.C,R1*%
X199200000Y-71343641D02*
X199200000Y-71036359D01*
X199960000Y-71343641D02*
X199960000Y-71036359D01*
%TO.C,C3*%
X204537836Y-77250000D02*
X204322164Y-77250000D01*
X204537836Y-77970000D02*
X204322164Y-77970000D01*
%TO.C,Q1*%
X202020000Y-69072500D02*
X201370000Y-69072500D01*
X202020000Y-69072500D02*
X202670000Y-69072500D01*
X202020000Y-72192500D02*
X201370000Y-72192500D01*
X202020000Y-72192500D02*
X202670000Y-72192500D01*
%TO.C,U10*%
X202400000Y-75062500D02*
X202400000Y-74262500D01*
X202400000Y-75062500D02*
X202400000Y-75862500D01*
X205520000Y-75062500D02*
X205520000Y-74262500D01*
X205520000Y-75062500D02*
X205520000Y-75862500D01*
%TO.C,U11*%
X205822500Y-75050000D02*
X205822500Y-74250000D01*
X205822500Y-75050000D02*
X205822500Y-75850000D01*
X208942500Y-75050000D02*
X208942500Y-74250000D01*
X208942500Y-75050000D02*
X208942500Y-75850000D01*
%TO.C,R3*%
X197380000Y-72176359D02*
X197380000Y-72483641D01*
X198140000Y-72176359D02*
X198140000Y-72483641D01*
%TO.C,JP3*%
X166380000Y-76000000D02*
X166380000Y-77950000D01*
X166380000Y-77950000D02*
X171880000Y-77950000D01*
X171880000Y-76000000D02*
X166380000Y-76000000D01*
X171880000Y-77950000D02*
X171880000Y-76000000D01*
%TO.C,Q2*%
X199177500Y-72290000D02*
X198527500Y-72290000D01*
X199177500Y-72290000D02*
X199827500Y-72290000D01*
X199177500Y-75410000D02*
X198527500Y-75410000D01*
X199177500Y-75410000D02*
X199827500Y-75410000D01*
%TO.C,JP1*%
X205550000Y-78450000D02*
X205550000Y-80400000D01*
X205550000Y-80400000D02*
X211050000Y-80400000D01*
X211050000Y-78450000D02*
X205550000Y-78450000D01*
X211050000Y-80400000D02*
X211050000Y-78450000D01*
%TO.C,JP2*%
X166380000Y-78710000D02*
X166380000Y-80660000D01*
X166380000Y-80660000D02*
X171880000Y-80660000D01*
X171880000Y-78710000D02*
X166380000Y-78710000D01*
X171880000Y-80660000D02*
X171880000Y-78710000D01*
%TO.C,C13*%
X174817836Y-75080000D02*
X174602164Y-75080000D01*
X174817836Y-75800000D02*
X174602164Y-75800000D01*
%TO.C,R2*%
X203020000Y-68996359D02*
X203020000Y-69303641D01*
X203780000Y-68996359D02*
X203780000Y-69303641D01*
%TO.C,C2*%
X207697836Y-72150000D02*
X207482164Y-72150000D01*
X207697836Y-72870000D02*
X207482164Y-72870000D01*
%TD*%
M02*
