%TF.GenerationSoftware,KiCad,Pcbnew,9.0.4*%
%TF.CreationDate,2025-09-15T11:20:57+02:00*%
%TF.ProjectId,gaia-primary,67616961-2d70-4726-996d-6172792e6b69,1.0*%
%TF.SameCoordinates,Original*%
%TF.FileFunction,Copper,L5,Inr*%
%TF.FilePolarity,Positive*%
%FSLAX46Y46*%
G04 Gerber Fmt 4.6, Leading zero omitted, Abs format (unit mm)*
G04 Created by KiCad (PCBNEW 9.0.4) date 2025-09-15 11:20:57*
%MOMM*%
%LPD*%
G01*
G04 APERTURE LIST*
%TA.AperFunction,ComponentPad*%
%ADD10R,2.580000X1.000000*%
%TD*%
%TA.AperFunction,ComponentPad*%
%ADD11C,0.800000*%
%TD*%
%TA.AperFunction,ComponentPad*%
%ADD12C,1.700000*%
%TD*%
%TA.AperFunction,ViaPad*%
%ADD13C,0.600000*%
%TD*%
%TA.AperFunction,ViaPad*%
%ADD14C,0.550000*%
%TD*%
%TA.AperFunction,ViaPad*%
%ADD15C,0.800000*%
%TD*%
%TA.AperFunction,ViaPad*%
%ADD16C,0.500000*%
%TD*%
%TA.AperFunction,ViaPad*%
%ADD17C,0.540000*%
%TD*%
G04 APERTURE END LIST*
D10*
%TO.N,GND*%
%TO.C,J2*%
X171086938Y-100500000D03*
X166916938Y-100500000D03*
X171086938Y-98500000D03*
X166916938Y-98500000D03*
%TO.N,unconnected-(J2-Pin_16-Pad16)*%
X171086938Y-96500000D03*
%TO.N,unconnected-(J2-Pin_15-Pad15)*%
X166916938Y-96500000D03*
%TO.N,unconnected-(J2-Pin_14-Pad14)*%
X171086938Y-94500000D03*
%TO.N,unconnected-(J2-Pin_13-Pad13)*%
X166916938Y-94500000D03*
%TO.N,unconnected-(J2-Pin_12-Pad12)*%
X171086938Y-92500000D03*
%TO.N,unconnected-(J2-Pin_11-Pad11)*%
X166916938Y-92500000D03*
%TO.N,unconnected-(J2-Pin_10-Pad10)*%
X171086938Y-90500000D03*
%TO.N,GND*%
X166916938Y-90500000D03*
%TO.N,unconnected-(J2-Pin_8-Pad8)*%
X171086938Y-88500000D03*
%TO.N,GND*%
X166916938Y-88500000D03*
%TO.N,unconnected-(J2-Pin_6-Pad6)*%
X171086938Y-86500000D03*
%TO.N,unconnected-(J2-Pin_5-Pad5)*%
X166916938Y-86500000D03*
%TO.N,I2C_1_SCL*%
X171086938Y-84500000D03*
%TO.N,I2C_2_SCL*%
X166916938Y-84500000D03*
%TO.N,I2C_1_SDA*%
X171086938Y-82500000D03*
%TO.N,I2C_2_SDA*%
X166916938Y-82500000D03*
%TD*%
%TO.N,/VOUT_A1*%
%TO.C,J3*%
X207306938Y-82500000D03*
X211476938Y-82500000D03*
%TO.N,unconnected-(J3-Pin_3-Pad3)*%
X207306938Y-84500000D03*
%TO.N,unconnected-(J3-Pin_4-Pad4)*%
X211476938Y-84500000D03*
%TO.N,unconnected-(J3-Pin_5-Pad5)*%
X207306938Y-86500000D03*
%TO.N,unconnected-(J3-Pin_6-Pad6)*%
X211476938Y-86500000D03*
%TO.N,/VOUT_B1*%
X207306938Y-88500000D03*
X211476938Y-88500000D03*
%TO.N,unconnected-(J3-Pin_9-Pad9)*%
X207306938Y-90500000D03*
%TO.N,unconnected-(J3-Pin_10-Pad10)*%
X211476938Y-90500000D03*
%TO.N,unconnected-(J3-Pin_11-Pad11)*%
X207306938Y-92500000D03*
%TO.N,unconnected-(J3-Pin_12-Pad12)*%
X211476938Y-92500000D03*
%TO.N,GND*%
X207306938Y-94500000D03*
X211476938Y-94500000D03*
X207306938Y-96500000D03*
X211476938Y-96500000D03*
%TO.N,unconnected-(J3-Pin_17-Pad17)*%
X207306938Y-98500000D03*
%TO.N,unconnected-(J3-Pin_18-Pad18)*%
X211476938Y-98500000D03*
%TO.N,unconnected-(J3-Pin_19-Pad19)*%
X207306938Y-100500000D03*
%TO.N,unconnected-(J3-Pin_20-Pad20)*%
X211476938Y-100500000D03*
%TD*%
D11*
%TO.N,Net-(U5-FORCE+)*%
%TO.C,TH3*%
X177520000Y-115450000D03*
%TO.N,Net-(U5-FORCE-)*%
X178520000Y-115450000D03*
%TD*%
%TO.N,Net-(U7-FORCE+)*%
%TO.C,TH4*%
X199770000Y-115450000D03*
%TO.N,Net-(U7-FORCE-)*%
X200770000Y-115450000D03*
%TD*%
D12*
%TO.N,+3.3V*%
%TO.C,J1*%
X181576938Y-107770000D03*
%TO.N,/DEBUG_SWD_CLK*%
X184116938Y-107770000D03*
%TO.N,/DEBUG_SWD_IO*%
X186656938Y-107770000D03*
%TO.N,/DEBUG_USART_RX*%
X189196938Y-107770000D03*
%TO.N,/DEBUG_USART_TX*%
X191736938Y-107770000D03*
%TO.N,/DEBUG_NRST*%
X194276938Y-107770000D03*
%TO.N,GND*%
X196816938Y-107770000D03*
%TD*%
D13*
%TO.N,GND*%
X174846667Y-107420000D03*
D14*
X195170000Y-71510000D03*
D15*
X201080000Y-78820000D03*
D13*
X175593333Y-106740000D03*
X175146068Y-71042030D03*
X174120000Y-106740000D03*
D15*
X165370000Y-78410000D03*
D13*
X174120000Y-107420000D03*
X174846667Y-108870000D03*
D15*
X212840000Y-79910000D03*
D16*
X184580000Y-114197500D03*
D15*
X180420000Y-112610000D03*
D13*
X176300000Y-108130000D03*
X205373333Y-108870000D03*
D15*
X203170000Y-97400000D03*
X212160000Y-103170000D03*
D14*
X195100000Y-115240000D03*
D17*
X185460000Y-68970000D03*
D13*
X178780000Y-74260000D03*
D16*
X193300000Y-114197500D03*
D15*
X181480000Y-78710000D03*
D13*
X204626667Y-106740000D03*
D14*
X207390000Y-77610000D03*
X188220000Y-74000000D03*
D13*
X204626667Y-108870000D03*
D14*
X174660000Y-103290000D03*
D15*
X170760000Y-103860000D03*
D14*
X190620000Y-73982500D03*
D13*
X176300000Y-108870000D03*
D15*
X190400000Y-112290000D03*
D14*
X182980000Y-70280000D03*
D13*
X205373333Y-107420000D03*
D15*
X190190000Y-69090000D03*
X211700000Y-106530000D03*
D14*
X173730000Y-103290000D03*
D15*
X167810000Y-108470000D03*
D14*
X172650000Y-77540000D03*
D16*
X183780000Y-111822500D03*
D14*
X174200000Y-68770000D03*
D15*
X201340000Y-76620000D03*
D13*
X174120000Y-108130000D03*
D15*
X180030000Y-67850000D03*
D13*
X205373333Y-106740000D03*
D15*
X180410000Y-71410000D03*
D14*
X175200000Y-75420000D03*
D13*
X204626667Y-108130000D03*
D15*
X175790000Y-84480000D03*
D14*
X198170000Y-75730000D03*
D13*
X203900000Y-108130000D03*
X206080000Y-106740000D03*
X175593333Y-108130000D03*
D15*
X175290000Y-97240000D03*
X167250000Y-74800000D03*
X175730000Y-80860000D03*
D14*
X203950000Y-77610000D03*
D16*
X192500000Y-111822500D03*
D15*
X197630000Y-114930000D03*
D13*
X174846667Y-106740000D03*
X203900000Y-108870000D03*
D14*
X186370000Y-115240000D03*
D15*
X178970000Y-105850000D03*
D14*
X190580000Y-75520000D03*
D15*
X181930000Y-115010000D03*
D13*
X206080000Y-108870000D03*
D17*
X172160000Y-75980000D03*
D15*
X189610000Y-115110000D03*
X203980000Y-115170000D03*
X200150000Y-112290000D03*
D13*
X175593333Y-107420000D03*
X176300000Y-106740000D03*
X203900000Y-106740000D03*
D15*
X197520000Y-69090000D03*
D13*
X202880000Y-71470000D03*
D15*
X172300000Y-112670000D03*
D14*
X189820000Y-73982500D03*
X203513984Y-103290000D03*
D15*
X177610000Y-71930000D03*
D13*
X206080000Y-108130000D03*
D15*
X203700000Y-79320000D03*
D13*
X206080000Y-107420000D03*
D15*
X177730000Y-111490000D03*
D13*
X174120000Y-108870000D03*
D14*
X176650000Y-75440000D03*
X188270000Y-75480000D03*
D15*
X175790000Y-73860000D03*
D13*
X200210000Y-73810000D03*
X203900000Y-107420000D03*
D14*
X188220000Y-71787500D03*
D15*
X177080000Y-103990000D03*
D13*
X205373333Y-108130000D03*
X174846667Y-108130000D03*
D15*
X207110000Y-71710000D03*
D14*
X204440000Y-103290000D03*
D15*
X165740000Y-102680000D03*
D14*
X194270000Y-73370000D03*
D13*
X175593333Y-108870000D03*
D15*
X210900000Y-77120000D03*
X166970000Y-105710000D03*
D13*
X208837623Y-74969463D03*
D15*
X185570000Y-67630000D03*
D14*
X179150000Y-80480000D03*
D13*
X204626667Y-107420000D03*
X176300000Y-107420000D03*
D15*
X198020000Y-105030000D03*
D14*
%TO.N,Net-(C12-Pad1)*%
X177270000Y-80540000D03*
D13*
%TO.N,Net-(U4-PD0)*%
X175860000Y-76499998D03*
%TO.N,+1V8*%
X201620000Y-72220000D03*
X194060000Y-71980000D03*
%TO.N,/DEBUG_USART_TX*%
X178060000Y-68430000D03*
%TO.N,/DEBUG_SWD_IO*%
X176070000Y-71110000D03*
%TO.N,/DEBUG_NRST*%
X173581000Y-78780000D03*
%TO.N,/DEBUG_SWD_CLK*%
X172350000Y-71160000D03*
%TO.N,/DEBUG_USART_RX*%
X179219972Y-72390028D03*
%TO.N,/GLOBAL_SCL*%
X172280000Y-73300000D03*
X169130000Y-79660000D03*
X169140000Y-74290000D03*
%TO.N,/GLOBAL_SDA*%
X172260000Y-74120000D03*
D14*
%TO.N,+3.3V*%
X204420000Y-104260000D03*
D17*
X196920000Y-112700000D03*
D14*
X173730000Y-104250000D03*
X191540000Y-75520000D03*
X178220000Y-80540000D03*
X203520000Y-104260000D03*
D15*
X210280000Y-74560000D03*
D14*
X187310000Y-75460000D03*
X179150000Y-79520000D03*
D17*
X188170000Y-112700000D03*
D13*
X186660000Y-73982500D03*
D15*
X197770000Y-70800000D03*
D17*
X203400000Y-68640000D03*
D14*
X174660000Y-104250000D03*
D17*
X187380000Y-69420000D03*
D14*
X174200000Y-69730000D03*
X182020000Y-70280000D03*
X173605000Y-77540000D03*
D13*
%TO.N,/READY2*%
X203755000Y-86370000D03*
X192590000Y-76845000D03*
%TO.N,/SPI1_CS1*%
X170975380Y-70415380D03*
X180840000Y-76660000D03*
X170970000Y-107850000D03*
X178548106Y-107845000D03*
%TO.N,/SPI1_SCK*%
X185776745Y-75884130D03*
X205530000Y-113570000D03*
X179040000Y-108530000D03*
X208645000Y-108495000D03*
%TO.N,/READY1*%
X170890000Y-72470000D03*
X177720000Y-73470000D03*
%TO.N,/SPI1_CS2*%
X184450737Y-76285000D03*
X203551942Y-81048058D03*
X204614939Y-99428945D03*
X208140000Y-107820000D03*
%TO.N,/SPI1_MOSI*%
X197000707Y-110196707D03*
X210050000Y-103820000D03*
%TO.N,/SPI1_MISO*%
X181870000Y-109571000D03*
X209425000Y-107170000D03*
X185246606Y-75285000D03*
%TO.N,/LOCAL_SCL*%
X195960000Y-111080000D03*
X184650000Y-72940000D03*
X202957500Y-70632500D03*
X187190000Y-111080000D03*
D17*
%TO.N,/LOCAL_SDA*%
X187380000Y-70440000D03*
D13*
X198030000Y-111770000D03*
%TO.N,/SCL_1V8*%
X201062525Y-69702475D03*
%TO.N,/SDA_1V8*%
X200115000Y-74800000D03*
%TD*%
%TA.AperFunction,Conductor*%
%TO.N,GND*%
G36*
X203782996Y-67018682D02*
G01*
X204461859Y-67433390D01*
X204465400Y-67435635D01*
X205267851Y-67963955D01*
X205271287Y-67966302D01*
X205905362Y-68415253D01*
X206055359Y-68521457D01*
X206058734Y-68523934D01*
X206691554Y-69004969D01*
X206823567Y-69105318D01*
X206826865Y-69107914D01*
X207560691Y-69705982D01*
X207571575Y-69714852D01*
X207574778Y-69717554D01*
X208288102Y-70340264D01*
X208298511Y-70349351D01*
X208301624Y-70352162D01*
X208775034Y-70794552D01*
X209003575Y-71008118D01*
X209006593Y-71011036D01*
X209685905Y-71690346D01*
X209688823Y-71693364D01*
X210272731Y-72318213D01*
X210344778Y-72395311D01*
X210347592Y-72398427D01*
X210979386Y-73122152D01*
X210982093Y-73125361D01*
X211409183Y-73649394D01*
X211581264Y-73860536D01*
X211589021Y-73870053D01*
X211591612Y-73873343D01*
X211614656Y-73903658D01*
X212173008Y-74638189D01*
X212175492Y-74641574D01*
X212730662Y-75425660D01*
X212733029Y-75429127D01*
X213261315Y-76231524D01*
X213263564Y-76235069D01*
X213568048Y-76733495D01*
X213649578Y-76866956D01*
X213678255Y-76913898D01*
X213696438Y-76978541D01*
X213696438Y-106021416D01*
X213678255Y-106086059D01*
X213263546Y-106764918D01*
X213261297Y-106768463D01*
X212733010Y-107570860D01*
X212730643Y-107574327D01*
X212175474Y-108358413D01*
X212172990Y-108361798D01*
X211591600Y-109126636D01*
X211589003Y-109129934D01*
X210982076Y-109874627D01*
X210979369Y-109877836D01*
X210347576Y-110601562D01*
X210344762Y-110604678D01*
X209688809Y-111306626D01*
X209685891Y-111309644D01*
X209006581Y-111988955D01*
X209003563Y-111991873D01*
X208301616Y-112647828D01*
X208298500Y-112650642D01*
X207574788Y-113282424D01*
X207571580Y-113285131D01*
X206826860Y-113892083D01*
X206823561Y-113894680D01*
X206252187Y-114329010D01*
X206186904Y-114353909D01*
X206118524Y-114339560D01*
X206068756Y-114290520D01*
X206053401Y-114222358D01*
X206077335Y-114156716D01*
X206089459Y-114142618D01*
X206151789Y-114080289D01*
X206239394Y-113949179D01*
X206299737Y-113803497D01*
X206330500Y-113648842D01*
X206330500Y-113491158D01*
X206330500Y-113491155D01*
X206330499Y-113491153D01*
X206308948Y-113382809D01*
X206299737Y-113336503D01*
X206277337Y-113282424D01*
X206239397Y-113190827D01*
X206239390Y-113190814D01*
X206151789Y-113059711D01*
X206151786Y-113059707D01*
X206040292Y-112948213D01*
X206040288Y-112948210D01*
X205909185Y-112860609D01*
X205909172Y-112860602D01*
X205763501Y-112800264D01*
X205763489Y-112800261D01*
X205608845Y-112769500D01*
X205608842Y-112769500D01*
X205451158Y-112769500D01*
X205451155Y-112769500D01*
X205296510Y-112800261D01*
X205296498Y-112800264D01*
X205150827Y-112860602D01*
X205150814Y-112860609D01*
X205019711Y-112948210D01*
X205019707Y-112948213D01*
X204908213Y-113059707D01*
X204908210Y-113059711D01*
X204820609Y-113190814D01*
X204820602Y-113190827D01*
X204760264Y-113336498D01*
X204760261Y-113336510D01*
X204729500Y-113491153D01*
X204729500Y-113648846D01*
X204760261Y-113803489D01*
X204760264Y-113803501D01*
X204820602Y-113949172D01*
X204820609Y-113949185D01*
X204908210Y-114080288D01*
X204908213Y-114080292D01*
X205019707Y-114191786D01*
X205019711Y-114191789D01*
X205150814Y-114279390D01*
X205150827Y-114279397D01*
X205296076Y-114339560D01*
X205296503Y-114339737D01*
X205451153Y-114370499D01*
X205451156Y-114370500D01*
X205451158Y-114370500D01*
X205608844Y-114370500D01*
X205608845Y-114370499D01*
X205763497Y-114339737D01*
X205819120Y-114316697D01*
X205914808Y-114277063D01*
X205915274Y-114278189D01*
X205977378Y-114265253D01*
X206042624Y-114290246D01*
X206084000Y-114346547D01*
X206088370Y-114416280D01*
X206054345Y-114477305D01*
X206039096Y-114490055D01*
X205271268Y-115033715D01*
X205267801Y-115036082D01*
X204465406Y-115564369D01*
X204461861Y-115566618D01*
X204033915Y-115828048D01*
X203785482Y-115979815D01*
X203783023Y-115981317D01*
X203718380Y-115999500D01*
X201702663Y-115999500D01*
X201635624Y-115979815D01*
X201589869Y-115927011D01*
X201579925Y-115857853D01*
X201588102Y-115828048D01*
X201603305Y-115791341D01*
X201635894Y-115712666D01*
X201670500Y-115538691D01*
X201670500Y-115361309D01*
X201670500Y-115361306D01*
X201670499Y-115361304D01*
X201635896Y-115187341D01*
X201635893Y-115187332D01*
X201568016Y-115023459D01*
X201568009Y-115023446D01*
X201469464Y-114875965D01*
X201469461Y-114875961D01*
X201344038Y-114750538D01*
X201344034Y-114750535D01*
X201196553Y-114651990D01*
X201196540Y-114651983D01*
X201032667Y-114584106D01*
X201032658Y-114584103D01*
X200858694Y-114549500D01*
X200858691Y-114549500D01*
X200681309Y-114549500D01*
X200681306Y-114549500D01*
X200507341Y-114584103D01*
X200507332Y-114584106D01*
X200343459Y-114651983D01*
X200343446Y-114651990D01*
X200338887Y-114655037D01*
X200272208Y-114675912D01*
X200204829Y-114657425D01*
X200201113Y-114655037D01*
X200196553Y-114651990D01*
X200196540Y-114651983D01*
X200032667Y-114584106D01*
X200032658Y-114584103D01*
X199858694Y-114549500D01*
X199858691Y-114549500D01*
X199681309Y-114549500D01*
X199681306Y-114549500D01*
X199507341Y-114584103D01*
X199507332Y-114584106D01*
X199343459Y-114651983D01*
X199343446Y-114651990D01*
X199195965Y-114750535D01*
X199195961Y-114750538D01*
X199070538Y-114875961D01*
X199070535Y-114875965D01*
X198971990Y-115023446D01*
X198971983Y-115023459D01*
X198904106Y-115187332D01*
X198904103Y-115187341D01*
X198869500Y-115361304D01*
X198869500Y-115538695D01*
X198904103Y-115712658D01*
X198904106Y-115712667D01*
X198951898Y-115828048D01*
X198959367Y-115897517D01*
X198928091Y-115959996D01*
X198868002Y-115995648D01*
X198837337Y-115999500D01*
X179452663Y-115999500D01*
X179385624Y-115979815D01*
X179339869Y-115927011D01*
X179329925Y-115857853D01*
X179338102Y-115828048D01*
X179353305Y-115791341D01*
X179385894Y-115712666D01*
X179420500Y-115538691D01*
X179420500Y-115361309D01*
X179420500Y-115361306D01*
X179420499Y-115361304D01*
X179385896Y-115187341D01*
X179385893Y-115187332D01*
X179318016Y-115023459D01*
X179318009Y-115023446D01*
X179219464Y-114875965D01*
X179219461Y-114875961D01*
X179094038Y-114750538D01*
X179094034Y-114750535D01*
X178946553Y-114651990D01*
X178946540Y-114651983D01*
X178782667Y-114584106D01*
X178782658Y-114584103D01*
X178608694Y-114549500D01*
X178608691Y-114549500D01*
X178431309Y-114549500D01*
X178431306Y-114549500D01*
X178257341Y-114584103D01*
X178257332Y-114584106D01*
X178093459Y-114651983D01*
X178093446Y-114651990D01*
X178088887Y-114655037D01*
X178022208Y-114675912D01*
X177954829Y-114657425D01*
X177951113Y-114655037D01*
X177946553Y-114651990D01*
X177946540Y-114651983D01*
X177782667Y-114584106D01*
X177782658Y-114584103D01*
X177608694Y-114549500D01*
X177608691Y-114549500D01*
X177431309Y-114549500D01*
X177431306Y-114549500D01*
X177257341Y-114584103D01*
X177257332Y-114584106D01*
X177093459Y-114651983D01*
X177093446Y-114651990D01*
X176945965Y-114750535D01*
X176945961Y-114750538D01*
X176820538Y-114875961D01*
X176820535Y-114875965D01*
X176721990Y-115023446D01*
X176721983Y-115023459D01*
X176654106Y-115187332D01*
X176654103Y-115187341D01*
X176619500Y-115361304D01*
X176619500Y-115538695D01*
X176654103Y-115712658D01*
X176654106Y-115712667D01*
X176701898Y-115828048D01*
X176709367Y-115897517D01*
X176678091Y-115959996D01*
X176618002Y-115995648D01*
X176587337Y-115999500D01*
X174675521Y-115999500D01*
X174610878Y-115981317D01*
X173932036Y-115566621D01*
X173928491Y-115564373D01*
X173126053Y-115036062D01*
X173122586Y-115033694D01*
X172338504Y-114478530D01*
X172335120Y-114476046D01*
X171570310Y-113894679D01*
X171567011Y-113892082D01*
X170822303Y-113285145D01*
X170819094Y-113282438D01*
X170569981Y-113064969D01*
X170095365Y-112650642D01*
X170092252Y-112647831D01*
X170066864Y-112624107D01*
X187399500Y-112624107D01*
X187399500Y-112775892D01*
X187429108Y-112924739D01*
X187429110Y-112924747D01*
X187487190Y-113064967D01*
X187571513Y-113191165D01*
X187678834Y-113298486D01*
X187805032Y-113382809D01*
X187875142Y-113411849D01*
X187945253Y-113440890D01*
X188094107Y-113470499D01*
X188094110Y-113470500D01*
X188094112Y-113470500D01*
X188245890Y-113470500D01*
X188245891Y-113470499D01*
X188394747Y-113440890D01*
X188534969Y-113382808D01*
X188661165Y-113298486D01*
X188768486Y-113191165D01*
X188852808Y-113064969D01*
X188910890Y-112924747D01*
X188940500Y-112775888D01*
X188940500Y-112624112D01*
X188940500Y-112624109D01*
X188940499Y-112624107D01*
X196149500Y-112624107D01*
X196149500Y-112775892D01*
X196179108Y-112924739D01*
X196179110Y-112924747D01*
X196237190Y-113064967D01*
X196321513Y-113191165D01*
X196428834Y-113298486D01*
X196555032Y-113382809D01*
X196625142Y-113411849D01*
X196695253Y-113440890D01*
X196844107Y-113470499D01*
X196844110Y-113470500D01*
X196844112Y-113470500D01*
X196995890Y-113470500D01*
X196995891Y-113470499D01*
X197144747Y-113440890D01*
X197284969Y-113382808D01*
X197411165Y-113298486D01*
X197518486Y-113191165D01*
X197602808Y-113064969D01*
X197660890Y-112924747D01*
X197690500Y-112775888D01*
X197690500Y-112669746D01*
X197710185Y-112602707D01*
X197762989Y-112556952D01*
X197832147Y-112547008D01*
X197838692Y-112548129D01*
X197951155Y-112570500D01*
X197951158Y-112570500D01*
X198108844Y-112570500D01*
X198108845Y-112570499D01*
X198263497Y-112539737D01*
X198409179Y-112479394D01*
X198540289Y-112391789D01*
X198651789Y-112280289D01*
X198739394Y-112149179D01*
X198799737Y-112003497D01*
X198830500Y-111848842D01*
X198830500Y-111691158D01*
X198830500Y-111691155D01*
X198830499Y-111691153D01*
X198799737Y-111536503D01*
X198767706Y-111459172D01*
X198739397Y-111390827D01*
X198739390Y-111390814D01*
X198651789Y-111259711D01*
X198651786Y-111259707D01*
X198540292Y-111148213D01*
X198540288Y-111148210D01*
X198409185Y-111060609D01*
X198409172Y-111060602D01*
X198263501Y-111000264D01*
X198263489Y-111000261D01*
X198108845Y-110969500D01*
X198108842Y-110969500D01*
X197951158Y-110969500D01*
X197951155Y-110969500D01*
X197796510Y-111000261D01*
X197796498Y-111000264D01*
X197650827Y-111060602D01*
X197650814Y-111060609D01*
X197519711Y-111148210D01*
X197519707Y-111148213D01*
X197408213Y-111259707D01*
X197408210Y-111259711D01*
X197320609Y-111390814D01*
X197320602Y-111390827D01*
X197260264Y-111536498D01*
X197260261Y-111536510D01*
X197229500Y-111691153D01*
X197229500Y-111824873D01*
X197209815Y-111891912D01*
X197157011Y-111937667D01*
X197087853Y-111947611D01*
X197081310Y-111946491D01*
X196995888Y-111929500D01*
X196844112Y-111929500D01*
X196844109Y-111929500D01*
X196695260Y-111959108D01*
X196695252Y-111959110D01*
X196555032Y-112017190D01*
X196428834Y-112101513D01*
X196321513Y-112208834D01*
X196237190Y-112335032D01*
X196179110Y-112475252D01*
X196179108Y-112475260D01*
X196149500Y-112624107D01*
X188940499Y-112624107D01*
X188923717Y-112539738D01*
X188910890Y-112475253D01*
X188864384Y-112362977D01*
X188852809Y-112335032D01*
X188768486Y-112208834D01*
X188661165Y-112101513D01*
X188534967Y-112017190D01*
X188394747Y-111959110D01*
X188394739Y-111959108D01*
X188245891Y-111929500D01*
X188245888Y-111929500D01*
X188094112Y-111929500D01*
X188094109Y-111929500D01*
X187945260Y-111959108D01*
X187945252Y-111959110D01*
X187805032Y-112017190D01*
X187678834Y-112101513D01*
X187571513Y-112208834D01*
X187487190Y-112335032D01*
X187429110Y-112475252D01*
X187429108Y-112475260D01*
X187399500Y-112624107D01*
X170066864Y-112624107D01*
X169390303Y-111991878D01*
X169387285Y-111988960D01*
X168707974Y-111309650D01*
X168705056Y-111306632D01*
X168566951Y-111158844D01*
X168419592Y-111001153D01*
X186389500Y-111001153D01*
X186389500Y-111158846D01*
X186420261Y-111313489D01*
X186420264Y-111313501D01*
X186480602Y-111459172D01*
X186480609Y-111459185D01*
X186568210Y-111590288D01*
X186568213Y-111590292D01*
X186679707Y-111701786D01*
X186679711Y-111701789D01*
X186810814Y-111789390D01*
X186810827Y-111789397D01*
X186954342Y-111848842D01*
X186956503Y-111849737D01*
X187111153Y-111880499D01*
X187111156Y-111880500D01*
X187111158Y-111880500D01*
X187268844Y-111880500D01*
X187268845Y-111880499D01*
X187423497Y-111849737D01*
X187569179Y-111789394D01*
X187700289Y-111701789D01*
X187811789Y-111590289D01*
X187899394Y-111459179D01*
X187959737Y-111313497D01*
X187990500Y-111158842D01*
X187990500Y-111001158D01*
X187990500Y-111001155D01*
X187990499Y-111001153D01*
X195159500Y-111001153D01*
X195159500Y-111158846D01*
X195190261Y-111313489D01*
X195190264Y-111313501D01*
X195250602Y-111459172D01*
X195250609Y-111459185D01*
X195338210Y-111590288D01*
X195338213Y-111590292D01*
X195449707Y-111701786D01*
X195449711Y-111701789D01*
X195580814Y-111789390D01*
X195580827Y-111789397D01*
X195724342Y-111848842D01*
X195726503Y-111849737D01*
X195881153Y-111880499D01*
X195881156Y-111880500D01*
X195881158Y-111880500D01*
X196038844Y-111880500D01*
X196038845Y-111880499D01*
X196193497Y-111849737D01*
X196339179Y-111789394D01*
X196470289Y-111701789D01*
X196581789Y-111590289D01*
X196669394Y-111459179D01*
X196729737Y-111313497D01*
X196760500Y-111158842D01*
X196760500Y-111116204D01*
X196780185Y-111049165D01*
X196832989Y-111003410D01*
X196902147Y-110993466D01*
X196908693Y-110994587D01*
X196921864Y-110997207D01*
X196921865Y-110997207D01*
X197079551Y-110997207D01*
X197079552Y-110997206D01*
X197234204Y-110966444D01*
X197379886Y-110906101D01*
X197510996Y-110818496D01*
X197622496Y-110706996D01*
X197710101Y-110575886D01*
X197770444Y-110430204D01*
X197801207Y-110275549D01*
X197801207Y-110117865D01*
X197801207Y-110117862D01*
X197801206Y-110117860D01*
X197793932Y-110081292D01*
X197770444Y-109963210D01*
X197765049Y-109950185D01*
X197710104Y-109817534D01*
X197710097Y-109817521D01*
X197622496Y-109686418D01*
X197622493Y-109686414D01*
X197510999Y-109574920D01*
X197510995Y-109574917D01*
X197379892Y-109487316D01*
X197379879Y-109487309D01*
X197234208Y-109426971D01*
X197234196Y-109426968D01*
X197079552Y-109396207D01*
X197079549Y-109396207D01*
X196921865Y-109396207D01*
X196921862Y-109396207D01*
X196767217Y-109426968D01*
X196767205Y-109426971D01*
X196621534Y-109487309D01*
X196621521Y-109487316D01*
X196490418Y-109574917D01*
X196490414Y-109574920D01*
X196378920Y-109686414D01*
X196378917Y-109686418D01*
X196291316Y-109817521D01*
X196291309Y-109817534D01*
X196230971Y-109963205D01*
X196230968Y-109963217D01*
X196200207Y-110117860D01*
X196200207Y-110160502D01*
X196180522Y-110227541D01*
X196127718Y-110273296D01*
X196058560Y-110283240D01*
X196052021Y-110282120D01*
X196038848Y-110279500D01*
X196038842Y-110279500D01*
X195881158Y-110279500D01*
X195881155Y-110279500D01*
X195726510Y-110310261D01*
X195726498Y-110310264D01*
X195580827Y-110370602D01*
X195580814Y-110370609D01*
X195449711Y-110458210D01*
X195449707Y-110458213D01*
X195338213Y-110569707D01*
X195338210Y-110569711D01*
X195250609Y-110700814D01*
X195250602Y-110700827D01*
X195190264Y-110846498D01*
X195190261Y-110846510D01*
X195159500Y-111001153D01*
X187990499Y-111001153D01*
X187983595Y-110966444D01*
X187959737Y-110846503D01*
X187901952Y-110706996D01*
X187899397Y-110700827D01*
X187899390Y-110700814D01*
X187811789Y-110569711D01*
X187811786Y-110569707D01*
X187700292Y-110458213D01*
X187700288Y-110458210D01*
X187569185Y-110370609D01*
X187569172Y-110370602D01*
X187423501Y-110310264D01*
X187423489Y-110310261D01*
X187268845Y-110279500D01*
X187268842Y-110279500D01*
X187111158Y-110279500D01*
X187111155Y-110279500D01*
X186956510Y-110310261D01*
X186956498Y-110310264D01*
X186810827Y-110370602D01*
X186810814Y-110370609D01*
X186679711Y-110458210D01*
X186679707Y-110458213D01*
X186568213Y-110569707D01*
X186568210Y-110569711D01*
X186480609Y-110700814D01*
X186480602Y-110700827D01*
X186420264Y-110846498D01*
X186420261Y-110846510D01*
X186389500Y-111001153D01*
X168419592Y-111001153D01*
X168049096Y-110604678D01*
X168046288Y-110601569D01*
X167414494Y-109877843D01*
X167411787Y-109874634D01*
X166939789Y-109295499D01*
X166804847Y-109129926D01*
X166802262Y-109126643D01*
X166220873Y-108361805D01*
X166218389Y-108358421D01*
X165943722Y-107970499D01*
X165802576Y-107771153D01*
X170169500Y-107771153D01*
X170169500Y-107928846D01*
X170200261Y-108083489D01*
X170200264Y-108083501D01*
X170260602Y-108229172D01*
X170260609Y-108229185D01*
X170348210Y-108360288D01*
X170348213Y-108360292D01*
X170459707Y-108471786D01*
X170459711Y-108471789D01*
X170590814Y-108559390D01*
X170590827Y-108559397D01*
X170736498Y-108619735D01*
X170736503Y-108619737D01*
X170870375Y-108646366D01*
X170891153Y-108650499D01*
X170891156Y-108650500D01*
X170891158Y-108650500D01*
X171048844Y-108650500D01*
X171048845Y-108650499D01*
X171203497Y-108619737D01*
X171349179Y-108559394D01*
X171480289Y-108471789D01*
X171591789Y-108360289D01*
X171679394Y-108229179D01*
X171739737Y-108083497D01*
X171770500Y-107928842D01*
X171770500Y-107771158D01*
X171770500Y-107771154D01*
X171769505Y-107766153D01*
X177747606Y-107766153D01*
X177747606Y-107923846D01*
X177778367Y-108078489D01*
X177778370Y-108078501D01*
X177838708Y-108224172D01*
X177838715Y-108224185D01*
X177926316Y-108355288D01*
X177926319Y-108355292D01*
X178037813Y-108466786D01*
X178037817Y-108466789D01*
X178168921Y-108554391D01*
X178168924Y-108554392D01*
X178168927Y-108554394D01*
X178172794Y-108555995D01*
X178227198Y-108599832D01*
X178246963Y-108646366D01*
X178270261Y-108763491D01*
X178270264Y-108763501D01*
X178330602Y-108909172D01*
X178330609Y-108909185D01*
X178418210Y-109040288D01*
X178418213Y-109040292D01*
X178529707Y-109151786D01*
X178529711Y-109151789D01*
X178660814Y-109239390D01*
X178660827Y-109239397D01*
X178722007Y-109264738D01*
X178806503Y-109299737D01*
X178961153Y-109330499D01*
X178961156Y-109330500D01*
X178961158Y-109330500D01*
X179118844Y-109330500D01*
X179118845Y-109330499D01*
X179273497Y-109299737D01*
X179419179Y-109239394D01*
X179550289Y-109151789D01*
X179661789Y-109040289D01*
X179749394Y-108909179D01*
X179809737Y-108763497D01*
X179840500Y-108608842D01*
X179840500Y-108451158D01*
X179840500Y-108451155D01*
X179840499Y-108451153D01*
X179835098Y-108423999D01*
X179809737Y-108296503D01*
X179809735Y-108296498D01*
X179749397Y-108150827D01*
X179749390Y-108150814D01*
X179661789Y-108019711D01*
X179661786Y-108019707D01*
X179550292Y-107908213D01*
X179550284Y-107908207D01*
X179419181Y-107820607D01*
X179419175Y-107820604D01*
X179415301Y-107818999D01*
X179409121Y-107814018D01*
X179401399Y-107812194D01*
X179382308Y-107792409D01*
X179360899Y-107775155D01*
X179357157Y-107766343D01*
X179352883Y-107761914D01*
X179341142Y-107728631D01*
X179332072Y-107683032D01*
X179328229Y-107663713D01*
X180226438Y-107663713D01*
X180226438Y-107876287D01*
X180226930Y-107879394D01*
X180259673Y-108086127D01*
X180259692Y-108086243D01*
X180304512Y-108224185D01*
X180325382Y-108288414D01*
X180421889Y-108477820D01*
X180546828Y-108649786D01*
X180697151Y-108800109D01*
X180869117Y-108925048D01*
X180869119Y-108925049D01*
X180869122Y-108925051D01*
X180916539Y-108949211D01*
X181058525Y-109021557D01*
X181058528Y-109021558D01*
X181083079Y-109029535D01*
X181140754Y-109068972D01*
X181167953Y-109133331D01*
X181159322Y-109194918D01*
X181100264Y-109337498D01*
X181100261Y-109337510D01*
X181069500Y-109492153D01*
X181069500Y-109649846D01*
X181100261Y-109804489D01*
X181100264Y-109804501D01*
X181160602Y-109950172D01*
X181160609Y-109950185D01*
X181248210Y-110081288D01*
X181248213Y-110081292D01*
X181359707Y-110192786D01*
X181359711Y-110192789D01*
X181490814Y-110280390D01*
X181490827Y-110280397D01*
X181577767Y-110316408D01*
X181636503Y-110340737D01*
X181786664Y-110370606D01*
X181791153Y-110371499D01*
X181791156Y-110371500D01*
X181791158Y-110371500D01*
X181948844Y-110371500D01*
X181948845Y-110371499D01*
X182103497Y-110340737D01*
X182249179Y-110280394D01*
X182380289Y-110192789D01*
X182491789Y-110081289D01*
X182579394Y-109950179D01*
X182639737Y-109804497D01*
X182670500Y-109649842D01*
X182670500Y-109492158D01*
X182670500Y-109492155D01*
X182670499Y-109492153D01*
X182639738Y-109337510D01*
X182639737Y-109337503D01*
X182636836Y-109330499D01*
X182579397Y-109191827D01*
X182579390Y-109191814D01*
X182491789Y-109060711D01*
X182491786Y-109060707D01*
X182428756Y-108997677D01*
X182395271Y-108936354D01*
X182400255Y-108866662D01*
X182442127Y-108810729D01*
X182443486Y-108809726D01*
X182456730Y-108800104D01*
X182607042Y-108649792D01*
X182607044Y-108649788D01*
X182607047Y-108649786D01*
X182731986Y-108477820D01*
X182731985Y-108477820D01*
X182731989Y-108477816D01*
X182736452Y-108469054D01*
X182784426Y-108418259D01*
X182852246Y-108401463D01*
X182918382Y-108423999D01*
X182957424Y-108469056D01*
X182961889Y-108477820D01*
X183086828Y-108649786D01*
X183237151Y-108800109D01*
X183409117Y-108925048D01*
X183409119Y-108925049D01*
X183409122Y-108925051D01*
X183598526Y-109021557D01*
X183800695Y-109087246D01*
X184010651Y-109120500D01*
X184010652Y-109120500D01*
X184223224Y-109120500D01*
X184223225Y-109120500D01*
X184433181Y-109087246D01*
X184635350Y-109021557D01*
X184824754Y-108925051D01*
X184894774Y-108874179D01*
X184996724Y-108800109D01*
X184996726Y-108800106D01*
X184996730Y-108800104D01*
X185147042Y-108649792D01*
X185147044Y-108649788D01*
X185147047Y-108649786D01*
X185271986Y-108477820D01*
X185271985Y-108477820D01*
X185271989Y-108477816D01*
X185276452Y-108469054D01*
X185324426Y-108418259D01*
X185392246Y-108401463D01*
X185458382Y-108423999D01*
X185497424Y-108469056D01*
X185501889Y-108477820D01*
X185626828Y-108649786D01*
X185777151Y-108800109D01*
X185949117Y-108925048D01*
X185949119Y-108925049D01*
X185949122Y-108925051D01*
X186138526Y-109021557D01*
X186340695Y-109087246D01*
X186550651Y-109120500D01*
X186550652Y-109120500D01*
X186763224Y-109120500D01*
X186763225Y-109120500D01*
X186973181Y-109087246D01*
X187175350Y-109021557D01*
X187364754Y-108925051D01*
X187434774Y-108874179D01*
X187536724Y-108800109D01*
X187536726Y-108800106D01*
X187536730Y-108800104D01*
X187687042Y-108649792D01*
X187687044Y-108649788D01*
X187687047Y-108649786D01*
X187811986Y-108477820D01*
X187811985Y-108477820D01*
X187811989Y-108477816D01*
X187816452Y-108469054D01*
X187864426Y-108418259D01*
X187932246Y-108401463D01*
X187998382Y-108423999D01*
X188037424Y-108469056D01*
X188041889Y-108477820D01*
X188166828Y-108649786D01*
X188317151Y-108800109D01*
X188489117Y-108925048D01*
X188489119Y-108925049D01*
X188489122Y-108925051D01*
X188678526Y-109021557D01*
X188880695Y-109087246D01*
X189090651Y-109120500D01*
X189090652Y-109120500D01*
X189303224Y-109120500D01*
X189303225Y-109120500D01*
X189513181Y-109087246D01*
X189715350Y-109021557D01*
X189904754Y-108925051D01*
X189974774Y-108874179D01*
X190076724Y-108800109D01*
X190076726Y-108800106D01*
X190076730Y-108800104D01*
X190227042Y-108649792D01*
X190227044Y-108649788D01*
X190227047Y-108649786D01*
X190351986Y-108477820D01*
X190351985Y-108477820D01*
X190351989Y-108477816D01*
X190356452Y-108469054D01*
X190404426Y-108418259D01*
X190472246Y-108401463D01*
X190538382Y-108423999D01*
X190577424Y-108469056D01*
X190581889Y-108477820D01*
X190706828Y-108649786D01*
X190857151Y-108800109D01*
X191029117Y-108925048D01*
X191029119Y-108925049D01*
X191029122Y-108925051D01*
X191218526Y-109021557D01*
X191420695Y-109087246D01*
X191630651Y-109120500D01*
X191630652Y-109120500D01*
X191843224Y-109120500D01*
X191843225Y-109120500D01*
X192053181Y-109087246D01*
X192255350Y-109021557D01*
X192444754Y-108925051D01*
X192514774Y-108874179D01*
X192616724Y-108800109D01*
X192616726Y-108800106D01*
X192616730Y-108800104D01*
X192767042Y-108649792D01*
X192767044Y-108649788D01*
X192767047Y-108649786D01*
X192891986Y-108477820D01*
X192891985Y-108477820D01*
X192891989Y-108477816D01*
X192896452Y-108469054D01*
X192944426Y-108418259D01*
X193012246Y-108401463D01*
X193078382Y-108423999D01*
X193117424Y-108469056D01*
X193121889Y-108477820D01*
X193246828Y-108649786D01*
X193397151Y-108800109D01*
X193569117Y-108925048D01*
X193569119Y-108925049D01*
X193569122Y-108925051D01*
X193758526Y-109021557D01*
X193960695Y-109087246D01*
X194170651Y-109120500D01*
X194170652Y-109120500D01*
X194383224Y-109120500D01*
X194383225Y-109120500D01*
X194593181Y-109087246D01*
X194795350Y-109021557D01*
X194984754Y-108925051D01*
X195054774Y-108874179D01*
X195156724Y-108800109D01*
X195156726Y-108800106D01*
X195156730Y-108800104D01*
X195307042Y-108649792D01*
X195307044Y-108649788D01*
X195307047Y-108649786D01*
X195392828Y-108531717D01*
X195431989Y-108477816D01*
X195436731Y-108468508D01*
X195484701Y-108417711D01*
X195552521Y-108400911D01*
X195618657Y-108423445D01*
X195657701Y-108468500D01*
X195662311Y-108477547D01*
X195701666Y-108531716D01*
X196333975Y-107899408D01*
X196351013Y-107962993D01*
X196416839Y-108077007D01*
X196509931Y-108170099D01*
X196623945Y-108235925D01*
X196687528Y-108252962D01*
X196055220Y-108885269D01*
X196055220Y-108885270D01*
X196109387Y-108924624D01*
X196298720Y-109021095D01*
X196500808Y-109086757D01*
X196710692Y-109120000D01*
X196923184Y-109120000D01*
X197133065Y-109086757D01*
X197133068Y-109086757D01*
X197335155Y-109021095D01*
X197524492Y-108924622D01*
X197578654Y-108885270D01*
X197578655Y-108885270D01*
X196946346Y-108252962D01*
X197009931Y-108235925D01*
X197123945Y-108170099D01*
X197217037Y-108077007D01*
X197282863Y-107962993D01*
X197299900Y-107899408D01*
X197932208Y-108531717D01*
X197932208Y-108531716D01*
X197971560Y-108477554D01*
X198068033Y-108288217D01*
X198133695Y-108086130D01*
X198133695Y-108086127D01*
X198166938Y-107876246D01*
X198166938Y-107741153D01*
X207339500Y-107741153D01*
X207339500Y-107898846D01*
X207370261Y-108053489D01*
X207370264Y-108053501D01*
X207430602Y-108199172D01*
X207430609Y-108199185D01*
X207518210Y-108330288D01*
X207518213Y-108330292D01*
X207629710Y-108441789D01*
X207683629Y-108477816D01*
X207760821Y-108529394D01*
X207781142Y-108537811D01*
X207835545Y-108581649D01*
X207855308Y-108628180D01*
X207875261Y-108728491D01*
X207875264Y-108728501D01*
X207935602Y-108874172D01*
X207935609Y-108874185D01*
X208023210Y-109005288D01*
X208023213Y-109005292D01*
X208134707Y-109116786D01*
X208134711Y-109116789D01*
X208265814Y-109204390D01*
X208265827Y-109204397D01*
X208350326Y-109239397D01*
X208411503Y-109264737D01*
X208566153Y-109295499D01*
X208566156Y-109295500D01*
X208566158Y-109295500D01*
X208723844Y-109295500D01*
X208723845Y-109295499D01*
X208878497Y-109264737D01*
X209024179Y-109204394D01*
X209155289Y-109116789D01*
X209266789Y-109005289D01*
X209354394Y-108874179D01*
X209414737Y-108728497D01*
X209445500Y-108573842D01*
X209445500Y-108416158D01*
X209445500Y-108416155D01*
X209445499Y-108416153D01*
X209420090Y-108288414D01*
X209414737Y-108261503D01*
X209401345Y-108229172D01*
X209365218Y-108141952D01*
X209357749Y-108072483D01*
X209389024Y-108010004D01*
X209449113Y-107974352D01*
X209479779Y-107970500D01*
X209503844Y-107970500D01*
X209503845Y-107970499D01*
X209658497Y-107939737D01*
X209804179Y-107879394D01*
X209935289Y-107791789D01*
X210046789Y-107680289D01*
X210134394Y-107549179D01*
X210194737Y-107403497D01*
X210225500Y-107248842D01*
X210225500Y-107091158D01*
X210225500Y-107091155D01*
X210225499Y-107091153D01*
X210194738Y-106936510D01*
X210194738Y-106936508D01*
X210194737Y-106936503D01*
X210171812Y-106881156D01*
X210134397Y-106790827D01*
X210134390Y-106790814D01*
X210046789Y-106659711D01*
X210046786Y-106659707D01*
X209935292Y-106548213D01*
X209935288Y-106548210D01*
X209804185Y-106460609D01*
X209804172Y-106460602D01*
X209658501Y-106400264D01*
X209658489Y-106400261D01*
X209503845Y-106369500D01*
X209503842Y-106369500D01*
X209346158Y-106369500D01*
X209346155Y-106369500D01*
X209191510Y-106400261D01*
X209191498Y-106400264D01*
X209045827Y-106460602D01*
X209045814Y-106460609D01*
X208914711Y-106548210D01*
X208914707Y-106548213D01*
X208803213Y-106659707D01*
X208803210Y-106659711D01*
X208715609Y-106790814D01*
X208715602Y-106790827D01*
X208655264Y-106936498D01*
X208655261Y-106936508D01*
X208642385Y-107001240D01*
X208609999Y-107063151D01*
X208549283Y-107097725D01*
X208479514Y-107093984D01*
X208473326Y-107091613D01*
X208373497Y-107050263D01*
X208373489Y-107050261D01*
X208218845Y-107019500D01*
X208218842Y-107019500D01*
X208061158Y-107019500D01*
X208061155Y-107019500D01*
X207906510Y-107050261D01*
X207906498Y-107050264D01*
X207760827Y-107110602D01*
X207760814Y-107110609D01*
X207629711Y-107198210D01*
X207629707Y-107198213D01*
X207518213Y-107309707D01*
X207518210Y-107309711D01*
X207430609Y-107440814D01*
X207430602Y-107440827D01*
X207370264Y-107586498D01*
X207370261Y-107586510D01*
X207339500Y-107741153D01*
X198166938Y-107741153D01*
X198166938Y-107663753D01*
X198133695Y-107453872D01*
X198133695Y-107453869D01*
X198068033Y-107251782D01*
X197971562Y-107062449D01*
X197932208Y-107008282D01*
X197932207Y-107008282D01*
X197299900Y-107640590D01*
X197282863Y-107577007D01*
X197217037Y-107462993D01*
X197123945Y-107369901D01*
X197009931Y-107304075D01*
X196946347Y-107287037D01*
X197578654Y-106654728D01*
X197524488Y-106615375D01*
X197335155Y-106518904D01*
X197133067Y-106453242D01*
X196923184Y-106420000D01*
X196710692Y-106420000D01*
X196500810Y-106453242D01*
X196500807Y-106453242D01*
X196298720Y-106518904D01*
X196109377Y-106615380D01*
X196055220Y-106654727D01*
X196055220Y-106654728D01*
X196687529Y-107287037D01*
X196623945Y-107304075D01*
X196509931Y-107369901D01*
X196416839Y-107462993D01*
X196351013Y-107577007D01*
X196333975Y-107640591D01*
X195701666Y-107008282D01*
X195701665Y-107008282D01*
X195662318Y-107062440D01*
X195662314Y-107062446D01*
X195657698Y-107071505D01*
X195609719Y-107122297D01*
X195541897Y-107139087D01*
X195475764Y-107116543D01*
X195436732Y-107071493D01*
X195431989Y-107062184D01*
X195431987Y-107062181D01*
X195431986Y-107062179D01*
X195307047Y-106890213D01*
X195156724Y-106739890D01*
X194984758Y-106614951D01*
X194795352Y-106518444D01*
X194795351Y-106518443D01*
X194795350Y-106518443D01*
X194593181Y-106452754D01*
X194593179Y-106452753D01*
X194593178Y-106452753D01*
X194431895Y-106427208D01*
X194383225Y-106419500D01*
X194170651Y-106419500D01*
X194121980Y-106427208D01*
X193960698Y-106452753D01*
X193758523Y-106518444D01*
X193569117Y-106614951D01*
X193397151Y-106739890D01*
X193246828Y-106890213D01*
X193121887Y-107062182D01*
X193117422Y-107070946D01*
X193069447Y-107121742D01*
X193001626Y-107138536D01*
X192935491Y-107115998D01*
X192896454Y-107070946D01*
X192891988Y-107062182D01*
X192767047Y-106890213D01*
X192616724Y-106739890D01*
X192444758Y-106614951D01*
X192255352Y-106518444D01*
X192255351Y-106518443D01*
X192255350Y-106518443D01*
X192053181Y-106452754D01*
X192053179Y-106452753D01*
X192053178Y-106452753D01*
X191891895Y-106427208D01*
X191843225Y-106419500D01*
X191630651Y-106419500D01*
X191581980Y-106427208D01*
X191420698Y-106452753D01*
X191218523Y-106518444D01*
X191029117Y-106614951D01*
X190857151Y-106739890D01*
X190706828Y-106890213D01*
X190581887Y-107062182D01*
X190577422Y-107070946D01*
X190529447Y-107121742D01*
X190461626Y-107138536D01*
X190395491Y-107115998D01*
X190356454Y-107070946D01*
X190351988Y-107062182D01*
X190227047Y-106890213D01*
X190076724Y-106739890D01*
X189904758Y-106614951D01*
X189715352Y-106518444D01*
X189715351Y-106518443D01*
X189715350Y-106518443D01*
X189513181Y-106452754D01*
X189513179Y-106452753D01*
X189513178Y-106452753D01*
X189351895Y-106427208D01*
X189303225Y-106419500D01*
X189090651Y-106419500D01*
X189041980Y-106427208D01*
X188880698Y-106452753D01*
X188678523Y-106518444D01*
X188489117Y-106614951D01*
X188317151Y-106739890D01*
X188166828Y-106890213D01*
X188041887Y-107062182D01*
X188037422Y-107070946D01*
X187989447Y-107121742D01*
X187921626Y-107138536D01*
X187855491Y-107115998D01*
X187816454Y-107070946D01*
X187811988Y-107062182D01*
X187687047Y-106890213D01*
X187536724Y-106739890D01*
X187364758Y-106614951D01*
X187175352Y-106518444D01*
X187175351Y-106518443D01*
X187175350Y-106518443D01*
X186973181Y-106452754D01*
X186973179Y-106452753D01*
X186973178Y-106452753D01*
X186811895Y-106427208D01*
X186763225Y-106419500D01*
X186550651Y-106419500D01*
X186501980Y-106427208D01*
X186340698Y-106452753D01*
X186138523Y-106518444D01*
X185949117Y-106614951D01*
X185777151Y-106739890D01*
X185626828Y-106890213D01*
X185501887Y-107062182D01*
X185497422Y-107070946D01*
X185449447Y-107121742D01*
X185381626Y-107138536D01*
X185315491Y-107115998D01*
X185276454Y-107070946D01*
X185271988Y-107062182D01*
X185147047Y-106890213D01*
X184996724Y-106739890D01*
X184824758Y-106614951D01*
X184635352Y-106518444D01*
X184635351Y-106518443D01*
X184635350Y-106518443D01*
X184433181Y-106452754D01*
X184433179Y-106452753D01*
X184433178Y-106452753D01*
X184271895Y-106427208D01*
X184223225Y-106419500D01*
X184010651Y-106419500D01*
X183961980Y-106427208D01*
X183800698Y-106452753D01*
X183598523Y-106518444D01*
X183409117Y-106614951D01*
X183237151Y-106739890D01*
X183086828Y-106890213D01*
X182961887Y-107062182D01*
X182957422Y-107070946D01*
X182909447Y-107121742D01*
X182841626Y-107138536D01*
X182775491Y-107115998D01*
X182736454Y-107070946D01*
X182731988Y-107062182D01*
X182607047Y-106890213D01*
X182456724Y-106739890D01*
X182284758Y-106614951D01*
X182095352Y-106518444D01*
X182095351Y-106518443D01*
X182095350Y-106518443D01*
X181893181Y-106452754D01*
X181893179Y-106452753D01*
X181893178Y-106452753D01*
X181731895Y-106427208D01*
X181683225Y-106419500D01*
X181470651Y-106419500D01*
X181421980Y-106427208D01*
X181260698Y-106452753D01*
X181058523Y-106518444D01*
X180869117Y-106614951D01*
X180697151Y-106739890D01*
X180546828Y-106890213D01*
X180421889Y-107062179D01*
X180325382Y-107251585D01*
X180259691Y-107453760D01*
X180234706Y-107611510D01*
X180226438Y-107663713D01*
X179328229Y-107663713D01*
X179317844Y-107611508D01*
X179317843Y-107611507D01*
X179317843Y-107611503D01*
X179307486Y-107586498D01*
X179257503Y-107465827D01*
X179257496Y-107465814D01*
X179169895Y-107334711D01*
X179169892Y-107334707D01*
X179058398Y-107223213D01*
X179058394Y-107223210D01*
X178927291Y-107135609D01*
X178927278Y-107135602D01*
X178781607Y-107075264D01*
X178781595Y-107075261D01*
X178626951Y-107044500D01*
X178626948Y-107044500D01*
X178469264Y-107044500D01*
X178469261Y-107044500D01*
X178314616Y-107075261D01*
X178314604Y-107075264D01*
X178168933Y-107135602D01*
X178168920Y-107135609D01*
X178037817Y-107223210D01*
X178037813Y-107223213D01*
X177926319Y-107334707D01*
X177926316Y-107334711D01*
X177838715Y-107465814D01*
X177838708Y-107465827D01*
X177778370Y-107611498D01*
X177778367Y-107611510D01*
X177747606Y-107766153D01*
X171769505Y-107766153D01*
X171739738Y-107616510D01*
X171739737Y-107616503D01*
X171727309Y-107586498D01*
X171679397Y-107470827D01*
X171679390Y-107470814D01*
X171591789Y-107339711D01*
X171591786Y-107339707D01*
X171480292Y-107228213D01*
X171480288Y-107228210D01*
X171349185Y-107140609D01*
X171349172Y-107140602D01*
X171203501Y-107080264D01*
X171203489Y-107080261D01*
X171048845Y-107049500D01*
X171048842Y-107049500D01*
X170891158Y-107049500D01*
X170891155Y-107049500D01*
X170736510Y-107080261D01*
X170736498Y-107080264D01*
X170590827Y-107140602D01*
X170590814Y-107140609D01*
X170459711Y-107228210D01*
X170459707Y-107228213D01*
X170348213Y-107339707D01*
X170348210Y-107339711D01*
X170260609Y-107470814D01*
X170260602Y-107470827D01*
X170200264Y-107616498D01*
X170200261Y-107616510D01*
X170169500Y-107771153D01*
X165802576Y-107771153D01*
X165663220Y-107574335D01*
X165660853Y-107570868D01*
X165132567Y-106768471D01*
X165130318Y-106764926D01*
X164715621Y-106086084D01*
X164697438Y-106021441D01*
X164697438Y-104173615D01*
X172954500Y-104173615D01*
X172954500Y-104326384D01*
X172984300Y-104476197D01*
X172984302Y-104476205D01*
X173042759Y-104617334D01*
X173042764Y-104617343D01*
X173127629Y-104744351D01*
X173127632Y-104744355D01*
X173235644Y-104852367D01*
X173235648Y-104852370D01*
X173362656Y-104937235D01*
X173362665Y-104937240D01*
X173386795Y-104947235D01*
X173503795Y-104995698D01*
X173653615Y-105025499D01*
X173653619Y-105025500D01*
X173653620Y-105025500D01*
X173806381Y-105025500D01*
X173806382Y-105025499D01*
X173956205Y-104995698D01*
X174097337Y-104937239D01*
X174126109Y-104918013D01*
X174192785Y-104897135D01*
X174260165Y-104915618D01*
X174263866Y-104917997D01*
X174292663Y-104937239D01*
X174433795Y-104995698D01*
X174583615Y-105025499D01*
X174583619Y-105025500D01*
X174583620Y-105025500D01*
X174736381Y-105025500D01*
X174736382Y-105025499D01*
X174886205Y-104995698D01*
X175027337Y-104937239D01*
X175154352Y-104852370D01*
X175262370Y-104744352D01*
X175347239Y-104617337D01*
X175405698Y-104476205D01*
X175435500Y-104326380D01*
X175435500Y-104173620D01*
X175405698Y-104023795D01*
X175347239Y-103882663D01*
X175347238Y-103882662D01*
X175347235Y-103882656D01*
X175262370Y-103755648D01*
X175262367Y-103755644D01*
X175154355Y-103647632D01*
X175154351Y-103647629D01*
X175027343Y-103562764D01*
X175027334Y-103562759D01*
X174886205Y-103504302D01*
X174886197Y-103504300D01*
X174736384Y-103474500D01*
X174736380Y-103474500D01*
X174583620Y-103474500D01*
X174583615Y-103474500D01*
X174433802Y-103504300D01*
X174433794Y-103504302D01*
X174292661Y-103562761D01*
X174263889Y-103581986D01*
X174197211Y-103602863D01*
X174129831Y-103584377D01*
X174126111Y-103581986D01*
X174097338Y-103562761D01*
X173956205Y-103504302D01*
X173956197Y-103504300D01*
X173806384Y-103474500D01*
X173806380Y-103474500D01*
X173653620Y-103474500D01*
X173653615Y-103474500D01*
X173503802Y-103504300D01*
X173503794Y-103504302D01*
X173362665Y-103562759D01*
X173362656Y-103562764D01*
X173235648Y-103647629D01*
X173235644Y-103647632D01*
X173127632Y-103755644D01*
X173127629Y-103755648D01*
X173042764Y-103882656D01*
X173042759Y-103882665D01*
X172984302Y-104023794D01*
X172984300Y-104023802D01*
X172954500Y-104173615D01*
X164697438Y-104173615D01*
X164697438Y-101047844D01*
X165126938Y-101047844D01*
X165133339Y-101107372D01*
X165133341Y-101107379D01*
X165183583Y-101242086D01*
X165183587Y-101242093D01*
X165269747Y-101357187D01*
X165269750Y-101357190D01*
X165384844Y-101443350D01*
X165384851Y-101443354D01*
X165519558Y-101493596D01*
X165519565Y-101493598D01*
X165579093Y-101499999D01*
X165579110Y-101500000D01*
X166666938Y-101500000D01*
X167166938Y-101500000D01*
X168254766Y-101500000D01*
X168254782Y-101499999D01*
X168314310Y-101493598D01*
X168314317Y-101493596D01*
X168449024Y-101443354D01*
X168449031Y-101443350D01*
X168564125Y-101357190D01*
X168564128Y-101357187D01*
X168650288Y-101242093D01*
X168650292Y-101242086D01*
X168700534Y-101107379D01*
X168700536Y-101107372D01*
X168706937Y-101047844D01*
X169296938Y-101047844D01*
X169303339Y-101107372D01*
X169303341Y-101107379D01*
X169353583Y-101242086D01*
X169353587Y-101242093D01*
X169439747Y-101357187D01*
X169439750Y-101357190D01*
X169554844Y-101443350D01*
X169554851Y-101443354D01*
X169689558Y-101493596D01*
X169689565Y-101493598D01*
X169749093Y-101499999D01*
X169749110Y-101500000D01*
X170836938Y-101500000D01*
X171336938Y-101500000D01*
X172424766Y-101500000D01*
X172424782Y-101499999D01*
X172484310Y-101493598D01*
X172484317Y-101493596D01*
X172619024Y-101443354D01*
X172619031Y-101443350D01*
X172734125Y-101357190D01*
X172734128Y-101357187D01*
X172820288Y-101242093D01*
X172820292Y-101242086D01*
X172870534Y-101107379D01*
X172870536Y-101107372D01*
X172876937Y-101047844D01*
X172876938Y-101047827D01*
X172876938Y-100750000D01*
X171336938Y-100750000D01*
X171336938Y-101500000D01*
X170836938Y-101500000D01*
X170836938Y-100750000D01*
X169296938Y-100750000D01*
X169296938Y-101047844D01*
X168706937Y-101047844D01*
X168706938Y-101047827D01*
X168706938Y-100750000D01*
X167166938Y-100750000D01*
X167166938Y-101500000D01*
X166666938Y-101500000D01*
X166666938Y-100750000D01*
X165126938Y-100750000D01*
X165126938Y-101047844D01*
X164697438Y-101047844D01*
X164697438Y-100453922D01*
X166566938Y-100453922D01*
X166566938Y-100546078D01*
X166590790Y-100635095D01*
X166636868Y-100714905D01*
X166702033Y-100780070D01*
X166781843Y-100826148D01*
X166870860Y-100850000D01*
X166963016Y-100850000D01*
X167052033Y-100826148D01*
X167131843Y-100780070D01*
X167197008Y-100714905D01*
X167243086Y-100635095D01*
X167266938Y-100546078D01*
X167266938Y-100453922D01*
X170736938Y-100453922D01*
X170736938Y-100546078D01*
X170760790Y-100635095D01*
X170806868Y-100714905D01*
X170872033Y-100780070D01*
X170951843Y-100826148D01*
X171040860Y-100850000D01*
X171133016Y-100850000D01*
X171222033Y-100826148D01*
X171301843Y-100780070D01*
X171367008Y-100714905D01*
X171413086Y-100635095D01*
X171436938Y-100546078D01*
X171436938Y-100453922D01*
X171413086Y-100364905D01*
X171367008Y-100285095D01*
X171331913Y-100250000D01*
X171336938Y-100250000D01*
X172876938Y-100250000D01*
X172876938Y-99952172D01*
X172876937Y-99952155D01*
X172870536Y-99892627D01*
X172870534Y-99892620D01*
X172820292Y-99757913D01*
X172820288Y-99757906D01*
X172734128Y-99642813D01*
X172675959Y-99599267D01*
X172634088Y-99543333D01*
X172629104Y-99473641D01*
X172662589Y-99412318D01*
X172675959Y-99400733D01*
X172734128Y-99357186D01*
X172820288Y-99242093D01*
X172820292Y-99242086D01*
X172870534Y-99107379D01*
X172870536Y-99107372D01*
X172876937Y-99047844D01*
X172876938Y-99047827D01*
X172876938Y-98750000D01*
X171336938Y-98750000D01*
X171336938Y-100250000D01*
X171331913Y-100250000D01*
X171301843Y-100219930D01*
X171222033Y-100173852D01*
X171133016Y-100150000D01*
X171040860Y-100150000D01*
X170951843Y-100173852D01*
X170872033Y-100219930D01*
X170806868Y-100285095D01*
X170760790Y-100364905D01*
X170736938Y-100453922D01*
X167266938Y-100453922D01*
X167243086Y-100364905D01*
X167197008Y-100285095D01*
X167161913Y-100250000D01*
X167166938Y-100250000D01*
X168706938Y-100250000D01*
X168706938Y-99952172D01*
X168706937Y-99952155D01*
X168700536Y-99892627D01*
X168700534Y-99892620D01*
X168650292Y-99757913D01*
X168650288Y-99757906D01*
X168564128Y-99642813D01*
X168505959Y-99599267D01*
X168464088Y-99543333D01*
X168459104Y-99473641D01*
X168492589Y-99412318D01*
X168505959Y-99400733D01*
X168564128Y-99357186D01*
X168650288Y-99242093D01*
X168650292Y-99242086D01*
X168700534Y-99107379D01*
X168700536Y-99107372D01*
X168706937Y-99047844D01*
X169296938Y-99047844D01*
X169303339Y-99107372D01*
X169303341Y-99107379D01*
X169353583Y-99242086D01*
X169353587Y-99242093D01*
X169439747Y-99357187D01*
X169497917Y-99400734D01*
X169539787Y-99456668D01*
X169544771Y-99526360D01*
X169511285Y-99587683D01*
X169497917Y-99599266D01*
X169439747Y-99642812D01*
X169353587Y-99757906D01*
X169353583Y-99757913D01*
X169303341Y-99892620D01*
X169303339Y-99892627D01*
X169296938Y-99952155D01*
X169296938Y-100250000D01*
X170836938Y-100250000D01*
X170836938Y-98750000D01*
X169296938Y-98750000D01*
X169296938Y-99047844D01*
X168706937Y-99047844D01*
X168706938Y-99047827D01*
X168706938Y-98750000D01*
X167166938Y-98750000D01*
X167166938Y-100250000D01*
X167161913Y-100250000D01*
X167131843Y-100219930D01*
X167052033Y-100173852D01*
X166963016Y-100150000D01*
X166870860Y-100150000D01*
X166781843Y-100173852D01*
X166702033Y-100219930D01*
X166636868Y-100285095D01*
X166590790Y-100364905D01*
X166566938Y-100453922D01*
X164697438Y-100453922D01*
X164697438Y-99047844D01*
X165126938Y-99047844D01*
X165133339Y-99107372D01*
X165133341Y-99107379D01*
X165183583Y-99242086D01*
X165183587Y-99242093D01*
X165269747Y-99357187D01*
X165327917Y-99400734D01*
X165369787Y-99456668D01*
X165374771Y-99526360D01*
X165341285Y-99587683D01*
X165327917Y-99599266D01*
X165269747Y-99642812D01*
X165183587Y-99757906D01*
X165183583Y-99757913D01*
X165133341Y-99892620D01*
X165133339Y-99892627D01*
X165126938Y-99952155D01*
X165126938Y-100250000D01*
X166666938Y-100250000D01*
X166666938Y-98750000D01*
X165126938Y-98750000D01*
X165126938Y-99047844D01*
X164697438Y-99047844D01*
X164697438Y-91952135D01*
X165126438Y-91952135D01*
X165126438Y-93047870D01*
X165126439Y-93047876D01*
X165132846Y-93107483D01*
X165183140Y-93242328D01*
X165183144Y-93242335D01*
X165269390Y-93357544D01*
X165269391Y-93357544D01*
X165269392Y-93357546D01*
X165298553Y-93379376D01*
X165327083Y-93400734D01*
X165368953Y-93456668D01*
X165373937Y-93526360D01*
X165340451Y-93587683D01*
X165327083Y-93599266D01*
X165269390Y-93642455D01*
X165183144Y-93757664D01*
X165183140Y-93757671D01*
X165132846Y-93892517D01*
X165126439Y-93952116D01*
X165126439Y-93952123D01*
X165126438Y-93952135D01*
X165126438Y-95047870D01*
X165126439Y-95047876D01*
X165132846Y-95107483D01*
X165183140Y-95242328D01*
X165183144Y-95242335D01*
X165269390Y-95357544D01*
X165269391Y-95357544D01*
X165269392Y-95357546D01*
X165298553Y-95379376D01*
X165327083Y-95400734D01*
X165368953Y-95456668D01*
X165373937Y-95526360D01*
X165340451Y-95587683D01*
X165327083Y-95599266D01*
X165269390Y-95642455D01*
X165183144Y-95757664D01*
X165183140Y-95757671D01*
X165132846Y-95892517D01*
X165126439Y-95952116D01*
X165126439Y-95952123D01*
X165126438Y-95952135D01*
X165126438Y-97047870D01*
X165126439Y-97047876D01*
X165132846Y-97107483D01*
X165183140Y-97242328D01*
X165183144Y-97242335D01*
X165269390Y-97357544D01*
X165269391Y-97357544D01*
X165269392Y-97357546D01*
X165304665Y-97383951D01*
X165327500Y-97401046D01*
X165369370Y-97456980D01*
X165374354Y-97526672D01*
X165340868Y-97587994D01*
X165327500Y-97599578D01*
X165269747Y-97642812D01*
X165183587Y-97757906D01*
X165183583Y-97757913D01*
X165133341Y-97892620D01*
X165133339Y-97892627D01*
X165126938Y-97952155D01*
X165126938Y-98250000D01*
X166671963Y-98250000D01*
X166636868Y-98285095D01*
X166590790Y-98364905D01*
X166566938Y-98453922D01*
X166566938Y-98546078D01*
X166590790Y-98635095D01*
X166636868Y-98714905D01*
X166702033Y-98780070D01*
X166781843Y-98826148D01*
X166870860Y-98850000D01*
X166963016Y-98850000D01*
X167052033Y-98826148D01*
X167131843Y-98780070D01*
X167197008Y-98714905D01*
X167243086Y-98635095D01*
X167266938Y-98546078D01*
X167266938Y-98453922D01*
X167243086Y-98364905D01*
X167197008Y-98285095D01*
X167161913Y-98250000D01*
X168706938Y-98250000D01*
X168706938Y-97952172D01*
X168706937Y-97952155D01*
X168700536Y-97892627D01*
X168700534Y-97892620D01*
X168650292Y-97757913D01*
X168650288Y-97757906D01*
X168564128Y-97642812D01*
X168564125Y-97642809D01*
X168506376Y-97599578D01*
X168464505Y-97543645D01*
X168459521Y-97473953D01*
X168493007Y-97412630D01*
X168506370Y-97401049D01*
X168564484Y-97357546D01*
X168650734Y-97242331D01*
X168701029Y-97107483D01*
X168707438Y-97047873D01*
X168707437Y-95952128D01*
X168701029Y-95892517D01*
X168650822Y-95757906D01*
X168650735Y-95757671D01*
X168650731Y-95757664D01*
X168599061Y-95688643D01*
X168564484Y-95642454D01*
X168506792Y-95599265D01*
X168464922Y-95543333D01*
X168459938Y-95473641D01*
X168493423Y-95412318D01*
X168506792Y-95400734D01*
X168564484Y-95357546D01*
X168650734Y-95242331D01*
X168701029Y-95107483D01*
X168707438Y-95047873D01*
X168707437Y-93952128D01*
X168701029Y-93892517D01*
X168650822Y-93757906D01*
X168650735Y-93757671D01*
X168650731Y-93757664D01*
X168564752Y-93642812D01*
X168564484Y-93642454D01*
X168506792Y-93599265D01*
X168464922Y-93543333D01*
X168459938Y-93473641D01*
X168493423Y-93412318D01*
X168506792Y-93400734D01*
X168564484Y-93357546D01*
X168650734Y-93242331D01*
X168701029Y-93107483D01*
X168707438Y-93047873D01*
X168707437Y-91952128D01*
X168701029Y-91892517D01*
X168696259Y-91879729D01*
X168650735Y-91757671D01*
X168650731Y-91757664D01*
X168564485Y-91642455D01*
X168564482Y-91642453D01*
X168506794Y-91599267D01*
X168506375Y-91598953D01*
X168464505Y-91543019D01*
X168459521Y-91473327D01*
X168493007Y-91412004D01*
X168506377Y-91400420D01*
X168564127Y-91357188D01*
X168564128Y-91357187D01*
X168650288Y-91242093D01*
X168650292Y-91242086D01*
X168700534Y-91107379D01*
X168700536Y-91107372D01*
X168706937Y-91047844D01*
X168706938Y-91047827D01*
X168706938Y-90750000D01*
X167161913Y-90750000D01*
X167197008Y-90714905D01*
X167243086Y-90635095D01*
X167266938Y-90546078D01*
X167266938Y-90453922D01*
X167243086Y-90364905D01*
X167197008Y-90285095D01*
X167161913Y-90250000D01*
X167166938Y-90250000D01*
X168706938Y-90250000D01*
X168706938Y-89952172D01*
X168706937Y-89952155D01*
X168700536Y-89892627D01*
X168700534Y-89892620D01*
X168650292Y-89757913D01*
X168650288Y-89757906D01*
X168564128Y-89642813D01*
X168505959Y-89599267D01*
X168464088Y-89543333D01*
X168459104Y-89473641D01*
X168492589Y-89412318D01*
X168505959Y-89400733D01*
X168564128Y-89357186D01*
X168650288Y-89242093D01*
X168650292Y-89242086D01*
X168700534Y-89107379D01*
X168700536Y-89107372D01*
X168706937Y-89047844D01*
X168706938Y-89047827D01*
X168706938Y-88750000D01*
X167166938Y-88750000D01*
X167166938Y-90250000D01*
X167161913Y-90250000D01*
X167131843Y-90219930D01*
X167052033Y-90173852D01*
X166963016Y-90150000D01*
X166870860Y-90150000D01*
X166781843Y-90173852D01*
X166702033Y-90219930D01*
X166636868Y-90285095D01*
X166590790Y-90364905D01*
X166566938Y-90453922D01*
X166566938Y-90546078D01*
X166590790Y-90635095D01*
X166636868Y-90714905D01*
X166671963Y-90750000D01*
X165126938Y-90750000D01*
X165126938Y-91047844D01*
X165133339Y-91107372D01*
X165133341Y-91107379D01*
X165183583Y-91242086D01*
X165183587Y-91242093D01*
X165269747Y-91357186D01*
X165327499Y-91400420D01*
X165369370Y-91456354D01*
X165374354Y-91526046D01*
X165340869Y-91587369D01*
X165327501Y-91598952D01*
X165269392Y-91642453D01*
X165269390Y-91642455D01*
X165183144Y-91757664D01*
X165183140Y-91757671D01*
X165132846Y-91892517D01*
X165126439Y-91952116D01*
X165126439Y-91952123D01*
X165126438Y-91952135D01*
X164697438Y-91952135D01*
X164697438Y-89047844D01*
X165126938Y-89047844D01*
X165133339Y-89107372D01*
X165133341Y-89107379D01*
X165183583Y-89242086D01*
X165183587Y-89242093D01*
X165269747Y-89357187D01*
X165327917Y-89400734D01*
X165369787Y-89456668D01*
X165374771Y-89526360D01*
X165341285Y-89587683D01*
X165327917Y-89599266D01*
X165269747Y-89642812D01*
X165183587Y-89757906D01*
X165183583Y-89757913D01*
X165133341Y-89892620D01*
X165133339Y-89892627D01*
X165126938Y-89952155D01*
X165126938Y-90250000D01*
X166666938Y-90250000D01*
X166666938Y-88750000D01*
X165126938Y-88750000D01*
X165126938Y-89047844D01*
X164697438Y-89047844D01*
X164697438Y-81952135D01*
X165126438Y-81952135D01*
X165126438Y-83047870D01*
X165126439Y-83047876D01*
X165132846Y-83107483D01*
X165183140Y-83242328D01*
X165183144Y-83242335D01*
X165269390Y-83357544D01*
X165269391Y-83357544D01*
X165269392Y-83357546D01*
X165298553Y-83379376D01*
X165327083Y-83400734D01*
X165368953Y-83456668D01*
X165373937Y-83526360D01*
X165340451Y-83587683D01*
X165327083Y-83599266D01*
X165269390Y-83642455D01*
X165183144Y-83757664D01*
X165183140Y-83757671D01*
X165132846Y-83892517D01*
X165129793Y-83920920D01*
X165126439Y-83952123D01*
X165126438Y-83952135D01*
X165126438Y-85047870D01*
X165126439Y-85047876D01*
X165132846Y-85107483D01*
X165183140Y-85242328D01*
X165183144Y-85242335D01*
X165269390Y-85357544D01*
X165269391Y-85357544D01*
X165269392Y-85357546D01*
X165298553Y-85379376D01*
X165327083Y-85400734D01*
X165368953Y-85456668D01*
X165373937Y-85526360D01*
X165340451Y-85587683D01*
X165327083Y-85599266D01*
X165269390Y-85642455D01*
X165183144Y-85757664D01*
X165183140Y-85757671D01*
X165132846Y-85892517D01*
X165126439Y-85952116D01*
X165126439Y-85952123D01*
X165126438Y-85952135D01*
X165126438Y-87047870D01*
X165126439Y-87047876D01*
X165132846Y-87107483D01*
X165183140Y-87242328D01*
X165183144Y-87242335D01*
X165269390Y-87357544D01*
X165269391Y-87357544D01*
X165269392Y-87357546D01*
X165299681Y-87380220D01*
X165327500Y-87401046D01*
X165369370Y-87456980D01*
X165374354Y-87526672D01*
X165340868Y-87587994D01*
X165327500Y-87599578D01*
X165269747Y-87642812D01*
X165183587Y-87757906D01*
X165183583Y-87757913D01*
X165133341Y-87892620D01*
X165133339Y-87892627D01*
X165126938Y-87952155D01*
X165126938Y-88250000D01*
X166671963Y-88250000D01*
X166636868Y-88285095D01*
X166590790Y-88364905D01*
X166566938Y-88453922D01*
X166566938Y-88546078D01*
X166590790Y-88635095D01*
X166636868Y-88714905D01*
X166702033Y-88780070D01*
X166781843Y-88826148D01*
X166870860Y-88850000D01*
X166963016Y-88850000D01*
X167052033Y-88826148D01*
X167131843Y-88780070D01*
X167197008Y-88714905D01*
X167243086Y-88635095D01*
X167266938Y-88546078D01*
X167266938Y-88453922D01*
X167243086Y-88364905D01*
X167197008Y-88285095D01*
X167161913Y-88250000D01*
X168706938Y-88250000D01*
X168706938Y-87952172D01*
X168706937Y-87952155D01*
X168700536Y-87892627D01*
X168700534Y-87892620D01*
X168650292Y-87757913D01*
X168650288Y-87757906D01*
X168564128Y-87642812D01*
X168564125Y-87642809D01*
X168506376Y-87599578D01*
X168464505Y-87543645D01*
X168459521Y-87473953D01*
X168493007Y-87412630D01*
X168506370Y-87401049D01*
X168564484Y-87357546D01*
X168650734Y-87242331D01*
X168701029Y-87107483D01*
X168707438Y-87047873D01*
X168707437Y-85952128D01*
X168701029Y-85892517D01*
X168688793Y-85859711D01*
X168650735Y-85757671D01*
X168650731Y-85757664D01*
X168578075Y-85660609D01*
X168564484Y-85642454D01*
X168506792Y-85599265D01*
X168464922Y-85543333D01*
X168459938Y-85473641D01*
X168493423Y-85412318D01*
X168506792Y-85400734D01*
X168564484Y-85357546D01*
X168650734Y-85242331D01*
X168701029Y-85107483D01*
X168707438Y-85047873D01*
X168707437Y-83952128D01*
X168701029Y-83892517D01*
X168650734Y-83757669D01*
X168650733Y-83757668D01*
X168650731Y-83757664D01*
X168564485Y-83642456D01*
X168564486Y-83642456D01*
X168564484Y-83642454D01*
X168506792Y-83599265D01*
X168464922Y-83543333D01*
X168459938Y-83473641D01*
X168493423Y-83412318D01*
X168506792Y-83400734D01*
X168564484Y-83357546D01*
X168650734Y-83242331D01*
X168701029Y-83107483D01*
X168707438Y-83047873D01*
X168707437Y-81952135D01*
X169296438Y-81952135D01*
X169296438Y-83047870D01*
X169296439Y-83047876D01*
X169302846Y-83107483D01*
X169353140Y-83242328D01*
X169353144Y-83242335D01*
X169439390Y-83357544D01*
X169439391Y-83357544D01*
X169439392Y-83357546D01*
X169468553Y-83379376D01*
X169497083Y-83400734D01*
X169538953Y-83456668D01*
X169543937Y-83526360D01*
X169510451Y-83587683D01*
X169497083Y-83599266D01*
X169439390Y-83642455D01*
X169353144Y-83757664D01*
X169353140Y-83757671D01*
X169302846Y-83892517D01*
X169299793Y-83920920D01*
X169296439Y-83952123D01*
X169296438Y-83952135D01*
X169296438Y-85047870D01*
X169296439Y-85047876D01*
X169302846Y-85107483D01*
X169353140Y-85242328D01*
X169353144Y-85242335D01*
X169439390Y-85357544D01*
X169439391Y-85357544D01*
X169439392Y-85357546D01*
X169468553Y-85379376D01*
X169497083Y-85400734D01*
X169538953Y-85456668D01*
X169543937Y-85526360D01*
X169510451Y-85587683D01*
X169497083Y-85599266D01*
X169439390Y-85642455D01*
X169353144Y-85757664D01*
X169353140Y-85757671D01*
X169302846Y-85892517D01*
X169296439Y-85952116D01*
X169296439Y-85952123D01*
X169296438Y-85952135D01*
X169296438Y-87047870D01*
X169296439Y-87047876D01*
X169302846Y-87107483D01*
X169353140Y-87242328D01*
X169353144Y-87242335D01*
X169439390Y-87357544D01*
X169439391Y-87357544D01*
X169439392Y-87357546D01*
X169468553Y-87379376D01*
X169497083Y-87400734D01*
X169538953Y-87456668D01*
X169543937Y-87526360D01*
X169510451Y-87587683D01*
X169497083Y-87599266D01*
X169439390Y-87642455D01*
X169353144Y-87757664D01*
X169353140Y-87757671D01*
X169302846Y-87892517D01*
X169296439Y-87952116D01*
X169296439Y-87952123D01*
X169296438Y-87952135D01*
X169296438Y-89047870D01*
X169296439Y-89047876D01*
X169302846Y-89107483D01*
X169353140Y-89242328D01*
X169353144Y-89242335D01*
X169439390Y-89357544D01*
X169439391Y-89357544D01*
X169439392Y-89357546D01*
X169468553Y-89379376D01*
X169497083Y-89400734D01*
X169538953Y-89456668D01*
X169543937Y-89526360D01*
X169510451Y-89587683D01*
X169497083Y-89599266D01*
X169439390Y-89642455D01*
X169353144Y-89757664D01*
X169353140Y-89757671D01*
X169302846Y-89892517D01*
X169296439Y-89952116D01*
X169296439Y-89952123D01*
X169296438Y-89952135D01*
X169296438Y-91047870D01*
X169296439Y-91047876D01*
X169302846Y-91107483D01*
X169353140Y-91242328D01*
X169353144Y-91242335D01*
X169439390Y-91357544D01*
X169439391Y-91357544D01*
X169439392Y-91357546D01*
X169468553Y-91379376D01*
X169497083Y-91400734D01*
X169538953Y-91456668D01*
X169543937Y-91526360D01*
X169510451Y-91587683D01*
X169497083Y-91599266D01*
X169439390Y-91642455D01*
X169353144Y-91757664D01*
X169353140Y-91757671D01*
X169302846Y-91892517D01*
X169296439Y-91952116D01*
X169296439Y-91952123D01*
X169296438Y-91952135D01*
X169296438Y-93047870D01*
X169296439Y-93047876D01*
X169302846Y-93107483D01*
X169353140Y-93242328D01*
X169353144Y-93242335D01*
X169439390Y-93357544D01*
X169439391Y-93357544D01*
X169439392Y-93357546D01*
X169468553Y-93379376D01*
X169497083Y-93400734D01*
X169538953Y-93456668D01*
X169543937Y-93526360D01*
X169510451Y-93587683D01*
X169497083Y-93599266D01*
X169439390Y-93642455D01*
X169353144Y-93757664D01*
X169353140Y-93757671D01*
X169302846Y-93892517D01*
X169296439Y-93952116D01*
X169296439Y-93952123D01*
X169296438Y-93952135D01*
X169296438Y-95047870D01*
X169296439Y-95047876D01*
X169302846Y-95107483D01*
X169353140Y-95242328D01*
X169353144Y-95242335D01*
X169439390Y-95357544D01*
X169439391Y-95357544D01*
X169439392Y-95357546D01*
X169468553Y-95379376D01*
X169497083Y-95400734D01*
X169538953Y-95456668D01*
X169543937Y-95526360D01*
X169510451Y-95587683D01*
X169497083Y-95599266D01*
X169439390Y-95642455D01*
X169353144Y-95757664D01*
X169353140Y-95757671D01*
X169302846Y-95892517D01*
X169296439Y-95952116D01*
X169296439Y-95952123D01*
X169296438Y-95952135D01*
X169296438Y-97047870D01*
X169296439Y-97047876D01*
X169302846Y-97107483D01*
X169353140Y-97242328D01*
X169353144Y-97242335D01*
X169439390Y-97357544D01*
X169439391Y-97357544D01*
X169439392Y-97357546D01*
X169474665Y-97383951D01*
X169497500Y-97401046D01*
X169539370Y-97456980D01*
X169544354Y-97526672D01*
X169510868Y-97587994D01*
X169497500Y-97599578D01*
X169439747Y-97642812D01*
X169353587Y-97757906D01*
X169353583Y-97757913D01*
X169303341Y-97892620D01*
X169303339Y-97892627D01*
X169296938Y-97952155D01*
X169296938Y-98250000D01*
X170841963Y-98250000D01*
X170806868Y-98285095D01*
X170760790Y-98364905D01*
X170736938Y-98453922D01*
X170736938Y-98546078D01*
X170760790Y-98635095D01*
X170806868Y-98714905D01*
X170872033Y-98780070D01*
X170951843Y-98826148D01*
X171040860Y-98850000D01*
X171133016Y-98850000D01*
X171222033Y-98826148D01*
X171301843Y-98780070D01*
X171367008Y-98714905D01*
X171413086Y-98635095D01*
X171436938Y-98546078D01*
X171436938Y-98453922D01*
X171413086Y-98364905D01*
X171367008Y-98285095D01*
X171331913Y-98250000D01*
X172876938Y-98250000D01*
X172876938Y-97952172D01*
X172876937Y-97952155D01*
X172870536Y-97892627D01*
X172870534Y-97892620D01*
X172820292Y-97757913D01*
X172820288Y-97757906D01*
X172734128Y-97642812D01*
X172734125Y-97642809D01*
X172676376Y-97599578D01*
X172634505Y-97543645D01*
X172629521Y-97473953D01*
X172663007Y-97412630D01*
X172676370Y-97401049D01*
X172734484Y-97357546D01*
X172820734Y-97242331D01*
X172871029Y-97107483D01*
X172877438Y-97047873D01*
X172877437Y-95952128D01*
X172871029Y-95892517D01*
X172820822Y-95757906D01*
X172820735Y-95757671D01*
X172820731Y-95757664D01*
X172769061Y-95688643D01*
X172734484Y-95642454D01*
X172676792Y-95599265D01*
X172634922Y-95543333D01*
X172629938Y-95473641D01*
X172663423Y-95412318D01*
X172676792Y-95400734D01*
X172734484Y-95357546D01*
X172820734Y-95242331D01*
X172871029Y-95107483D01*
X172877438Y-95047873D01*
X172877437Y-93952128D01*
X172871029Y-93892517D01*
X172820822Y-93757906D01*
X172820735Y-93757671D01*
X172820731Y-93757664D01*
X172734752Y-93642812D01*
X172734484Y-93642454D01*
X172676792Y-93599265D01*
X172634922Y-93543333D01*
X172629938Y-93473641D01*
X172663423Y-93412318D01*
X172676792Y-93400734D01*
X172734484Y-93357546D01*
X172820734Y-93242331D01*
X172871029Y-93107483D01*
X172877438Y-93047873D01*
X172877437Y-91952128D01*
X172871029Y-91892517D01*
X172866259Y-91879729D01*
X172820735Y-91757671D01*
X172820731Y-91757664D01*
X172734485Y-91642456D01*
X172734486Y-91642456D01*
X172734484Y-91642454D01*
X172676792Y-91599265D01*
X172634922Y-91543333D01*
X172629938Y-91473641D01*
X172663423Y-91412318D01*
X172676792Y-91400734D01*
X172734484Y-91357546D01*
X172820734Y-91242331D01*
X172866252Y-91120291D01*
X174696438Y-91120291D01*
X174696438Y-91146624D01*
X174696438Y-91879709D01*
X174696438Y-91879727D01*
X174696439Y-91879729D01*
X174736182Y-92638070D01*
X174736182Y-92638078D01*
X174815563Y-93393350D01*
X174934360Y-94143400D01*
X174934368Y-94143444D01*
X175092250Y-94886222D01*
X175288806Y-95619778D01*
X175288806Y-95619779D01*
X175396802Y-95952155D01*
X175523479Y-96342026D01*
X175795630Y-97051003D01*
X176104513Y-97744766D01*
X176104517Y-97744773D01*
X176104523Y-97744787D01*
X176449285Y-98421419D01*
X176828985Y-99079079D01*
X177242593Y-99715981D01*
X177242595Y-99715984D01*
X177688966Y-100330362D01*
X177688968Y-100330364D01*
X178166887Y-100920545D01*
X178166894Y-100920553D01*
X178675019Y-101484884D01*
X178675047Y-101484913D01*
X179212024Y-102021890D01*
X179212053Y-102021918D01*
X179420799Y-102209873D01*
X179776388Y-102530047D01*
X179776392Y-102530050D01*
X180366573Y-103007969D01*
X180366575Y-103007971D01*
X180980953Y-103454342D01*
X180980956Y-103454344D01*
X181617858Y-103867952D01*
X181968060Y-104070141D01*
X182275525Y-104247656D01*
X182731585Y-104480030D01*
X182946896Y-104589737D01*
X182952172Y-104592425D01*
X183645935Y-104901308D01*
X184354912Y-105173459D01*
X184907326Y-105352949D01*
X185077158Y-105408131D01*
X185077162Y-105408132D01*
X185810703Y-105604684D01*
X185810706Y-105604684D01*
X185810715Y-105604687D01*
X186553493Y-105762569D01*
X186553526Y-105762576D01*
X187207780Y-105866199D01*
X187303587Y-105881374D01*
X187303589Y-105881374D01*
X187303594Y-105881375D01*
X188058852Y-105960755D01*
X188817229Y-106000500D01*
X188817248Y-106000500D01*
X189576628Y-106000500D01*
X189576647Y-106000500D01*
X190335024Y-105960755D01*
X191090282Y-105881375D01*
X191840350Y-105762576D01*
X192178831Y-105690629D01*
X192583160Y-105604687D01*
X192583164Y-105604685D01*
X192583173Y-105604684D01*
X193316714Y-105408132D01*
X194038964Y-105173459D01*
X194747941Y-104901308D01*
X195441704Y-104592425D01*
X196118351Y-104247656D01*
X196229273Y-104183615D01*
X202744500Y-104183615D01*
X202744500Y-104336384D01*
X202774300Y-104486197D01*
X202774302Y-104486205D01*
X202832759Y-104627334D01*
X202832764Y-104627343D01*
X202917629Y-104754351D01*
X202917632Y-104754355D01*
X203025644Y-104862367D01*
X203025648Y-104862370D01*
X203152656Y-104947235D01*
X203152662Y-104947238D01*
X203152663Y-104947239D01*
X203293795Y-105005698D01*
X203393342Y-105025499D01*
X203443615Y-105035499D01*
X203443619Y-105035500D01*
X203443620Y-105035500D01*
X203596381Y-105035500D01*
X203596382Y-105035499D01*
X203746205Y-105005698D01*
X203887337Y-104947239D01*
X203901110Y-104938036D01*
X203967784Y-104917158D01*
X204035165Y-104935641D01*
X204038848Y-104938008D01*
X204052663Y-104947239D01*
X204193795Y-105005698D01*
X204293342Y-105025499D01*
X204343615Y-105035499D01*
X204343619Y-105035500D01*
X204343620Y-105035500D01*
X204496381Y-105035500D01*
X204496382Y-105035499D01*
X204646205Y-105005698D01*
X204787337Y-104947239D01*
X204914352Y-104862370D01*
X205022370Y-104754352D01*
X205107239Y-104627337D01*
X205165698Y-104486205D01*
X205195500Y-104336380D01*
X205195500Y-104183620D01*
X205165698Y-104033795D01*
X205109799Y-103898844D01*
X205107240Y-103892665D01*
X205107235Y-103892656D01*
X205047968Y-103803957D01*
X205022370Y-103765648D01*
X205022367Y-103765644D01*
X204997876Y-103741153D01*
X209249500Y-103741153D01*
X209249500Y-103898846D01*
X209280261Y-104053489D01*
X209280264Y-104053501D01*
X209340602Y-104199172D01*
X209340609Y-104199185D01*
X209428210Y-104330288D01*
X209428213Y-104330292D01*
X209539707Y-104441786D01*
X209539711Y-104441789D01*
X209670814Y-104529390D01*
X209670827Y-104529397D01*
X209816498Y-104589735D01*
X209816503Y-104589737D01*
X209955242Y-104617334D01*
X209971153Y-104620499D01*
X209971156Y-104620500D01*
X209971158Y-104620500D01*
X210128844Y-104620500D01*
X210128845Y-104620499D01*
X210283497Y-104589737D01*
X210429179Y-104529394D01*
X210560289Y-104441789D01*
X210671789Y-104330289D01*
X210759394Y-104199179D01*
X210819737Y-104053497D01*
X210850500Y-103898842D01*
X210850500Y-103741158D01*
X210850500Y-103741155D01*
X210850499Y-103741153D01*
X210839220Y-103684450D01*
X210819737Y-103586503D01*
X210818856Y-103584377D01*
X210759397Y-103440827D01*
X210759390Y-103440814D01*
X210671789Y-103309711D01*
X210671786Y-103309707D01*
X210560292Y-103198213D01*
X210560288Y-103198210D01*
X210429185Y-103110609D01*
X210429172Y-103110602D01*
X210283501Y-103050264D01*
X210283489Y-103050261D01*
X210128845Y-103019500D01*
X210128842Y-103019500D01*
X209971158Y-103019500D01*
X209971155Y-103019500D01*
X209816510Y-103050261D01*
X209816498Y-103050264D01*
X209670827Y-103110602D01*
X209670814Y-103110609D01*
X209539711Y-103198210D01*
X209539707Y-103198213D01*
X209428213Y-103309707D01*
X209428210Y-103309711D01*
X209340609Y-103440814D01*
X209340602Y-103440827D01*
X209280264Y-103586498D01*
X209280261Y-103586510D01*
X209249500Y-103741153D01*
X204997876Y-103741153D01*
X204914355Y-103657632D01*
X204914351Y-103657629D01*
X204787343Y-103572764D01*
X204787334Y-103572759D01*
X204646205Y-103514302D01*
X204646197Y-103514300D01*
X204496384Y-103484500D01*
X204496380Y-103484500D01*
X204343620Y-103484500D01*
X204343615Y-103484500D01*
X204193802Y-103514300D01*
X204193794Y-103514302D01*
X204052661Y-103572761D01*
X204038886Y-103581965D01*
X203972208Y-103602840D01*
X203904829Y-103584353D01*
X203901114Y-103581965D01*
X203887338Y-103572761D01*
X203887339Y-103572761D01*
X203746205Y-103514302D01*
X203746197Y-103514300D01*
X203596384Y-103484500D01*
X203596380Y-103484500D01*
X203443620Y-103484500D01*
X203443615Y-103484500D01*
X203293802Y-103514300D01*
X203293794Y-103514302D01*
X203152665Y-103572759D01*
X203152656Y-103572764D01*
X203025648Y-103657629D01*
X203025644Y-103657632D01*
X202917632Y-103765644D01*
X202917629Y-103765648D01*
X202832764Y-103892656D01*
X202832759Y-103892665D01*
X202774302Y-104033794D01*
X202774300Y-104033802D01*
X202744500Y-104183615D01*
X196229273Y-104183615D01*
X196256890Y-104167670D01*
X196425817Y-104070141D01*
X196733213Y-103892665D01*
X196776026Y-103867947D01*
X197412927Y-103454339D01*
X197768303Y-103196142D01*
X198027300Y-103007971D01*
X198027302Y-103007969D01*
X198027300Y-103007969D01*
X198027309Y-103007964D01*
X198617488Y-102530047D01*
X199181845Y-102021897D01*
X199718835Y-101484907D01*
X200226985Y-100920550D01*
X200704902Y-100330371D01*
X200844425Y-100138335D01*
X200908070Y-100050734D01*
X201151277Y-99715989D01*
X201356006Y-99400734D01*
X201388889Y-99350098D01*
X203814439Y-99350098D01*
X203814439Y-99507791D01*
X203845200Y-99662434D01*
X203845203Y-99662446D01*
X203905541Y-99808117D01*
X203905548Y-99808130D01*
X203993149Y-99939233D01*
X203993152Y-99939237D01*
X204104646Y-100050731D01*
X204104650Y-100050734D01*
X204235753Y-100138335D01*
X204235766Y-100138342D01*
X204381437Y-100198680D01*
X204381442Y-100198682D01*
X204536092Y-100229444D01*
X204536095Y-100229445D01*
X204536097Y-100229445D01*
X204693783Y-100229445D01*
X204693784Y-100229444D01*
X204848436Y-100198682D01*
X204994118Y-100138339D01*
X205125228Y-100050734D01*
X205236728Y-99939234D01*
X205291398Y-99857413D01*
X205345008Y-99812611D01*
X205414333Y-99803903D01*
X205477361Y-99834057D01*
X205514080Y-99893499D01*
X205517789Y-99939554D01*
X205516438Y-99952117D01*
X205516438Y-101047870D01*
X205516439Y-101047876D01*
X205522846Y-101107483D01*
X205573140Y-101242328D01*
X205573144Y-101242335D01*
X205659390Y-101357544D01*
X205659393Y-101357547D01*
X205774602Y-101443793D01*
X205774609Y-101443797D01*
X205909455Y-101494091D01*
X205909454Y-101494091D01*
X205916382Y-101494835D01*
X205969065Y-101500500D01*
X208644810Y-101500499D01*
X208704421Y-101494091D01*
X208839269Y-101443796D01*
X208954484Y-101357546D01*
X209040734Y-101242331D01*
X209091029Y-101107483D01*
X209097438Y-101047873D01*
X209097437Y-99952128D01*
X209091029Y-99892517D01*
X209077937Y-99857416D01*
X209040735Y-99757671D01*
X209040731Y-99757664D01*
X208969441Y-99662434D01*
X208954484Y-99642454D01*
X208896792Y-99599265D01*
X208854922Y-99543333D01*
X208849938Y-99473641D01*
X208883423Y-99412318D01*
X208896792Y-99400734D01*
X208954484Y-99357546D01*
X209040734Y-99242331D01*
X209091029Y-99107483D01*
X209097438Y-99047873D01*
X209097437Y-97952135D01*
X209686438Y-97952135D01*
X209686438Y-99047870D01*
X209686439Y-99047876D01*
X209692846Y-99107483D01*
X209743140Y-99242328D01*
X209743144Y-99242335D01*
X209829390Y-99357544D01*
X209829391Y-99357544D01*
X209829392Y-99357546D01*
X209858553Y-99379376D01*
X209887083Y-99400734D01*
X209928953Y-99456668D01*
X209933937Y-99526360D01*
X209900451Y-99587683D01*
X209887083Y-99599266D01*
X209829390Y-99642455D01*
X209743144Y-99757664D01*
X209743140Y-99757671D01*
X209692846Y-99892517D01*
X209686439Y-99952116D01*
X209686439Y-99952123D01*
X209686438Y-99952135D01*
X209686438Y-101047870D01*
X209686439Y-101047876D01*
X209692846Y-101107483D01*
X209743140Y-101242328D01*
X209743144Y-101242335D01*
X209829390Y-101357544D01*
X209829393Y-101357547D01*
X209944602Y-101443793D01*
X209944609Y-101443797D01*
X210079455Y-101494091D01*
X210079454Y-101494091D01*
X210086382Y-101494835D01*
X210139065Y-101500500D01*
X212814810Y-101500499D01*
X212874421Y-101494091D01*
X213009269Y-101443796D01*
X213124484Y-101357546D01*
X213210734Y-101242331D01*
X213261029Y-101107483D01*
X213267438Y-101047873D01*
X213267437Y-99952128D01*
X213261029Y-99892517D01*
X213247937Y-99857416D01*
X213210735Y-99757671D01*
X213210731Y-99757664D01*
X213139441Y-99662434D01*
X213124484Y-99642454D01*
X213066792Y-99599265D01*
X213024922Y-99543333D01*
X213019938Y-99473641D01*
X213053423Y-99412318D01*
X213066792Y-99400734D01*
X213124484Y-99357546D01*
X213210734Y-99242331D01*
X213261029Y-99107483D01*
X213267438Y-99047873D01*
X213267437Y-97952128D01*
X213261029Y-97892517D01*
X213210822Y-97757906D01*
X213210735Y-97757671D01*
X213210731Y-97757664D01*
X213124485Y-97642455D01*
X213124482Y-97642453D01*
X213106847Y-97629251D01*
X213066375Y-97598953D01*
X213024505Y-97543019D01*
X213019521Y-97473327D01*
X213053007Y-97412004D01*
X213066377Y-97400420D01*
X213124127Y-97357188D01*
X213124128Y-97357187D01*
X213210288Y-97242093D01*
X213210292Y-97242086D01*
X213260534Y-97107379D01*
X213260536Y-97107372D01*
X213266937Y-97047844D01*
X213266938Y-97047827D01*
X213266938Y-96750000D01*
X211721913Y-96750000D01*
X211757008Y-96714905D01*
X211803086Y-96635095D01*
X211826938Y-96546078D01*
X211826938Y-96453922D01*
X211803086Y-96364905D01*
X211757008Y-96285095D01*
X211721913Y-96250000D01*
X211726938Y-96250000D01*
X213266938Y-96250000D01*
X213266938Y-95952172D01*
X213266937Y-95952155D01*
X213260536Y-95892627D01*
X213260534Y-95892620D01*
X213210292Y-95757913D01*
X213210288Y-95757906D01*
X213124128Y-95642813D01*
X213065959Y-95599267D01*
X213024088Y-95543333D01*
X213019104Y-95473641D01*
X213052589Y-95412318D01*
X213065959Y-95400733D01*
X213124128Y-95357186D01*
X213210288Y-95242093D01*
X213210292Y-95242086D01*
X213260534Y-95107379D01*
X213260536Y-95107372D01*
X213266937Y-95047844D01*
X213266938Y-95047827D01*
X213266938Y-94750000D01*
X211726938Y-94750000D01*
X211726938Y-96250000D01*
X211721913Y-96250000D01*
X211691843Y-96219930D01*
X211612033Y-96173852D01*
X211523016Y-96150000D01*
X211430860Y-96150000D01*
X211341843Y-96173852D01*
X211262033Y-96219930D01*
X211196868Y-96285095D01*
X211150790Y-96364905D01*
X211126938Y-96453922D01*
X211126938Y-96546078D01*
X211150790Y-96635095D01*
X211196868Y-96714905D01*
X211231963Y-96750000D01*
X209686938Y-96750000D01*
X209686938Y-97047844D01*
X209693339Y-97107372D01*
X209693341Y-97107379D01*
X209743583Y-97242086D01*
X209743587Y-97242093D01*
X209829747Y-97357186D01*
X209887499Y-97400420D01*
X209929370Y-97456354D01*
X209934354Y-97526046D01*
X209900869Y-97587369D01*
X209887501Y-97598952D01*
X209829392Y-97642453D01*
X209829390Y-97642455D01*
X209743144Y-97757664D01*
X209743140Y-97757671D01*
X209692846Y-97892517D01*
X209686439Y-97952116D01*
X209686439Y-97952123D01*
X209686438Y-97952135D01*
X209097437Y-97952135D01*
X209097437Y-97952128D01*
X209091029Y-97892517D01*
X209040822Y-97757906D01*
X209040735Y-97757671D01*
X209040731Y-97757664D01*
X208954485Y-97642455D01*
X208954482Y-97642453D01*
X208936847Y-97629251D01*
X208896375Y-97598953D01*
X208854505Y-97543019D01*
X208849521Y-97473327D01*
X208883007Y-97412004D01*
X208896377Y-97400420D01*
X208954127Y-97357188D01*
X208954128Y-97357187D01*
X209040288Y-97242093D01*
X209040292Y-97242086D01*
X209090534Y-97107379D01*
X209090536Y-97107372D01*
X209096937Y-97047844D01*
X209096938Y-97047827D01*
X209096938Y-96750000D01*
X207551913Y-96750000D01*
X207587008Y-96714905D01*
X207633086Y-96635095D01*
X207656938Y-96546078D01*
X207656938Y-96453922D01*
X207633086Y-96364905D01*
X207587008Y-96285095D01*
X207551913Y-96250000D01*
X207556938Y-96250000D01*
X209096938Y-96250000D01*
X209096938Y-95952172D01*
X209096937Y-95952155D01*
X209090536Y-95892627D01*
X209090534Y-95892620D01*
X209040292Y-95757913D01*
X209040288Y-95757906D01*
X208954128Y-95642813D01*
X208895959Y-95599267D01*
X208854088Y-95543333D01*
X208849104Y-95473641D01*
X208882589Y-95412318D01*
X208895959Y-95400733D01*
X208954128Y-95357186D01*
X209040288Y-95242093D01*
X209040292Y-95242086D01*
X209090534Y-95107379D01*
X209090536Y-95107372D01*
X209096937Y-95047844D01*
X209686938Y-95047844D01*
X209693339Y-95107372D01*
X209693341Y-95107379D01*
X209743583Y-95242086D01*
X209743587Y-95242093D01*
X209829747Y-95357187D01*
X209887917Y-95400734D01*
X209929787Y-95456668D01*
X209934771Y-95526360D01*
X209901285Y-95587683D01*
X209887917Y-95599266D01*
X209829747Y-95642812D01*
X209743587Y-95757906D01*
X209743583Y-95757913D01*
X209693341Y-95892620D01*
X209693339Y-95892627D01*
X209686938Y-95952155D01*
X209686938Y-96250000D01*
X211226938Y-96250000D01*
X211226938Y-94750000D01*
X209686938Y-94750000D01*
X209686938Y-95047844D01*
X209096937Y-95047844D01*
X209096938Y-95047827D01*
X209096938Y-94750000D01*
X207556938Y-94750000D01*
X207556938Y-96250000D01*
X207551913Y-96250000D01*
X207521843Y-96219930D01*
X207442033Y-96173852D01*
X207353016Y-96150000D01*
X207260860Y-96150000D01*
X207171843Y-96173852D01*
X207092033Y-96219930D01*
X207026868Y-96285095D01*
X206980790Y-96364905D01*
X206956938Y-96453922D01*
X206956938Y-96546078D01*
X206980790Y-96635095D01*
X207026868Y-96714905D01*
X207061963Y-96750000D01*
X205516938Y-96750000D01*
X205516938Y-97047844D01*
X205523339Y-97107372D01*
X205523341Y-97107379D01*
X205573583Y-97242086D01*
X205573587Y-97242093D01*
X205659747Y-97357186D01*
X205717499Y-97400420D01*
X205759370Y-97456354D01*
X205764354Y-97526046D01*
X205730869Y-97587369D01*
X205717501Y-97598952D01*
X205659392Y-97642453D01*
X205659390Y-97642455D01*
X205573144Y-97757664D01*
X205573140Y-97757671D01*
X205522846Y-97892517D01*
X205516439Y-97952116D01*
X205516439Y-97952123D01*
X205516438Y-97952135D01*
X205516438Y-98928498D01*
X205496753Y-98995537D01*
X205443949Y-99041292D01*
X205374791Y-99051236D01*
X205311235Y-99022211D01*
X205289336Y-98997389D01*
X205236728Y-98918656D01*
X205236725Y-98918652D01*
X205125231Y-98807158D01*
X205125227Y-98807155D01*
X204994124Y-98719554D01*
X204994111Y-98719547D01*
X204848440Y-98659209D01*
X204848428Y-98659206D01*
X204693784Y-98628445D01*
X204693781Y-98628445D01*
X204536097Y-98628445D01*
X204536094Y-98628445D01*
X204381449Y-98659206D01*
X204381437Y-98659209D01*
X204235766Y-98719547D01*
X204235753Y-98719554D01*
X204104650Y-98807155D01*
X204104646Y-98807158D01*
X203993152Y-98918652D01*
X203993149Y-98918656D01*
X203905548Y-99049759D01*
X203905541Y-99049772D01*
X203845203Y-99195443D01*
X203845200Y-99195455D01*
X203814439Y-99350098D01*
X201388889Y-99350098D01*
X201436700Y-99276476D01*
X201521301Y-99146201D01*
X201564885Y-99079088D01*
X201944594Y-98421413D01*
X202289363Y-97744766D01*
X202598246Y-97051003D01*
X202870397Y-96342026D01*
X203105070Y-95619776D01*
X203258319Y-95047844D01*
X205516938Y-95047844D01*
X205523339Y-95107372D01*
X205523341Y-95107379D01*
X205573583Y-95242086D01*
X205573587Y-95242093D01*
X205659747Y-95357187D01*
X205717917Y-95400734D01*
X205759787Y-95456668D01*
X205764771Y-95526360D01*
X205731285Y-95587683D01*
X205717917Y-95599266D01*
X205659747Y-95642812D01*
X205573587Y-95757906D01*
X205573583Y-95757913D01*
X205523341Y-95892620D01*
X205523339Y-95892627D01*
X205516938Y-95952155D01*
X205516938Y-96250000D01*
X207056938Y-96250000D01*
X207056938Y-94750000D01*
X205516938Y-94750000D01*
X205516938Y-95047844D01*
X203258319Y-95047844D01*
X203301622Y-94886235D01*
X203355004Y-94635095D01*
X203436858Y-94250000D01*
X203459514Y-94143412D01*
X203578313Y-93393344D01*
X203657693Y-92638086D01*
X203697438Y-91879709D01*
X203697438Y-91120291D01*
X203657693Y-90361914D01*
X203578313Y-89606656D01*
X203459514Y-88856588D01*
X203373925Y-88453922D01*
X203301625Y-88113777D01*
X203258318Y-87952155D01*
X203105070Y-87380224D01*
X203097701Y-87357546D01*
X203010511Y-87089201D01*
X203008516Y-87019360D01*
X203044596Y-86959527D01*
X203107297Y-86928699D01*
X203176711Y-86936664D01*
X203216123Y-86963202D01*
X203244707Y-86991786D01*
X203244711Y-86991789D01*
X203375814Y-87079390D01*
X203375827Y-87079397D01*
X203443634Y-87107483D01*
X203521503Y-87139737D01*
X203676153Y-87170499D01*
X203676156Y-87170500D01*
X203676158Y-87170500D01*
X203833844Y-87170500D01*
X203833845Y-87170499D01*
X203988497Y-87139737D01*
X204134179Y-87079394D01*
X204265289Y-86991789D01*
X204376789Y-86880289D01*
X204464394Y-86749179D01*
X204524737Y-86603497D01*
X204555500Y-86448842D01*
X204555500Y-86291158D01*
X204555500Y-86291155D01*
X204555499Y-86291153D01*
X204524738Y-86136510D01*
X204524738Y-86136508D01*
X204524737Y-86136503D01*
X204524735Y-86136498D01*
X204464397Y-85990827D01*
X204464390Y-85990814D01*
X204376789Y-85859711D01*
X204376786Y-85859707D01*
X204265292Y-85748213D01*
X204265288Y-85748210D01*
X204134185Y-85660609D01*
X204134172Y-85660602D01*
X203988501Y-85600264D01*
X203988489Y-85600261D01*
X203833845Y-85569500D01*
X203833842Y-85569500D01*
X203676158Y-85569500D01*
X203676155Y-85569500D01*
X203521510Y-85600261D01*
X203521498Y-85600264D01*
X203375827Y-85660602D01*
X203375814Y-85660609D01*
X203244711Y-85748210D01*
X203244707Y-85748213D01*
X203133213Y-85859707D01*
X203133210Y-85859711D01*
X203045609Y-85990814D01*
X203045602Y-85990827D01*
X202985264Y-86136498D01*
X202985261Y-86136508D01*
X202961408Y-86256423D01*
X202929023Y-86318334D01*
X202868307Y-86352908D01*
X202798537Y-86349167D01*
X202741865Y-86308301D01*
X202724028Y-86276672D01*
X202598246Y-85948997D01*
X202289363Y-85255234D01*
X201944594Y-84578587D01*
X201944590Y-84578580D01*
X201564890Y-83920920D01*
X201151282Y-83284018D01*
X201151280Y-83284015D01*
X200704909Y-82669637D01*
X200704907Y-82669635D01*
X200226988Y-82079454D01*
X200226985Y-82079450D01*
X200112350Y-81952135D01*
X205516438Y-81952135D01*
X205516438Y-83047870D01*
X205516439Y-83047876D01*
X205522846Y-83107483D01*
X205573140Y-83242328D01*
X205573144Y-83242335D01*
X205659390Y-83357544D01*
X205659391Y-83357544D01*
X205659392Y-83357546D01*
X205688553Y-83379376D01*
X205717083Y-83400734D01*
X205758953Y-83456668D01*
X205763937Y-83526360D01*
X205730451Y-83587683D01*
X205717083Y-83599266D01*
X205659390Y-83642455D01*
X205573144Y-83757664D01*
X205573140Y-83757671D01*
X205522846Y-83892517D01*
X205519793Y-83920920D01*
X205516439Y-83952123D01*
X205516438Y-83952135D01*
X205516438Y-85047870D01*
X205516439Y-85047876D01*
X205522846Y-85107483D01*
X205573140Y-85242328D01*
X205573144Y-85242335D01*
X205659390Y-85357544D01*
X205659391Y-85357544D01*
X205659392Y-85357546D01*
X205688553Y-85379376D01*
X205717083Y-85400734D01*
X205758953Y-85456668D01*
X205763937Y-85526360D01*
X205730451Y-85587683D01*
X205717083Y-85599266D01*
X205659390Y-85642455D01*
X205573144Y-85757664D01*
X205573140Y-85757671D01*
X205522846Y-85892517D01*
X205516439Y-85952116D01*
X205516439Y-85952123D01*
X205516438Y-85952135D01*
X205516438Y-87047870D01*
X205516439Y-87047876D01*
X205522846Y-87107483D01*
X205573140Y-87242328D01*
X205573144Y-87242335D01*
X205659390Y-87357544D01*
X205659391Y-87357544D01*
X205659392Y-87357546D01*
X205688553Y-87379376D01*
X205717083Y-87400734D01*
X205758953Y-87456668D01*
X205763937Y-87526360D01*
X205730451Y-87587683D01*
X205717083Y-87599266D01*
X205659390Y-87642455D01*
X205573144Y-87757664D01*
X205573140Y-87757671D01*
X205522846Y-87892517D01*
X205516439Y-87952116D01*
X205516439Y-87952123D01*
X205516438Y-87952135D01*
X205516438Y-89047870D01*
X205516439Y-89047876D01*
X205522846Y-89107483D01*
X205573140Y-89242328D01*
X205573144Y-89242335D01*
X205659390Y-89357544D01*
X205659391Y-89357544D01*
X205659392Y-89357546D01*
X205688553Y-89379376D01*
X205717083Y-89400734D01*
X205758953Y-89456668D01*
X205763937Y-89526360D01*
X205730451Y-89587683D01*
X205717083Y-89599266D01*
X205659390Y-89642455D01*
X205573144Y-89757664D01*
X205573140Y-89757671D01*
X205522846Y-89892517D01*
X205516439Y-89952116D01*
X205516439Y-89952123D01*
X205516438Y-89952135D01*
X205516438Y-91047870D01*
X205516439Y-91047876D01*
X205522846Y-91107483D01*
X205573140Y-91242328D01*
X205573144Y-91242335D01*
X205659390Y-91357544D01*
X205659391Y-91357544D01*
X205659392Y-91357546D01*
X205688553Y-91379376D01*
X205717083Y-91400734D01*
X205758953Y-91456668D01*
X205763937Y-91526360D01*
X205730451Y-91587683D01*
X205717083Y-91599266D01*
X205659390Y-91642455D01*
X205573144Y-91757664D01*
X205573140Y-91757671D01*
X205522846Y-91892517D01*
X205516439Y-91952116D01*
X205516439Y-91952123D01*
X205516438Y-91952135D01*
X205516438Y-93047870D01*
X205516439Y-93047876D01*
X205522846Y-93107483D01*
X205573140Y-93242328D01*
X205573144Y-93242335D01*
X205659390Y-93357544D01*
X205659391Y-93357544D01*
X205659392Y-93357546D01*
X205694665Y-93383951D01*
X205717500Y-93401046D01*
X205759370Y-93456980D01*
X205764354Y-93526672D01*
X205730868Y-93587994D01*
X205717500Y-93599578D01*
X205659747Y-93642812D01*
X205573587Y-93757906D01*
X205573583Y-93757913D01*
X205523341Y-93892620D01*
X205523339Y-93892627D01*
X205516938Y-93952155D01*
X205516938Y-94250000D01*
X207061963Y-94250000D01*
X207026868Y-94285095D01*
X206980790Y-94364905D01*
X206956938Y-94453922D01*
X206956938Y-94546078D01*
X206980790Y-94635095D01*
X207026868Y-94714905D01*
X207092033Y-94780070D01*
X207171843Y-94826148D01*
X207260860Y-94850000D01*
X207353016Y-94850000D01*
X207442033Y-94826148D01*
X207521843Y-94780070D01*
X207587008Y-94714905D01*
X207633086Y-94635095D01*
X207656938Y-94546078D01*
X207656938Y-94453922D01*
X207633086Y-94364905D01*
X207587008Y-94285095D01*
X207551913Y-94250000D01*
X209096938Y-94250000D01*
X209096938Y-93952172D01*
X209096937Y-93952155D01*
X209090536Y-93892627D01*
X209090534Y-93892620D01*
X209040292Y-93757913D01*
X209040288Y-93757906D01*
X208954128Y-93642812D01*
X208954125Y-93642809D01*
X208896376Y-93599578D01*
X208854505Y-93543645D01*
X208849521Y-93473953D01*
X208883007Y-93412630D01*
X208896370Y-93401049D01*
X208954484Y-93357546D01*
X209040734Y-93242331D01*
X209091029Y-93107483D01*
X209097438Y-93047873D01*
X209097437Y-91952128D01*
X209091029Y-91892517D01*
X209086259Y-91879729D01*
X209040735Y-91757671D01*
X209040731Y-91757664D01*
X208954485Y-91642456D01*
X208954486Y-91642456D01*
X208954484Y-91642454D01*
X208896792Y-91599265D01*
X208854922Y-91543333D01*
X208849938Y-91473641D01*
X208883423Y-91412318D01*
X208896792Y-91400734D01*
X208954484Y-91357546D01*
X209040734Y-91242331D01*
X209091029Y-91107483D01*
X209097438Y-91047873D01*
X209097437Y-89952128D01*
X209091029Y-89892517D01*
X209040822Y-89757906D01*
X209040735Y-89757671D01*
X209040731Y-89757664D01*
X208989061Y-89688643D01*
X208954484Y-89642454D01*
X208896792Y-89599265D01*
X208854922Y-89543333D01*
X208849938Y-89473641D01*
X208883423Y-89412318D01*
X208896792Y-89400734D01*
X208954484Y-89357546D01*
X209040734Y-89242331D01*
X209091029Y-89107483D01*
X209097438Y-89047873D01*
X209097437Y-87952128D01*
X209091029Y-87892517D01*
X209040822Y-87757906D01*
X209040735Y-87757671D01*
X209040731Y-87757664D01*
X208954752Y-87642812D01*
X208954484Y-87642454D01*
X208896792Y-87599265D01*
X208854922Y-87543333D01*
X208849938Y-87473641D01*
X208883423Y-87412318D01*
X208896792Y-87400734D01*
X208954484Y-87357546D01*
X209040734Y-87242331D01*
X209091029Y-87107483D01*
X209097438Y-87047873D01*
X209097437Y-85952128D01*
X209091029Y-85892517D01*
X209078793Y-85859711D01*
X209040735Y-85757671D01*
X209040731Y-85757664D01*
X208968075Y-85660609D01*
X208954484Y-85642454D01*
X208896792Y-85599265D01*
X208854922Y-85543333D01*
X208849938Y-85473641D01*
X208883423Y-85412318D01*
X208896792Y-85400734D01*
X208954484Y-85357546D01*
X209040734Y-85242331D01*
X209091029Y-85107483D01*
X209097438Y-85047873D01*
X209097437Y-83952128D01*
X209091029Y-83892517D01*
X209040734Y-83757669D01*
X209040733Y-83757668D01*
X209040731Y-83757664D01*
X208954485Y-83642456D01*
X208954486Y-83642456D01*
X208954484Y-83642454D01*
X208896792Y-83599265D01*
X208854922Y-83543333D01*
X208849938Y-83473641D01*
X208883423Y-83412318D01*
X208896792Y-83400734D01*
X208954484Y-83357546D01*
X209040734Y-83242331D01*
X209091029Y-83107483D01*
X209097438Y-83047873D01*
X209097437Y-81952135D01*
X209686438Y-81952135D01*
X209686438Y-83047870D01*
X209686439Y-83047876D01*
X209692846Y-83107483D01*
X209743140Y-83242328D01*
X209743144Y-83242335D01*
X209829390Y-83357544D01*
X209829391Y-83357544D01*
X209829392Y-83357546D01*
X209858553Y-83379376D01*
X209887083Y-83400734D01*
X209928953Y-83456668D01*
X209933937Y-83526360D01*
X209900451Y-83587683D01*
X209887083Y-83599266D01*
X209829390Y-83642455D01*
X209743144Y-83757664D01*
X209743140Y-83757671D01*
X209692846Y-83892517D01*
X209689793Y-83920920D01*
X209686439Y-83952123D01*
X209686438Y-83952135D01*
X209686438Y-85047870D01*
X209686439Y-85047876D01*
X209692846Y-85107483D01*
X209743140Y-85242328D01*
X209743144Y-85242335D01*
X209829390Y-85357544D01*
X209829391Y-85357544D01*
X209829392Y-85357546D01*
X209858553Y-85379376D01*
X209887083Y-85400734D01*
X209928953Y-85456668D01*
X209933937Y-85526360D01*
X209900451Y-85587683D01*
X209887083Y-85599266D01*
X209829390Y-85642455D01*
X209743144Y-85757664D01*
X209743140Y-85757671D01*
X209692846Y-85892517D01*
X209686439Y-85952116D01*
X209686439Y-85952123D01*
X209686438Y-85952135D01*
X209686438Y-87047870D01*
X209686439Y-87047876D01*
X209692846Y-87107483D01*
X209743140Y-87242328D01*
X209743144Y-87242335D01*
X209829390Y-87357544D01*
X209829391Y-87357544D01*
X209829392Y-87357546D01*
X209858553Y-87379376D01*
X209887083Y-87400734D01*
X209928953Y-87456668D01*
X209933937Y-87526360D01*
X209900451Y-87587683D01*
X209887083Y-87599266D01*
X209829390Y-87642455D01*
X209743144Y-87757664D01*
X209743140Y-87757671D01*
X209692846Y-87892517D01*
X209686439Y-87952116D01*
X209686439Y-87952123D01*
X209686438Y-87952135D01*
X209686438Y-89047870D01*
X209686439Y-89047876D01*
X209692846Y-89107483D01*
X209743140Y-89242328D01*
X209743144Y-89242335D01*
X209829390Y-89357544D01*
X209829391Y-89357544D01*
X209829392Y-89357546D01*
X209858553Y-89379376D01*
X209887083Y-89400734D01*
X209928953Y-89456668D01*
X209933937Y-89526360D01*
X209900451Y-89587683D01*
X209887083Y-89599266D01*
X209829390Y-89642455D01*
X209743144Y-89757664D01*
X209743140Y-89757671D01*
X209692846Y-89892517D01*
X209686439Y-89952116D01*
X209686439Y-89952123D01*
X209686438Y-89952135D01*
X209686438Y-91047870D01*
X209686439Y-91047876D01*
X209692846Y-91107483D01*
X209743140Y-91242328D01*
X209743144Y-91242335D01*
X209829390Y-91357544D01*
X209829391Y-91357544D01*
X209829392Y-91357546D01*
X209858553Y-91379376D01*
X209887083Y-91400734D01*
X209928953Y-91456668D01*
X209933937Y-91526360D01*
X209900451Y-91587683D01*
X209887083Y-91599266D01*
X209829390Y-91642455D01*
X209743144Y-91757664D01*
X209743140Y-91757671D01*
X209692846Y-91892517D01*
X209686439Y-91952116D01*
X209686439Y-91952123D01*
X209686438Y-91952135D01*
X209686438Y-93047870D01*
X209686439Y-93047876D01*
X209692846Y-93107483D01*
X209743140Y-93242328D01*
X209743144Y-93242335D01*
X209829390Y-93357544D01*
X209829391Y-93357544D01*
X209829392Y-93357546D01*
X209864665Y-93383951D01*
X209887500Y-93401046D01*
X209929370Y-93456980D01*
X209934354Y-93526672D01*
X209900868Y-93587994D01*
X209887500Y-93599578D01*
X209829747Y-93642812D01*
X209743587Y-93757906D01*
X209743583Y-93757913D01*
X209693341Y-93892620D01*
X209693339Y-93892627D01*
X209686938Y-93952155D01*
X209686938Y-94250000D01*
X211231963Y-94250000D01*
X211196868Y-94285095D01*
X211150790Y-94364905D01*
X211126938Y-94453922D01*
X211126938Y-94546078D01*
X211150790Y-94635095D01*
X211196868Y-94714905D01*
X211262033Y-94780070D01*
X211341843Y-94826148D01*
X211430860Y-94850000D01*
X211523016Y-94850000D01*
X211612033Y-94826148D01*
X211691843Y-94780070D01*
X211757008Y-94714905D01*
X211803086Y-94635095D01*
X211826938Y-94546078D01*
X211826938Y-94453922D01*
X211803086Y-94364905D01*
X211757008Y-94285095D01*
X211721913Y-94250000D01*
X213266938Y-94250000D01*
X213266938Y-93952172D01*
X213266937Y-93952155D01*
X213260536Y-93892627D01*
X213260534Y-93892620D01*
X213210292Y-93757913D01*
X213210288Y-93757906D01*
X213124128Y-93642812D01*
X213124125Y-93642809D01*
X213066376Y-93599578D01*
X213024505Y-93543645D01*
X213019521Y-93473953D01*
X213053007Y-93412630D01*
X213066370Y-93401049D01*
X213124484Y-93357546D01*
X213210734Y-93242331D01*
X213261029Y-93107483D01*
X213267438Y-93047873D01*
X213267437Y-91952128D01*
X213261029Y-91892517D01*
X213256259Y-91879729D01*
X213210735Y-91757671D01*
X213210731Y-91757664D01*
X213124485Y-91642456D01*
X213124486Y-91642456D01*
X213124484Y-91642454D01*
X213066792Y-91599265D01*
X213024922Y-91543333D01*
X213019938Y-91473641D01*
X213053423Y-91412318D01*
X213066792Y-91400734D01*
X213124484Y-91357546D01*
X213210734Y-91242331D01*
X213261029Y-91107483D01*
X213267438Y-91047873D01*
X213267437Y-89952128D01*
X213261029Y-89892517D01*
X213210822Y-89757906D01*
X213210735Y-89757671D01*
X213210731Y-89757664D01*
X213159061Y-89688643D01*
X213124484Y-89642454D01*
X213066792Y-89599265D01*
X213024922Y-89543333D01*
X213019938Y-89473641D01*
X213053423Y-89412318D01*
X213066792Y-89400734D01*
X213124484Y-89357546D01*
X213210734Y-89242331D01*
X213261029Y-89107483D01*
X213267438Y-89047873D01*
X213267437Y-87952128D01*
X213261029Y-87892517D01*
X213210822Y-87757906D01*
X213210735Y-87757671D01*
X213210731Y-87757664D01*
X213124752Y-87642812D01*
X213124484Y-87642454D01*
X213066792Y-87599265D01*
X213024922Y-87543333D01*
X213019938Y-87473641D01*
X213053423Y-87412318D01*
X213066792Y-87400734D01*
X213124484Y-87357546D01*
X213210734Y-87242331D01*
X213261029Y-87107483D01*
X213267438Y-87047873D01*
X213267437Y-85952128D01*
X213261029Y-85892517D01*
X213248793Y-85859711D01*
X213210735Y-85757671D01*
X213210731Y-85757664D01*
X213138075Y-85660609D01*
X213124484Y-85642454D01*
X213066792Y-85599265D01*
X213024922Y-85543333D01*
X213019938Y-85473641D01*
X213053423Y-85412318D01*
X213066792Y-85400734D01*
X213124484Y-85357546D01*
X213210734Y-85242331D01*
X213261029Y-85107483D01*
X213267438Y-85047873D01*
X213267437Y-83952128D01*
X213261029Y-83892517D01*
X213210734Y-83757669D01*
X213210733Y-83757668D01*
X213210731Y-83757664D01*
X213124485Y-83642456D01*
X213124486Y-83642456D01*
X213124484Y-83642454D01*
X213066792Y-83599265D01*
X213024922Y-83543333D01*
X213019938Y-83473641D01*
X213053423Y-83412318D01*
X213066792Y-83400734D01*
X213124484Y-83357546D01*
X213210734Y-83242331D01*
X213261029Y-83107483D01*
X213267438Y-83047873D01*
X213267437Y-81952128D01*
X213261029Y-81892517D01*
X213244633Y-81848558D01*
X213210735Y-81757671D01*
X213210731Y-81757664D01*
X213124485Y-81642455D01*
X213124482Y-81642452D01*
X213009273Y-81556206D01*
X213009266Y-81556202D01*
X212874420Y-81505908D01*
X212874421Y-81505908D01*
X212814821Y-81499501D01*
X212814819Y-81499500D01*
X212814811Y-81499500D01*
X212814802Y-81499500D01*
X210139067Y-81499500D01*
X210139061Y-81499501D01*
X210079454Y-81505908D01*
X209944609Y-81556202D01*
X209944602Y-81556206D01*
X209829393Y-81642452D01*
X209829390Y-81642455D01*
X209743144Y-81757664D01*
X209743140Y-81757671D01*
X209692846Y-81892517D01*
X209686439Y-81952116D01*
X209686439Y-81952123D01*
X209686438Y-81952135D01*
X209097437Y-81952135D01*
X209097437Y-81952128D01*
X209091029Y-81892517D01*
X209074633Y-81848558D01*
X209040735Y-81757671D01*
X209040731Y-81757664D01*
X208954485Y-81642455D01*
X208954482Y-81642452D01*
X208839273Y-81556206D01*
X208839266Y-81556202D01*
X208704420Y-81505908D01*
X208704421Y-81505908D01*
X208644821Y-81499501D01*
X208644819Y-81499500D01*
X208644811Y-81499500D01*
X208644802Y-81499500D01*
X205969067Y-81499500D01*
X205969061Y-81499501D01*
X205909454Y-81505908D01*
X205774609Y-81556202D01*
X205774602Y-81556206D01*
X205659393Y-81642452D01*
X205659390Y-81642455D01*
X205573144Y-81757664D01*
X205573140Y-81757671D01*
X205522846Y-81892517D01*
X205516439Y-81952116D01*
X205516439Y-81952123D01*
X205516438Y-81952135D01*
X200112350Y-81952135D01*
X199999847Y-81827188D01*
X199718856Y-81515115D01*
X199718828Y-81515086D01*
X199181851Y-80978109D01*
X199181822Y-80978081D01*
X199171971Y-80969211D01*
X202751442Y-80969211D01*
X202751442Y-81126904D01*
X202782203Y-81281547D01*
X202782206Y-81281559D01*
X202842544Y-81427230D01*
X202842551Y-81427243D01*
X202930152Y-81558346D01*
X202930155Y-81558350D01*
X203041649Y-81669844D01*
X203041653Y-81669847D01*
X203172756Y-81757448D01*
X203172769Y-81757455D01*
X203318440Y-81817793D01*
X203318445Y-81817795D01*
X203473095Y-81848557D01*
X203473098Y-81848558D01*
X203473100Y-81848558D01*
X203630786Y-81848558D01*
X203738214Y-81827189D01*
X203738214Y-81827188D01*
X203785439Y-81817795D01*
X203898108Y-81771125D01*
X203931114Y-81757455D01*
X203931114Y-81757454D01*
X203931121Y-81757452D01*
X204062231Y-81669847D01*
X204173731Y-81558347D01*
X204261336Y-81427237D01*
X204321679Y-81281555D01*
X204352442Y-81126900D01*
X204352442Y-80969216D01*
X204352442Y-80969213D01*
X204352441Y-80969211D01*
X204321679Y-80814561D01*
X204311558Y-80790127D01*
X204261339Y-80668885D01*
X204261332Y-80668872D01*
X204173731Y-80537769D01*
X204173728Y-80537765D01*
X204062234Y-80426271D01*
X204062230Y-80426268D01*
X203931127Y-80338667D01*
X203931114Y-80338660D01*
X203785443Y-80278322D01*
X203785431Y-80278319D01*
X203630787Y-80247558D01*
X203630784Y-80247558D01*
X203473100Y-80247558D01*
X203473097Y-80247558D01*
X203318452Y-80278319D01*
X203318440Y-80278322D01*
X203172769Y-80338660D01*
X203172756Y-80338667D01*
X203041653Y-80426268D01*
X203041649Y-80426271D01*
X202930155Y-80537765D01*
X202930152Y-80537769D01*
X202842551Y-80668872D01*
X202842544Y-80668885D01*
X202782206Y-80814556D01*
X202782203Y-80814568D01*
X202751442Y-80969211D01*
X199171971Y-80969211D01*
X198617491Y-80469956D01*
X198617483Y-80469949D01*
X198605814Y-80460500D01*
X198455359Y-80338664D01*
X198027302Y-79992030D01*
X198027300Y-79992028D01*
X197412922Y-79545657D01*
X197412919Y-79545655D01*
X196776017Y-79132047D01*
X196118357Y-78752347D01*
X195441725Y-78407585D01*
X195441716Y-78407581D01*
X195441704Y-78407575D01*
X194747941Y-78098692D01*
X194038964Y-77826541D01*
X193853244Y-77766197D01*
X193316717Y-77591868D01*
X193254834Y-77575287D01*
X193195174Y-77538922D01*
X193164645Y-77476075D01*
X193172940Y-77406699D01*
X193199246Y-77367831D01*
X193211789Y-77355289D01*
X193299394Y-77224179D01*
X193359737Y-77078497D01*
X193390500Y-76923842D01*
X193390500Y-76766158D01*
X193390500Y-76766155D01*
X193390499Y-76766153D01*
X193370215Y-76664179D01*
X193359737Y-76611503D01*
X193346209Y-76578844D01*
X193299397Y-76465827D01*
X193299390Y-76465814D01*
X193211789Y-76334711D01*
X193211786Y-76334707D01*
X193100292Y-76223213D01*
X193100288Y-76223210D01*
X192969185Y-76135609D01*
X192969172Y-76135602D01*
X192823501Y-76075264D01*
X192823489Y-76075261D01*
X192668845Y-76044500D01*
X192668842Y-76044500D01*
X192511158Y-76044500D01*
X192511153Y-76044500D01*
X192356220Y-76075318D01*
X192286628Y-76069091D01*
X192231451Y-76026228D01*
X192208207Y-75960338D01*
X192224275Y-75892341D01*
X192226415Y-75888877D01*
X192227235Y-75887341D01*
X192227239Y-75887337D01*
X192285698Y-75746205D01*
X192315500Y-75596380D01*
X192315500Y-75443620D01*
X192285698Y-75293795D01*
X192227239Y-75152663D01*
X192227238Y-75152662D01*
X192227235Y-75152656D01*
X192142370Y-75025648D01*
X192142367Y-75025644D01*
X192034355Y-74917632D01*
X192034351Y-74917629D01*
X191907343Y-74832764D01*
X191907331Y-74832757D01*
X191899772Y-74829627D01*
X191899771Y-74829627D01*
X191766205Y-74774302D01*
X191766197Y-74774300D01*
X191616384Y-74744500D01*
X191616380Y-74744500D01*
X191463620Y-74744500D01*
X191463615Y-74744500D01*
X191313802Y-74774300D01*
X191313794Y-74774302D01*
X191172665Y-74832759D01*
X191172656Y-74832764D01*
X191045648Y-74917629D01*
X191045644Y-74917632D01*
X190937632Y-75025644D01*
X190937629Y-75025648D01*
X190852764Y-75152656D01*
X190852759Y-75152665D01*
X190794302Y-75293794D01*
X190794300Y-75293802D01*
X190764500Y-75443615D01*
X190764500Y-75596384D01*
X190794300Y-75746197D01*
X190794302Y-75746205D01*
X190852759Y-75887334D01*
X190852764Y-75887343D01*
X190937629Y-76014351D01*
X190937632Y-76014355D01*
X191045644Y-76122367D01*
X191045648Y-76122370D01*
X191172656Y-76207235D01*
X191172662Y-76207238D01*
X191172663Y-76207239D01*
X191313795Y-76265698D01*
X191463615Y-76295499D01*
X191463619Y-76295500D01*
X191463620Y-76295500D01*
X191616381Y-76295500D01*
X191616381Y-76295499D01*
X191749821Y-76268957D01*
X191758745Y-76267182D01*
X191828336Y-76273409D01*
X191883514Y-76316272D01*
X191906758Y-76382162D01*
X191890690Y-76450159D01*
X191886039Y-76457688D01*
X191880611Y-76465811D01*
X191880602Y-76465827D01*
X191820264Y-76611498D01*
X191820261Y-76611510D01*
X191789500Y-76766153D01*
X191789500Y-76923846D01*
X191817540Y-77064812D01*
X191811313Y-77134403D01*
X191768450Y-77189581D01*
X191702560Y-77212825D01*
X191676525Y-77211476D01*
X191090288Y-77118625D01*
X190556243Y-77062495D01*
X190335024Y-77039245D01*
X190335019Y-77039244D01*
X190335012Y-77039244D01*
X189576667Y-76999501D01*
X189576665Y-76999500D01*
X189576647Y-76999500D01*
X188817229Y-76999500D01*
X188817211Y-76999500D01*
X188817208Y-76999501D01*
X188058867Y-77039244D01*
X188058859Y-77039244D01*
X187303587Y-77118625D01*
X186553537Y-77237422D01*
X186553493Y-77237430D01*
X185810715Y-77395312D01*
X185077159Y-77591868D01*
X185077158Y-77591868D01*
X184354915Y-77826540D01*
X184354895Y-77826547D01*
X183645932Y-78098693D01*
X183523993Y-78152984D01*
X182952172Y-78407575D01*
X182952165Y-78407578D01*
X182952164Y-78407579D01*
X182952150Y-78407585D01*
X182275518Y-78752347D01*
X181617858Y-79132047D01*
X180980956Y-79545655D01*
X180980953Y-79545657D01*
X180366575Y-79992028D01*
X180366573Y-79992030D01*
X179776392Y-80469949D01*
X179776384Y-80469956D01*
X179212053Y-80978081D01*
X179212024Y-80978109D01*
X179041231Y-81148902D01*
X178979908Y-81182387D01*
X178910216Y-81177403D01*
X178854283Y-81135531D01*
X178829866Y-81070067D01*
X178844718Y-81001794D01*
X178850438Y-80992344D01*
X178907239Y-80907337D01*
X178965698Y-80766205D01*
X178995500Y-80616380D01*
X178995500Y-80463620D01*
X178994879Y-80460500D01*
X178991536Y-80443693D01*
X178997763Y-80374101D01*
X179040625Y-80318923D01*
X179106514Y-80295678D01*
X179113153Y-80295500D01*
X179226381Y-80295500D01*
X179226382Y-80295499D01*
X179376205Y-80265698D01*
X179517337Y-80207239D01*
X179644352Y-80122370D01*
X179752370Y-80014352D01*
X179837239Y-79887337D01*
X179895698Y-79746205D01*
X179925500Y-79596380D01*
X179925500Y-79443620D01*
X179895698Y-79293795D01*
X179837239Y-79152663D01*
X179837238Y-79152662D01*
X179837235Y-79152656D01*
X179752370Y-79025648D01*
X179752367Y-79025644D01*
X179644355Y-78917632D01*
X179644351Y-78917629D01*
X179517343Y-78832764D01*
X179517334Y-78832759D01*
X179376205Y-78774302D01*
X179376197Y-78774300D01*
X179226384Y-78744500D01*
X179226380Y-78744500D01*
X179073620Y-78744500D01*
X179073615Y-78744500D01*
X178923802Y-78774300D01*
X178923794Y-78774302D01*
X178782665Y-78832759D01*
X178782656Y-78832764D01*
X178655648Y-78917629D01*
X178655644Y-78917632D01*
X178547632Y-79025644D01*
X178547629Y-79025648D01*
X178462764Y-79152656D01*
X178462759Y-79152665D01*
X178404302Y-79293794D01*
X178404300Y-79293802D01*
X178374500Y-79443615D01*
X178374500Y-79596380D01*
X178378464Y-79616307D01*
X178372237Y-79685899D01*
X178329375Y-79741077D01*
X178263486Y-79764322D01*
X178256847Y-79764500D01*
X178143615Y-79764500D01*
X177993802Y-79794300D01*
X177993794Y-79794302D01*
X177852665Y-79852759D01*
X177852656Y-79852764D01*
X177813891Y-79878667D01*
X177747213Y-79899545D01*
X177679833Y-79881060D01*
X177676109Y-79878667D01*
X177637343Y-79852764D01*
X177637334Y-79852759D01*
X177496205Y-79794302D01*
X177496197Y-79794300D01*
X177346384Y-79764500D01*
X177346380Y-79764500D01*
X177193620Y-79764500D01*
X177193615Y-79764500D01*
X177043802Y-79794300D01*
X177043794Y-79794302D01*
X176902665Y-79852759D01*
X176902656Y-79852764D01*
X176775648Y-79937629D01*
X176775644Y-79937632D01*
X176667632Y-80045644D01*
X176667629Y-80045648D01*
X176582764Y-80172656D01*
X176582759Y-80172665D01*
X176524302Y-80313794D01*
X176524300Y-80313802D01*
X176494500Y-80463615D01*
X176494500Y-80616384D01*
X176524300Y-80766197D01*
X176524302Y-80766205D01*
X176582759Y-80907334D01*
X176582764Y-80907343D01*
X176667629Y-81034351D01*
X176667632Y-81034355D01*
X176775644Y-81142367D01*
X176775648Y-81142370D01*
X176902656Y-81227235D01*
X176902662Y-81227238D01*
X176902663Y-81227239D01*
X177043795Y-81285698D01*
X177193615Y-81315499D01*
X177193619Y-81315500D01*
X177193620Y-81315500D01*
X177346381Y-81315500D01*
X177346382Y-81315499D01*
X177496205Y-81285698D01*
X177637337Y-81227239D01*
X177676110Y-81201331D01*
X177742785Y-81180453D01*
X177810165Y-81198937D01*
X177813863Y-81201313D01*
X177852663Y-81227239D01*
X177993795Y-81285698D01*
X178143615Y-81315499D01*
X178143619Y-81315500D01*
X178143620Y-81315500D01*
X178296381Y-81315500D01*
X178296382Y-81315499D01*
X178446205Y-81285698D01*
X178587337Y-81227239D01*
X178672331Y-81170447D01*
X178739007Y-81149570D01*
X178806387Y-81168054D01*
X178853077Y-81220032D01*
X178864254Y-81289002D01*
X178836369Y-81353066D01*
X178828903Y-81361231D01*
X178675019Y-81515115D01*
X178166894Y-82079446D01*
X178166887Y-82079454D01*
X177688968Y-82669635D01*
X177688966Y-82669637D01*
X177242595Y-83284015D01*
X177242593Y-83284018D01*
X176828985Y-83920920D01*
X176449285Y-84578580D01*
X176104523Y-85255212D01*
X176104516Y-85255226D01*
X176104513Y-85255234D01*
X175983800Y-85526360D01*
X175795631Y-85948994D01*
X175523485Y-86657957D01*
X175523478Y-86657977D01*
X175288806Y-87380220D01*
X175288806Y-87380221D01*
X175092250Y-88113777D01*
X174934368Y-88856555D01*
X174934360Y-88856599D01*
X174815563Y-89606649D01*
X174736182Y-90361921D01*
X174736182Y-90361929D01*
X174731361Y-90453922D01*
X174696438Y-91120291D01*
X172866252Y-91120291D01*
X172871029Y-91107483D01*
X172877438Y-91047873D01*
X172877437Y-89952128D01*
X172871029Y-89892517D01*
X172820822Y-89757906D01*
X172820735Y-89757671D01*
X172820731Y-89757664D01*
X172769061Y-89688643D01*
X172734484Y-89642454D01*
X172676792Y-89599265D01*
X172634922Y-89543333D01*
X172629938Y-89473641D01*
X172663423Y-89412318D01*
X172676792Y-89400734D01*
X172734484Y-89357546D01*
X172820734Y-89242331D01*
X172871029Y-89107483D01*
X172877438Y-89047873D01*
X172877437Y-87952128D01*
X172871029Y-87892517D01*
X172820822Y-87757906D01*
X172820735Y-87757671D01*
X172820731Y-87757664D01*
X172734752Y-87642812D01*
X172734484Y-87642454D01*
X172676792Y-87599265D01*
X172634922Y-87543333D01*
X172629938Y-87473641D01*
X172663423Y-87412318D01*
X172676792Y-87400734D01*
X172734484Y-87357546D01*
X172820734Y-87242331D01*
X172871029Y-87107483D01*
X172877438Y-87047873D01*
X172877437Y-85952128D01*
X172871029Y-85892517D01*
X172858793Y-85859711D01*
X172820735Y-85757671D01*
X172820731Y-85757664D01*
X172748075Y-85660609D01*
X172734484Y-85642454D01*
X172676792Y-85599265D01*
X172634922Y-85543333D01*
X172629938Y-85473641D01*
X172663423Y-85412318D01*
X172676792Y-85400734D01*
X172734484Y-85357546D01*
X172820734Y-85242331D01*
X172871029Y-85107483D01*
X172877438Y-85047873D01*
X172877437Y-83952128D01*
X172871029Y-83892517D01*
X172820734Y-83757669D01*
X172820733Y-83757668D01*
X172820731Y-83757664D01*
X172734485Y-83642456D01*
X172734486Y-83642456D01*
X172734484Y-83642454D01*
X172676792Y-83599265D01*
X172634922Y-83543333D01*
X172629938Y-83473641D01*
X172663423Y-83412318D01*
X172676792Y-83400734D01*
X172734484Y-83357546D01*
X172820734Y-83242331D01*
X172871029Y-83107483D01*
X172877438Y-83047873D01*
X172877437Y-81952128D01*
X172871029Y-81892517D01*
X172854633Y-81848558D01*
X172820735Y-81757671D01*
X172820731Y-81757664D01*
X172734485Y-81642455D01*
X172734482Y-81642452D01*
X172619273Y-81556206D01*
X172619266Y-81556202D01*
X172484420Y-81505908D01*
X172484421Y-81505908D01*
X172424821Y-81499501D01*
X172424819Y-81499500D01*
X172424811Y-81499500D01*
X172424802Y-81499500D01*
X169749067Y-81499500D01*
X169749061Y-81499501D01*
X169689454Y-81505908D01*
X169554609Y-81556202D01*
X169554602Y-81556206D01*
X169439393Y-81642452D01*
X169439390Y-81642455D01*
X169353144Y-81757664D01*
X169353140Y-81757671D01*
X169302846Y-81892517D01*
X169296439Y-81952116D01*
X169296439Y-81952123D01*
X169296438Y-81952135D01*
X168707437Y-81952135D01*
X168707437Y-81952128D01*
X168701029Y-81892517D01*
X168684633Y-81848558D01*
X168650735Y-81757671D01*
X168650731Y-81757664D01*
X168564485Y-81642455D01*
X168564482Y-81642452D01*
X168449273Y-81556206D01*
X168449266Y-81556202D01*
X168314420Y-81505908D01*
X168314421Y-81505908D01*
X168254821Y-81499501D01*
X168254819Y-81499500D01*
X168254811Y-81499500D01*
X168254802Y-81499500D01*
X165579067Y-81499500D01*
X165579061Y-81499501D01*
X165519454Y-81505908D01*
X165384609Y-81556202D01*
X165384602Y-81556206D01*
X165269393Y-81642452D01*
X165269390Y-81642455D01*
X165183144Y-81757664D01*
X165183140Y-81757671D01*
X165132846Y-81892517D01*
X165126439Y-81952116D01*
X165126439Y-81952123D01*
X165126438Y-81952135D01*
X164697438Y-81952135D01*
X164697438Y-79581153D01*
X168329500Y-79581153D01*
X168329500Y-79738846D01*
X168360261Y-79893489D01*
X168360264Y-79893501D01*
X168420602Y-80039172D01*
X168420609Y-80039185D01*
X168508210Y-80170288D01*
X168508213Y-80170292D01*
X168619707Y-80281786D01*
X168619711Y-80281789D01*
X168750814Y-80369390D01*
X168750827Y-80369397D01*
X168888128Y-80426268D01*
X168896503Y-80429737D01*
X169051153Y-80460499D01*
X169051156Y-80460500D01*
X169051158Y-80460500D01*
X169208844Y-80460500D01*
X169208845Y-80460499D01*
X169363497Y-80429737D01*
X169476166Y-80383067D01*
X169509172Y-80369397D01*
X169509172Y-80369396D01*
X169509179Y-80369394D01*
X169640289Y-80281789D01*
X169751789Y-80170289D01*
X169839394Y-80039179D01*
X169899737Y-79893497D01*
X169930500Y-79738842D01*
X169930500Y-79581158D01*
X169930500Y-79581155D01*
X169930499Y-79581153D01*
X169924250Y-79549737D01*
X169899737Y-79426503D01*
X169889499Y-79401786D01*
X169839397Y-79280827D01*
X169839390Y-79280814D01*
X169751789Y-79149711D01*
X169751786Y-79149707D01*
X169640292Y-79038213D01*
X169640288Y-79038210D01*
X169509185Y-78950609D01*
X169509172Y-78950602D01*
X169363501Y-78890264D01*
X169363489Y-78890261D01*
X169208845Y-78859500D01*
X169208842Y-78859500D01*
X169051158Y-78859500D01*
X169051155Y-78859500D01*
X168896510Y-78890261D01*
X168896498Y-78890264D01*
X168750827Y-78950602D01*
X168750814Y-78950609D01*
X168619711Y-79038210D01*
X168619707Y-79038213D01*
X168508213Y-79149707D01*
X168508210Y-79149711D01*
X168420609Y-79280814D01*
X168420602Y-79280827D01*
X168360264Y-79426498D01*
X168360261Y-79426510D01*
X168329500Y-79581153D01*
X164697438Y-79581153D01*
X164697438Y-78701153D01*
X172780500Y-78701153D01*
X172780500Y-78858846D01*
X172811261Y-79013489D01*
X172811264Y-79013501D01*
X172871602Y-79159172D01*
X172871609Y-79159185D01*
X172959210Y-79290288D01*
X172959213Y-79290292D01*
X173070707Y-79401786D01*
X173070711Y-79401789D01*
X173201814Y-79489390D01*
X173201827Y-79489397D01*
X173347498Y-79549735D01*
X173347503Y-79549737D01*
X173502153Y-79580499D01*
X173502156Y-79580500D01*
X173502158Y-79580500D01*
X173659844Y-79580500D01*
X173659845Y-79580499D01*
X173814497Y-79549737D01*
X173960179Y-79489394D01*
X174091289Y-79401789D01*
X174202789Y-79290289D01*
X174290394Y-79159179D01*
X174350737Y-79013497D01*
X174381500Y-78858842D01*
X174381500Y-78701158D01*
X174381500Y-78701155D01*
X174381499Y-78701153D01*
X174350738Y-78546510D01*
X174350737Y-78546503D01*
X174293196Y-78407585D01*
X174290397Y-78400827D01*
X174290390Y-78400814D01*
X174202789Y-78269711D01*
X174202786Y-78269707D01*
X174175081Y-78242002D01*
X174141596Y-78180679D01*
X174146580Y-78110987D01*
X174175079Y-78066642D01*
X174207370Y-78034352D01*
X174292239Y-77907337D01*
X174350698Y-77766205D01*
X174380500Y-77616380D01*
X174380500Y-77463620D01*
X174350698Y-77313795D01*
X174292239Y-77172663D01*
X174292238Y-77172662D01*
X174292235Y-77172656D01*
X174207370Y-77045648D01*
X174207367Y-77045644D01*
X174099355Y-76937632D01*
X174099351Y-76937629D01*
X173972343Y-76852764D01*
X173972334Y-76852759D01*
X173831205Y-76794302D01*
X173831197Y-76794300D01*
X173681384Y-76764500D01*
X173681380Y-76764500D01*
X173528620Y-76764500D01*
X173528615Y-76764500D01*
X173378802Y-76794300D01*
X173378794Y-76794302D01*
X173237665Y-76852759D01*
X173237656Y-76852764D01*
X173110648Y-76937629D01*
X173110644Y-76937632D01*
X173002632Y-77045644D01*
X173002629Y-77045648D01*
X172917764Y-77172656D01*
X172917759Y-77172665D01*
X172859302Y-77313794D01*
X172859300Y-77313802D01*
X172829500Y-77463615D01*
X172829500Y-77616384D01*
X172859300Y-77766197D01*
X172859302Y-77766205D01*
X172917759Y-77907334D01*
X172917764Y-77907343D01*
X173002629Y-78034351D01*
X173002632Y-78034355D01*
X173010918Y-78042641D01*
X173044403Y-78103964D01*
X173039419Y-78173656D01*
X173010918Y-78218003D01*
X172959213Y-78269707D01*
X172959210Y-78269711D01*
X172871609Y-78400814D01*
X172871602Y-78400827D01*
X172811264Y-78546498D01*
X172811261Y-78546510D01*
X172780500Y-78701153D01*
X164697438Y-78701153D01*
X164697438Y-76978581D01*
X164715621Y-76913938D01*
X165016660Y-76421151D01*
X175059500Y-76421151D01*
X175059500Y-76578844D01*
X175090261Y-76733487D01*
X175090264Y-76733499D01*
X175150602Y-76879170D01*
X175150609Y-76879183D01*
X175238210Y-77010286D01*
X175238213Y-77010290D01*
X175349707Y-77121784D01*
X175349711Y-77121787D01*
X175480814Y-77209388D01*
X175480827Y-77209395D01*
X175626498Y-77269733D01*
X175626503Y-77269735D01*
X175781153Y-77300497D01*
X175781156Y-77300498D01*
X175781158Y-77300498D01*
X175938844Y-77300498D01*
X175938845Y-77300497D01*
X176093497Y-77269735D01*
X176239179Y-77209392D01*
X176370289Y-77121787D01*
X176481789Y-77010287D01*
X176569394Y-76879177D01*
X176629737Y-76733495D01*
X176660040Y-76581153D01*
X180039500Y-76581153D01*
X180039500Y-76738846D01*
X180070261Y-76893489D01*
X180070264Y-76893501D01*
X180130602Y-77039172D01*
X180130609Y-77039185D01*
X180218210Y-77170288D01*
X180218213Y-77170292D01*
X180329707Y-77281786D01*
X180329711Y-77281789D01*
X180460814Y-77369390D01*
X180460827Y-77369397D01*
X180606498Y-77429735D01*
X180606503Y-77429737D01*
X180761153Y-77460499D01*
X180761156Y-77460500D01*
X180761158Y-77460500D01*
X180918844Y-77460500D01*
X180918845Y-77460499D01*
X181073497Y-77429737D01*
X181219179Y-77369394D01*
X181350289Y-77281789D01*
X181461789Y-77170289D01*
X181549394Y-77039179D01*
X181609737Y-76893497D01*
X181640500Y-76738842D01*
X181640500Y-76581158D01*
X181640500Y-76581155D01*
X181640499Y-76581153D01*
X181623240Y-76494386D01*
X181609737Y-76426503D01*
X181596449Y-76394422D01*
X181549397Y-76280827D01*
X181549389Y-76280813D01*
X181541468Y-76268958D01*
X181541467Y-76268957D01*
X181499503Y-76206153D01*
X183650237Y-76206153D01*
X183650237Y-76363846D01*
X183680998Y-76518489D01*
X183681001Y-76518501D01*
X183741339Y-76664172D01*
X183741346Y-76664185D01*
X183828947Y-76795288D01*
X183828950Y-76795292D01*
X183940444Y-76906786D01*
X183940448Y-76906789D01*
X184071551Y-76994390D01*
X184071564Y-76994397D01*
X184195287Y-77045644D01*
X184217240Y-77054737D01*
X184336649Y-77078489D01*
X184371890Y-77085499D01*
X184371893Y-77085500D01*
X184371895Y-77085500D01*
X184529581Y-77085500D01*
X184529582Y-77085499D01*
X184684234Y-77054737D01*
X184829916Y-76994394D01*
X184961026Y-76906789D01*
X185072526Y-76795289D01*
X185160131Y-76664179D01*
X185164402Y-76653868D01*
X185176701Y-76624176D01*
X185220541Y-76569772D01*
X185286835Y-76547707D01*
X185354535Y-76564986D01*
X185360153Y-76568526D01*
X185397559Y-76593520D01*
X185397572Y-76593527D01*
X185543243Y-76653865D01*
X185543248Y-76653867D01*
X185697898Y-76684629D01*
X185697901Y-76684630D01*
X185697903Y-76684630D01*
X185855589Y-76684630D01*
X185855590Y-76684629D01*
X186010242Y-76653867D01*
X186155924Y-76593524D01*
X186287034Y-76505919D01*
X186398534Y-76394419D01*
X186486139Y-76263309D01*
X186546482Y-76117627D01*
X186554909Y-76075263D01*
X186555049Y-76074560D01*
X186587434Y-76012649D01*
X186648149Y-75978075D01*
X186717919Y-75981814D01*
X186764347Y-76011070D01*
X186815644Y-76062367D01*
X186815648Y-76062370D01*
X186942656Y-76147235D01*
X186942662Y-76147238D01*
X186942663Y-76147239D01*
X187083795Y-76205698D01*
X187213687Y-76231535D01*
X187233615Y-76235499D01*
X187233619Y-76235500D01*
X187233620Y-76235500D01*
X187386381Y-76235500D01*
X187386382Y-76235499D01*
X187536205Y-76205698D01*
X187677337Y-76147239D01*
X187804352Y-76062370D01*
X187912370Y-75954352D01*
X187997239Y-75827337D01*
X188055698Y-75686205D01*
X188085500Y-75536380D01*
X188085500Y-75383620D01*
X188055698Y-75233795D01*
X187997239Y-75092663D01*
X187997238Y-75092662D01*
X187997235Y-75092656D01*
X187912370Y-74965648D01*
X187912367Y-74965644D01*
X187804355Y-74857632D01*
X187804351Y-74857629D01*
X187677343Y-74772764D01*
X187677334Y-74772759D01*
X187552745Y-74721153D01*
X199314500Y-74721153D01*
X199314500Y-74878846D01*
X199345261Y-75033489D01*
X199345264Y-75033501D01*
X199405602Y-75179172D01*
X199405609Y-75179185D01*
X199493210Y-75310288D01*
X199493213Y-75310292D01*
X199604707Y-75421786D01*
X199604711Y-75421789D01*
X199735814Y-75509390D01*
X199735827Y-75509397D01*
X199881498Y-75569735D01*
X199881503Y-75569737D01*
X200015446Y-75596380D01*
X200036153Y-75600499D01*
X200036156Y-75600500D01*
X200036158Y-75600500D01*
X200193844Y-75600500D01*
X200193845Y-75600499D01*
X200348497Y-75569737D01*
X200461166Y-75523067D01*
X200494172Y-75509397D01*
X200494172Y-75509396D01*
X200494179Y-75509394D01*
X200625289Y-75421789D01*
X200736789Y-75310289D01*
X200824394Y-75179179D01*
X200884737Y-75033497D01*
X200915500Y-74878842D01*
X200915500Y-74721158D01*
X200915500Y-74721155D01*
X200915499Y-74721153D01*
X200908208Y-74684500D01*
X200884737Y-74566503D01*
X200874941Y-74542853D01*
X200862439Y-74512669D01*
X200845305Y-74471304D01*
X209379500Y-74471304D01*
X209379500Y-74648695D01*
X209414103Y-74822658D01*
X209414106Y-74822667D01*
X209481983Y-74986540D01*
X209481990Y-74986553D01*
X209580535Y-75134034D01*
X209580538Y-75134038D01*
X209705961Y-75259461D01*
X209705965Y-75259464D01*
X209853446Y-75358009D01*
X209853459Y-75358016D01*
X209915274Y-75383620D01*
X210017334Y-75425894D01*
X210017336Y-75425894D01*
X210017341Y-75425896D01*
X210191304Y-75460499D01*
X210191307Y-75460500D01*
X210191309Y-75460500D01*
X210368693Y-75460500D01*
X210368694Y-75460499D01*
X210453557Y-75443619D01*
X210542658Y-75425896D01*
X210542661Y-75425894D01*
X210542666Y-75425894D01*
X210706547Y-75358013D01*
X210854035Y-75259464D01*
X210979464Y-75134035D01*
X211078013Y-74986547D01*
X211145894Y-74822666D01*
X211149869Y-74802685D01*
X211180499Y-74648695D01*
X211180500Y-74648693D01*
X211180500Y-74471306D01*
X211180499Y-74471304D01*
X211145896Y-74297341D01*
X211145893Y-74297332D01*
X211078016Y-74133459D01*
X211078009Y-74133446D01*
X210979464Y-73985965D01*
X210979461Y-73985961D01*
X210854038Y-73860538D01*
X210854034Y-73860535D01*
X210706553Y-73761990D01*
X210706540Y-73761983D01*
X210542667Y-73694106D01*
X210542658Y-73694103D01*
X210368694Y-73659500D01*
X210368691Y-73659500D01*
X210191309Y-73659500D01*
X210191306Y-73659500D01*
X210017341Y-73694103D01*
X210017332Y-73694106D01*
X209853459Y-73761983D01*
X209853446Y-73761990D01*
X209705965Y-73860535D01*
X209705961Y-73860538D01*
X209580538Y-73985961D01*
X209580535Y-73985965D01*
X209481990Y-74133446D01*
X209481983Y-74133459D01*
X209414106Y-74297332D01*
X209414103Y-74297341D01*
X209379500Y-74471304D01*
X200845305Y-74471304D01*
X200824397Y-74420827D01*
X200824390Y-74420814D01*
X200736789Y-74289711D01*
X200736786Y-74289707D01*
X200625292Y-74178213D01*
X200625288Y-74178210D01*
X200494185Y-74090609D01*
X200494172Y-74090602D01*
X200348501Y-74030264D01*
X200348489Y-74030261D01*
X200193845Y-73999500D01*
X200193842Y-73999500D01*
X200036158Y-73999500D01*
X200036155Y-73999500D01*
X199881510Y-74030261D01*
X199881498Y-74030264D01*
X199735827Y-74090602D01*
X199735814Y-74090609D01*
X199604711Y-74178210D01*
X199604707Y-74178213D01*
X199493213Y-74289707D01*
X199493210Y-74289711D01*
X199405609Y-74420814D01*
X199405602Y-74420827D01*
X199345264Y-74566498D01*
X199345261Y-74566510D01*
X199314500Y-74721153D01*
X187552745Y-74721153D01*
X187536205Y-74714302D01*
X187536197Y-74714300D01*
X187386384Y-74684500D01*
X187386380Y-74684500D01*
X187385680Y-74684500D01*
X187385326Y-74684396D01*
X187380319Y-74683903D01*
X187380412Y-74682953D01*
X187318641Y-74664815D01*
X187272886Y-74612011D01*
X187262942Y-74542853D01*
X187282578Y-74491609D01*
X187369390Y-74361685D01*
X187369390Y-74361684D01*
X187369394Y-74361679D01*
X187429737Y-74215997D01*
X187460500Y-74061342D01*
X187460500Y-73903658D01*
X187460500Y-73903655D01*
X187460499Y-73903653D01*
X187454474Y-73873363D01*
X187429737Y-73749003D01*
X187413472Y-73709735D01*
X187369397Y-73603327D01*
X187369390Y-73603314D01*
X187281789Y-73472211D01*
X187281786Y-73472207D01*
X187170292Y-73360713D01*
X187170288Y-73360710D01*
X187039185Y-73273109D01*
X187039172Y-73273102D01*
X186893501Y-73212764D01*
X186893489Y-73212761D01*
X186738845Y-73182000D01*
X186738842Y-73182000D01*
X186581158Y-73182000D01*
X186581155Y-73182000D01*
X186426510Y-73212761D01*
X186426498Y-73212764D01*
X186280827Y-73273102D01*
X186280814Y-73273109D01*
X186149711Y-73360710D01*
X186149707Y-73360713D01*
X186038213Y-73472207D01*
X186038210Y-73472211D01*
X185950609Y-73603314D01*
X185950602Y-73603327D01*
X185890264Y-73748998D01*
X185890261Y-73749010D01*
X185859500Y-73903653D01*
X185859500Y-74061346D01*
X185890261Y-74215989D01*
X185890264Y-74216001D01*
X185950602Y-74361672D01*
X185950609Y-74361685D01*
X186038210Y-74492788D01*
X186038213Y-74492792D01*
X186149707Y-74604286D01*
X186149711Y-74604289D01*
X186280814Y-74691890D01*
X186280827Y-74691897D01*
X186401272Y-74741786D01*
X186426503Y-74752237D01*
X186539467Y-74774707D01*
X186581153Y-74782999D01*
X186581156Y-74783000D01*
X186597683Y-74783000D01*
X186664722Y-74802685D01*
X186710477Y-74855489D01*
X186720421Y-74924647D01*
X186700785Y-74975891D01*
X186622764Y-75092656D01*
X186622759Y-75092665D01*
X186564302Y-75233794D01*
X186564300Y-75233799D01*
X186558822Y-75261342D01*
X186526436Y-75323252D01*
X186465720Y-75357826D01*
X186395951Y-75354085D01*
X186349524Y-75324830D01*
X186287037Y-75262343D01*
X186287033Y-75262340D01*
X186155930Y-75174739D01*
X186155921Y-75174734D01*
X186091757Y-75148157D01*
X186037354Y-75104316D01*
X186017592Y-75057787D01*
X186016343Y-75051503D01*
X185963798Y-74924647D01*
X185956003Y-74905827D01*
X185955996Y-74905814D01*
X185868395Y-74774711D01*
X185868392Y-74774707D01*
X185756898Y-74663213D01*
X185756894Y-74663210D01*
X185625791Y-74575609D01*
X185625778Y-74575602D01*
X185480107Y-74515264D01*
X185480095Y-74515261D01*
X185325451Y-74484500D01*
X185325448Y-74484500D01*
X185167764Y-74484500D01*
X185167761Y-74484500D01*
X185013116Y-74515261D01*
X185013104Y-74515264D01*
X184867433Y-74575602D01*
X184867420Y-74575609D01*
X184736317Y-74663210D01*
X184736313Y-74663213D01*
X184624819Y-74774707D01*
X184624816Y-74774711D01*
X184537215Y-74905814D01*
X184537208Y-74905827D01*
X184476870Y-75051498D01*
X184476867Y-75051510D01*
X184446106Y-75206153D01*
X184446106Y-75367974D01*
X184426421Y-75435013D01*
X184373617Y-75480768D01*
X184346298Y-75489591D01*
X184217245Y-75515261D01*
X184217235Y-75515264D01*
X184071564Y-75575602D01*
X184071551Y-75575609D01*
X183940448Y-75663210D01*
X183940444Y-75663213D01*
X183828950Y-75774707D01*
X183828947Y-75774711D01*
X183741346Y-75905814D01*
X183741339Y-75905827D01*
X183681001Y-76051498D01*
X183680998Y-76051510D01*
X183650237Y-76206153D01*
X181499503Y-76206153D01*
X181461789Y-76149711D01*
X181461786Y-76149707D01*
X181350292Y-76038213D01*
X181350288Y-76038210D01*
X181219185Y-75950609D01*
X181219172Y-75950602D01*
X181073501Y-75890264D01*
X181073489Y-75890261D01*
X180918845Y-75859500D01*
X180918842Y-75859500D01*
X180761158Y-75859500D01*
X180761155Y-75859500D01*
X180606510Y-75890261D01*
X180606498Y-75890264D01*
X180460827Y-75950602D01*
X180460814Y-75950609D01*
X180329711Y-76038210D01*
X180329707Y-76038213D01*
X180218213Y-76149707D01*
X180218210Y-76149711D01*
X180130609Y-76280814D01*
X180130602Y-76280827D01*
X180070264Y-76426498D01*
X180070261Y-76426510D01*
X180039500Y-76581153D01*
X176660040Y-76581153D01*
X176660500Y-76578840D01*
X176660500Y-76421156D01*
X176660500Y-76421153D01*
X176660499Y-76421151D01*
X176655181Y-76394418D01*
X176629737Y-76266501D01*
X176611806Y-76223211D01*
X176569397Y-76120825D01*
X176569390Y-76120812D01*
X176481789Y-75989709D01*
X176481786Y-75989705D01*
X176370292Y-75878211D01*
X176370288Y-75878208D01*
X176239185Y-75790607D01*
X176239172Y-75790600D01*
X176093501Y-75730262D01*
X176093489Y-75730259D01*
X175938845Y-75699498D01*
X175938842Y-75699498D01*
X175781158Y-75699498D01*
X175781155Y-75699498D01*
X175626510Y-75730259D01*
X175626498Y-75730262D01*
X175480827Y-75790600D01*
X175480814Y-75790607D01*
X175349711Y-75878208D01*
X175349707Y-75878211D01*
X175238213Y-75989705D01*
X175238210Y-75989709D01*
X175150609Y-76120812D01*
X175150602Y-76120825D01*
X175090264Y-76266496D01*
X175090261Y-76266508D01*
X175059500Y-76421151D01*
X165016660Y-76421151D01*
X165130336Y-76235069D01*
X165132578Y-76231535D01*
X165138057Y-76223213D01*
X165660880Y-75429111D01*
X165663211Y-75425697D01*
X166218409Y-74641574D01*
X166220884Y-74638202D01*
X166479988Y-74297341D01*
X166545504Y-74211153D01*
X168339500Y-74211153D01*
X168339500Y-74368846D01*
X168370261Y-74523489D01*
X168370264Y-74523501D01*
X168430602Y-74669172D01*
X168430609Y-74669185D01*
X168518210Y-74800288D01*
X168518213Y-74800292D01*
X168629707Y-74911786D01*
X168629711Y-74911789D01*
X168760814Y-74999390D01*
X168760827Y-74999397D01*
X168886641Y-75051510D01*
X168906503Y-75059737D01*
X169061153Y-75090499D01*
X169061156Y-75090500D01*
X169061158Y-75090500D01*
X169218844Y-75090500D01*
X169218845Y-75090499D01*
X169373497Y-75059737D01*
X169519179Y-74999394D01*
X169650289Y-74911789D01*
X169761789Y-74800289D01*
X169849394Y-74669179D01*
X169851867Y-74663210D01*
X169876273Y-74604286D01*
X169909737Y-74523497D01*
X169940500Y-74368842D01*
X169940500Y-74211158D01*
X169940500Y-74211155D01*
X169940499Y-74211153D01*
X169933946Y-74178210D01*
X169909737Y-74056503D01*
X169886126Y-73999500D01*
X169849397Y-73910827D01*
X169849390Y-73910814D01*
X169761789Y-73779711D01*
X169761786Y-73779707D01*
X169650292Y-73668213D01*
X169650288Y-73668210D01*
X169519185Y-73580609D01*
X169519172Y-73580602D01*
X169373501Y-73520264D01*
X169373489Y-73520261D01*
X169218845Y-73489500D01*
X169218842Y-73489500D01*
X169061158Y-73489500D01*
X169061155Y-73489500D01*
X168906510Y-73520261D01*
X168906498Y-73520264D01*
X168760827Y-73580602D01*
X168760814Y-73580609D01*
X168629711Y-73668210D01*
X168629707Y-73668213D01*
X168518213Y-73779707D01*
X168518210Y-73779711D01*
X168430609Y-73910814D01*
X168430602Y-73910827D01*
X168370264Y-74056498D01*
X168370261Y-74056510D01*
X168339500Y-74211153D01*
X166545504Y-74211153D01*
X166802307Y-73873319D01*
X166804834Y-73870109D01*
X167411826Y-73125337D01*
X167414473Y-73122198D01*
X168046327Y-72398406D01*
X168049082Y-72395355D01*
X168053009Y-72391153D01*
X170089500Y-72391153D01*
X170089500Y-72548846D01*
X170120261Y-72703489D01*
X170120264Y-72703501D01*
X170180602Y-72849172D01*
X170180609Y-72849185D01*
X170268210Y-72980288D01*
X170268213Y-72980292D01*
X170379707Y-73091786D01*
X170379711Y-73091789D01*
X170510814Y-73179390D01*
X170510827Y-73179397D01*
X170648683Y-73236498D01*
X170656503Y-73239737D01*
X170811153Y-73270499D01*
X170811156Y-73270500D01*
X170811158Y-73270500D01*
X170968844Y-73270500D01*
X170968845Y-73270499D01*
X171123497Y-73239737D01*
X171269179Y-73179394D01*
X171286608Y-73167747D01*
X171353285Y-73146870D01*
X171420666Y-73165354D01*
X171467356Y-73217332D01*
X171479500Y-73270850D01*
X171479500Y-73378846D01*
X171510261Y-73533489D01*
X171510264Y-73533501D01*
X171553815Y-73638644D01*
X171561284Y-73708114D01*
X171552008Y-73734808D01*
X171552937Y-73735193D01*
X171490264Y-73886498D01*
X171490261Y-73886510D01*
X171459500Y-74041153D01*
X171459500Y-74198846D01*
X171490261Y-74353489D01*
X171490264Y-74353501D01*
X171550602Y-74499172D01*
X171550609Y-74499185D01*
X171638210Y-74630288D01*
X171638213Y-74630292D01*
X171749707Y-74741786D01*
X171749711Y-74741789D01*
X171880814Y-74829390D01*
X171880827Y-74829397D01*
X172026498Y-74889735D01*
X172026503Y-74889737D01*
X172166725Y-74917629D01*
X172181153Y-74920499D01*
X172181156Y-74920500D01*
X172181158Y-74920500D01*
X172338844Y-74920500D01*
X172338845Y-74920499D01*
X172493497Y-74889737D01*
X172631060Y-74832757D01*
X172639172Y-74829397D01*
X172639172Y-74829396D01*
X172639179Y-74829394D01*
X172770289Y-74741789D01*
X172881789Y-74630289D01*
X172969394Y-74499179D01*
X173029737Y-74353497D01*
X173060500Y-74198842D01*
X173060500Y-74041158D01*
X173060500Y-74041155D01*
X173060499Y-74041153D01*
X173049521Y-73985965D01*
X173029737Y-73886503D01*
X173018981Y-73860535D01*
X172986184Y-73781355D01*
X172978715Y-73711886D01*
X172988002Y-73685197D01*
X172987063Y-73684808D01*
X173049735Y-73533501D01*
X173049737Y-73533497D01*
X173078051Y-73391153D01*
X176919500Y-73391153D01*
X176919500Y-73548846D01*
X176950261Y-73703489D01*
X176950264Y-73703501D01*
X177010602Y-73849172D01*
X177010609Y-73849185D01*
X177098210Y-73980288D01*
X177098213Y-73980292D01*
X177209707Y-74091786D01*
X177209711Y-74091789D01*
X177340814Y-74179390D01*
X177340827Y-74179397D01*
X177486498Y-74239735D01*
X177486503Y-74239737D01*
X177641153Y-74270499D01*
X177641156Y-74270500D01*
X177641158Y-74270500D01*
X177798844Y-74270500D01*
X177798845Y-74270499D01*
X177953497Y-74239737D01*
X178099179Y-74179394D01*
X178230289Y-74091789D01*
X178341789Y-73980289D01*
X178429394Y-73849179D01*
X178489737Y-73703497D01*
X178520500Y-73548842D01*
X178520500Y-73391158D01*
X178520500Y-73391155D01*
X178520499Y-73391153D01*
X178514443Y-73360710D01*
X178489737Y-73236503D01*
X178470693Y-73190527D01*
X178429397Y-73090827D01*
X178429390Y-73090814D01*
X178405824Y-73055545D01*
X178405799Y-73055509D01*
X178341789Y-72959711D01*
X178335787Y-72953709D01*
X178335785Y-72953706D01*
X178230292Y-72848213D01*
X178230288Y-72848210D01*
X178099185Y-72760609D01*
X178099172Y-72760602D01*
X177953501Y-72700264D01*
X177953489Y-72700261D01*
X177798845Y-72669500D01*
X177798842Y-72669500D01*
X177641158Y-72669500D01*
X177641155Y-72669500D01*
X177486510Y-72700261D01*
X177486498Y-72700264D01*
X177340827Y-72760602D01*
X177340814Y-72760609D01*
X177209711Y-72848210D01*
X177209707Y-72848213D01*
X177098213Y-72959707D01*
X177098210Y-72959711D01*
X177010609Y-73090814D01*
X177010602Y-73090827D01*
X176950264Y-73236498D01*
X176950261Y-73236510D01*
X176919500Y-73391153D01*
X173078051Y-73391153D01*
X173080500Y-73378842D01*
X173080500Y-73221158D01*
X173080500Y-73221155D01*
X173080499Y-73221153D01*
X173072193Y-73179397D01*
X173049737Y-73066503D01*
X173029996Y-73018844D01*
X172989397Y-72920827D01*
X172989390Y-72920814D01*
X172901789Y-72789711D01*
X172901786Y-72789707D01*
X172790292Y-72678213D01*
X172790288Y-72678210D01*
X172659185Y-72590609D01*
X172659172Y-72590602D01*
X172513501Y-72530264D01*
X172513489Y-72530261D01*
X172358845Y-72499500D01*
X172358842Y-72499500D01*
X172201158Y-72499500D01*
X172201155Y-72499500D01*
X172046510Y-72530261D01*
X172046498Y-72530264D01*
X171900827Y-72590602D01*
X171900818Y-72590607D01*
X171883389Y-72602253D01*
X171816711Y-72623129D01*
X171749331Y-72604643D01*
X171702642Y-72552663D01*
X171690500Y-72499149D01*
X171690500Y-72391155D01*
X171690499Y-72391153D01*
X171684139Y-72359179D01*
X171674592Y-72311181D01*
X178419472Y-72311181D01*
X178419472Y-72468874D01*
X178450233Y-72623517D01*
X178450236Y-72623529D01*
X178510574Y-72769200D01*
X178510581Y-72769213D01*
X178524278Y-72789711D01*
X178598183Y-72900317D01*
X178604182Y-72906316D01*
X178604185Y-72906320D01*
X178709679Y-73011814D01*
X178709683Y-73011817D01*
X178840786Y-73099418D01*
X178840799Y-73099425D01*
X178903442Y-73125372D01*
X178986475Y-73159765D01*
X179141125Y-73190527D01*
X179141128Y-73190528D01*
X179141130Y-73190528D01*
X179298816Y-73190528D01*
X179298817Y-73190527D01*
X179453469Y-73159765D01*
X179599151Y-73099422D01*
X179730261Y-73011817D01*
X179841761Y-72900317D01*
X179867930Y-72861153D01*
X183849500Y-72861153D01*
X183849500Y-73018846D01*
X183880261Y-73173489D01*
X183880264Y-73173501D01*
X183940602Y-73319172D01*
X183940609Y-73319185D01*
X184028210Y-73450288D01*
X184028213Y-73450292D01*
X184139707Y-73561786D01*
X184139711Y-73561789D01*
X184270814Y-73649390D01*
X184270827Y-73649397D01*
X184378766Y-73694106D01*
X184416503Y-73709737D01*
X184542543Y-73734808D01*
X184571153Y-73740499D01*
X184571156Y-73740500D01*
X184571158Y-73740500D01*
X184728844Y-73740500D01*
X184728845Y-73740499D01*
X184883497Y-73709737D01*
X185029179Y-73649394D01*
X185160289Y-73561789D01*
X185271789Y-73450289D01*
X185359394Y-73319179D01*
X185419737Y-73173497D01*
X185450500Y-73018842D01*
X185450500Y-72861158D01*
X185450500Y-72861155D01*
X185450499Y-72861153D01*
X185432211Y-72769213D01*
X185419737Y-72706503D01*
X185417152Y-72700263D01*
X185359397Y-72560827D01*
X185359390Y-72560814D01*
X185271789Y-72429711D01*
X185271786Y-72429707D01*
X185160292Y-72318213D01*
X185160288Y-72318210D01*
X185029185Y-72230609D01*
X185029172Y-72230602D01*
X184883501Y-72170264D01*
X184883489Y-72170261D01*
X184728845Y-72139500D01*
X184728842Y-72139500D01*
X184571158Y-72139500D01*
X184571155Y-72139500D01*
X184416510Y-72170261D01*
X184416498Y-72170264D01*
X184270827Y-72230602D01*
X184270814Y-72230609D01*
X184139711Y-72318210D01*
X184139707Y-72318213D01*
X184028213Y-72429707D01*
X184028210Y-72429711D01*
X183940609Y-72560814D01*
X183940602Y-72560827D01*
X183880264Y-72706498D01*
X183880261Y-72706510D01*
X183849500Y-72861153D01*
X179867930Y-72861153D01*
X179915666Y-72789711D01*
X179918029Y-72786175D01*
X179929362Y-72769213D01*
X179929362Y-72769212D01*
X179929366Y-72769207D01*
X179989709Y-72623525D01*
X180020472Y-72468870D01*
X180020472Y-72311186D01*
X180020472Y-72311183D01*
X180020471Y-72311181D01*
X180005618Y-72236510D01*
X179989709Y-72156531D01*
X179982655Y-72139500D01*
X179929369Y-72010855D01*
X179929367Y-72010851D01*
X179929366Y-72010849D01*
X179856069Y-71901153D01*
X193259500Y-71901153D01*
X193259500Y-72058846D01*
X193290261Y-72213489D01*
X193290264Y-72213501D01*
X193350602Y-72359172D01*
X193350609Y-72359185D01*
X193438210Y-72490288D01*
X193438213Y-72490292D01*
X193549707Y-72601786D01*
X193549711Y-72601789D01*
X193680814Y-72689390D01*
X193680827Y-72689397D01*
X193779558Y-72730292D01*
X193826503Y-72749737D01*
X193981153Y-72780499D01*
X193981156Y-72780500D01*
X193981158Y-72780500D01*
X194138844Y-72780500D01*
X194138845Y-72780499D01*
X194293497Y-72749737D01*
X194439179Y-72689394D01*
X194570289Y-72601789D01*
X194681789Y-72490289D01*
X194769394Y-72359179D01*
X194829737Y-72213497D01*
X194841067Y-72156538D01*
X194844128Y-72141153D01*
X200819500Y-72141153D01*
X200819500Y-72298846D01*
X200850261Y-72453489D01*
X200850264Y-72453501D01*
X200910602Y-72599172D01*
X200910609Y-72599185D01*
X200998210Y-72730288D01*
X200998213Y-72730292D01*
X201109707Y-72841786D01*
X201109711Y-72841789D01*
X201240814Y-72929390D01*
X201240827Y-72929397D01*
X201386498Y-72989735D01*
X201386503Y-72989737D01*
X201497491Y-73011814D01*
X201541153Y-73020499D01*
X201541156Y-73020500D01*
X201541158Y-73020500D01*
X201698844Y-73020500D01*
X201698845Y-73020499D01*
X201853497Y-72989737D01*
X201999179Y-72929394D01*
X202130289Y-72841789D01*
X202241789Y-72730289D01*
X202329394Y-72599179D01*
X202389737Y-72453497D01*
X202420500Y-72298842D01*
X202420500Y-72141158D01*
X202420500Y-72141155D01*
X202420499Y-72141153D01*
X202404127Y-72058846D01*
X202389737Y-71986503D01*
X202378966Y-71960499D01*
X202329397Y-71840827D01*
X202329390Y-71840814D01*
X202241789Y-71709711D01*
X202241786Y-71709707D01*
X202130292Y-71598213D01*
X202130288Y-71598210D01*
X201999185Y-71510609D01*
X201999172Y-71510602D01*
X201853501Y-71450264D01*
X201853489Y-71450261D01*
X201698845Y-71419500D01*
X201698842Y-71419500D01*
X201541158Y-71419500D01*
X201541155Y-71419500D01*
X201386510Y-71450261D01*
X201386498Y-71450264D01*
X201240827Y-71510602D01*
X201240814Y-71510609D01*
X201109711Y-71598210D01*
X201109707Y-71598213D01*
X200998213Y-71709707D01*
X200998210Y-71709711D01*
X200910609Y-71840814D01*
X200910602Y-71840827D01*
X200850264Y-71986498D01*
X200850261Y-71986510D01*
X200819500Y-72141153D01*
X194844128Y-72141153D01*
X194850151Y-72110874D01*
X194850151Y-72110873D01*
X194860499Y-72058846D01*
X194860500Y-72058844D01*
X194860500Y-71901155D01*
X194860499Y-71901153D01*
X194854181Y-71869390D01*
X194829737Y-71746503D01*
X194823641Y-71731786D01*
X194769397Y-71600827D01*
X194769390Y-71600814D01*
X194681789Y-71469711D01*
X194681786Y-71469707D01*
X194570292Y-71358213D01*
X194570288Y-71358210D01*
X194439185Y-71270609D01*
X194439172Y-71270602D01*
X194293501Y-71210264D01*
X194293489Y-71210261D01*
X194138845Y-71179500D01*
X194138842Y-71179500D01*
X193981158Y-71179500D01*
X193981155Y-71179500D01*
X193826510Y-71210261D01*
X193826498Y-71210264D01*
X193680827Y-71270602D01*
X193680814Y-71270609D01*
X193549711Y-71358210D01*
X193549707Y-71358213D01*
X193438213Y-71469707D01*
X193438210Y-71469711D01*
X193350609Y-71600814D01*
X193350602Y-71600827D01*
X193290264Y-71746498D01*
X193290261Y-71746510D01*
X193259500Y-71901153D01*
X179856069Y-71901153D01*
X179841761Y-71879739D01*
X179841759Y-71879737D01*
X179841758Y-71879735D01*
X179730264Y-71768241D01*
X179730260Y-71768238D01*
X179599157Y-71680637D01*
X179599144Y-71680630D01*
X179453473Y-71620292D01*
X179453461Y-71620289D01*
X179298817Y-71589528D01*
X179298814Y-71589528D01*
X179141130Y-71589528D01*
X179141127Y-71589528D01*
X178986482Y-71620289D01*
X178986470Y-71620292D01*
X178840799Y-71680630D01*
X178840786Y-71680637D01*
X178709683Y-71768238D01*
X178709679Y-71768241D01*
X178598185Y-71879735D01*
X178598182Y-71879739D01*
X178510581Y-72010842D01*
X178510574Y-72010855D01*
X178450236Y-72156526D01*
X178450233Y-72156538D01*
X178419472Y-72311181D01*
X171674592Y-72311181D01*
X171659737Y-72236503D01*
X171650205Y-72213491D01*
X171599397Y-72090827D01*
X171599390Y-72090814D01*
X171511789Y-71959711D01*
X171511786Y-71959707D01*
X171400292Y-71848213D01*
X171400288Y-71848210D01*
X171269185Y-71760609D01*
X171269172Y-71760602D01*
X171123501Y-71700264D01*
X171123489Y-71700261D01*
X170968845Y-71669500D01*
X170968842Y-71669500D01*
X170811158Y-71669500D01*
X170811155Y-71669500D01*
X170656510Y-71700261D01*
X170656498Y-71700264D01*
X170510827Y-71760602D01*
X170510814Y-71760609D01*
X170379711Y-71848210D01*
X170379707Y-71848213D01*
X170268213Y-71959707D01*
X170268210Y-71959711D01*
X170180609Y-72090814D01*
X170180602Y-72090827D01*
X170120264Y-72236498D01*
X170120261Y-72236510D01*
X170089500Y-72391153D01*
X168053009Y-72391153D01*
X168705094Y-71693345D01*
X168707953Y-71690388D01*
X169387324Y-71011018D01*
X169390281Y-71008159D01*
X169975297Y-70461476D01*
X170037717Y-70430088D01*
X170107200Y-70437429D01*
X170161684Y-70481170D01*
X170181575Y-70527885D01*
X170205641Y-70648871D01*
X170205644Y-70648881D01*
X170265982Y-70794552D01*
X170265989Y-70794565D01*
X170353590Y-70925668D01*
X170353593Y-70925672D01*
X170465087Y-71037166D01*
X170465091Y-71037169D01*
X170596194Y-71124770D01*
X170596207Y-71124777D01*
X170731678Y-71180890D01*
X170741883Y-71185117D01*
X170868290Y-71210261D01*
X170896533Y-71215879D01*
X170896536Y-71215880D01*
X170896538Y-71215880D01*
X171054224Y-71215880D01*
X171054225Y-71215879D01*
X171208877Y-71185117D01*
X171354559Y-71124774D01*
X171356600Y-71123409D01*
X171357833Y-71123023D01*
X171359934Y-71121901D01*
X171360146Y-71122299D01*
X171423276Y-71102526D01*
X171490658Y-71121005D01*
X171537352Y-71172980D01*
X171549500Y-71226506D01*
X171549500Y-71238846D01*
X171580261Y-71393489D01*
X171580264Y-71393501D01*
X171640602Y-71539172D01*
X171640609Y-71539185D01*
X171728210Y-71670288D01*
X171728213Y-71670292D01*
X171839707Y-71781786D01*
X171839711Y-71781789D01*
X171970814Y-71869390D01*
X171970827Y-71869397D01*
X172070060Y-71910500D01*
X172116503Y-71929737D01*
X172271153Y-71960499D01*
X172271156Y-71960500D01*
X172271158Y-71960500D01*
X172428844Y-71960500D01*
X172428845Y-71960499D01*
X172583497Y-71929737D01*
X172729179Y-71869394D01*
X172860289Y-71781789D01*
X172971789Y-71670289D01*
X173059394Y-71539179D01*
X173119737Y-71393497D01*
X173150500Y-71238842D01*
X173150500Y-71081158D01*
X173150500Y-71081155D01*
X173144155Y-71049258D01*
X173144155Y-71049257D01*
X173140554Y-71031153D01*
X175269500Y-71031153D01*
X175269500Y-71188846D01*
X175300261Y-71343489D01*
X175300264Y-71343501D01*
X175360602Y-71489172D01*
X175360609Y-71489185D01*
X175448210Y-71620288D01*
X175448213Y-71620292D01*
X175559707Y-71731786D01*
X175559711Y-71731789D01*
X175690814Y-71819390D01*
X175690827Y-71819397D01*
X175836498Y-71879735D01*
X175836503Y-71879737D01*
X175991153Y-71910499D01*
X175991156Y-71910500D01*
X175991158Y-71910500D01*
X176148844Y-71910500D01*
X176148845Y-71910499D01*
X176303497Y-71879737D01*
X176449179Y-71819394D01*
X176580289Y-71731789D01*
X176691789Y-71620289D01*
X176779394Y-71489179D01*
X176839737Y-71343497D01*
X176870500Y-71188842D01*
X176870500Y-71031158D01*
X176870500Y-71031155D01*
X176870499Y-71031153D01*
X176869414Y-71025697D01*
X176839737Y-70876503D01*
X176810106Y-70804967D01*
X176779397Y-70730827D01*
X176779390Y-70730814D01*
X176691789Y-70599711D01*
X176691786Y-70599707D01*
X176580292Y-70488213D01*
X176580288Y-70488210D01*
X176449185Y-70400609D01*
X176449172Y-70400602D01*
X176303501Y-70340264D01*
X176303491Y-70340261D01*
X176197333Y-70319145D01*
X176197332Y-70319144D01*
X176148845Y-70309500D01*
X176148842Y-70309500D01*
X175991158Y-70309500D01*
X175991155Y-70309500D01*
X175836510Y-70340261D01*
X175836498Y-70340264D01*
X175690827Y-70400602D01*
X175690814Y-70400609D01*
X175559711Y-70488210D01*
X175559707Y-70488213D01*
X175448213Y-70599707D01*
X175448210Y-70599711D01*
X175360609Y-70730814D01*
X175360602Y-70730827D01*
X175300264Y-70876498D01*
X175300261Y-70876510D01*
X175269500Y-71031153D01*
X173140554Y-71031153D01*
X173127839Y-70967235D01*
X173119737Y-70926503D01*
X173101457Y-70882370D01*
X173059397Y-70780827D01*
X173059390Y-70780814D01*
X172971789Y-70649711D01*
X172971786Y-70649707D01*
X172860292Y-70538213D01*
X172860288Y-70538210D01*
X172729185Y-70450609D01*
X172729172Y-70450602D01*
X172583501Y-70390264D01*
X172583489Y-70390261D01*
X172428845Y-70359500D01*
X172428842Y-70359500D01*
X172271158Y-70359500D01*
X172271155Y-70359500D01*
X172116510Y-70390261D01*
X172116498Y-70390264D01*
X171970827Y-70450602D01*
X171970816Y-70450608D01*
X171968770Y-70451976D01*
X171967534Y-70452362D01*
X171965446Y-70453479D01*
X171965234Y-70453083D01*
X171902092Y-70472853D01*
X171834712Y-70454368D01*
X171788023Y-70402389D01*
X171775880Y-70348873D01*
X171775880Y-70336535D01*
X171775879Y-70336533D01*
X171775050Y-70332367D01*
X171745117Y-70181883D01*
X171711423Y-70100538D01*
X171684777Y-70036207D01*
X171684770Y-70036194D01*
X171597169Y-69905091D01*
X171597166Y-69905087D01*
X171485672Y-69793593D01*
X171485668Y-69793590D01*
X171421374Y-69750630D01*
X171354565Y-69705989D01*
X171354552Y-69705982D01*
X171228124Y-69653615D01*
X173424500Y-69653615D01*
X173424500Y-69806384D01*
X173454300Y-69956197D01*
X173454302Y-69956205D01*
X173512759Y-70097334D01*
X173512764Y-70097343D01*
X173597629Y-70224351D01*
X173597632Y-70224355D01*
X173705644Y-70332367D01*
X173705648Y-70332370D01*
X173832656Y-70417235D01*
X173832662Y-70417238D01*
X173832663Y-70417239D01*
X173973795Y-70475698D01*
X174066922Y-70494222D01*
X174123615Y-70505499D01*
X174123619Y-70505500D01*
X174123620Y-70505500D01*
X174276381Y-70505500D01*
X174276382Y-70505499D01*
X174426205Y-70475698D01*
X174567337Y-70417239D01*
X174694352Y-70332370D01*
X174802370Y-70224352D01*
X174816226Y-70203615D01*
X181244500Y-70203615D01*
X181244500Y-70356384D01*
X181274300Y-70506197D01*
X181274302Y-70506205D01*
X181332759Y-70647334D01*
X181332764Y-70647343D01*
X181417629Y-70774351D01*
X181417632Y-70774355D01*
X181525644Y-70882367D01*
X181525648Y-70882370D01*
X181652656Y-70967235D01*
X181652662Y-70967238D01*
X181652663Y-70967239D01*
X181793795Y-71025698D01*
X181943615Y-71055499D01*
X181943619Y-71055500D01*
X181943620Y-71055500D01*
X182096381Y-71055500D01*
X182096382Y-71055499D01*
X182246205Y-71025698D01*
X182387337Y-70967239D01*
X182514352Y-70882370D01*
X182622370Y-70774352D01*
X182707239Y-70647337D01*
X182765698Y-70506205D01*
X182795500Y-70356380D01*
X182795500Y-70203620D01*
X182765698Y-70053795D01*
X182707239Y-69912663D01*
X182707238Y-69912662D01*
X182707235Y-69912656D01*
X182622370Y-69785648D01*
X182622367Y-69785644D01*
X182514355Y-69677632D01*
X182514351Y-69677629D01*
X182387343Y-69592764D01*
X182387334Y-69592759D01*
X182246205Y-69534302D01*
X182246197Y-69534300D01*
X182096384Y-69504500D01*
X182096380Y-69504500D01*
X181943620Y-69504500D01*
X181943615Y-69504500D01*
X181793802Y-69534300D01*
X181793794Y-69534302D01*
X181652665Y-69592759D01*
X181652656Y-69592764D01*
X181525648Y-69677629D01*
X181525644Y-69677632D01*
X181417632Y-69785644D01*
X181417629Y-69785648D01*
X181332764Y-69912656D01*
X181332759Y-69912665D01*
X181274302Y-70053794D01*
X181274300Y-70053802D01*
X181244500Y-70203615D01*
X174816226Y-70203615D01*
X174887239Y-70097337D01*
X174945698Y-69956205D01*
X174975500Y-69806380D01*
X174975500Y-69653620D01*
X174945698Y-69503795D01*
X174894789Y-69380890D01*
X174887240Y-69362665D01*
X174887235Y-69362656D01*
X174874841Y-69344107D01*
X186609500Y-69344107D01*
X186609500Y-69495892D01*
X186639108Y-69644739D01*
X186639110Y-69644747D01*
X186697191Y-69784967D01*
X186697193Y-69784971D01*
X186748067Y-69861110D01*
X186768945Y-69927787D01*
X186750460Y-69995167D01*
X186748067Y-69998890D01*
X186697193Y-70075028D01*
X186697191Y-70075032D01*
X186639110Y-70215252D01*
X186639108Y-70215260D01*
X186609500Y-70364107D01*
X186609500Y-70515892D01*
X186639108Y-70664739D01*
X186639110Y-70664747D01*
X186697190Y-70804967D01*
X186781513Y-70931165D01*
X186888834Y-71038486D01*
X187015032Y-71122809D01*
X187085142Y-71151849D01*
X187155253Y-71180890D01*
X187302921Y-71210263D01*
X187304107Y-71210499D01*
X187304110Y-71210500D01*
X187304112Y-71210500D01*
X187455890Y-71210500D01*
X187455891Y-71210499D01*
X187604747Y-71180890D01*
X187724432Y-71131314D01*
X187744967Y-71122809D01*
X187744967Y-71122808D01*
X187744969Y-71122808D01*
X187871165Y-71038486D01*
X187978486Y-70931165D01*
X188062808Y-70804969D01*
X188067118Y-70794565D01*
X188075490Y-70774351D01*
X188101605Y-70711304D01*
X196869500Y-70711304D01*
X196869500Y-70888695D01*
X196904103Y-71062658D01*
X196904106Y-71062667D01*
X196971983Y-71226540D01*
X196971990Y-71226553D01*
X197070535Y-71374034D01*
X197070538Y-71374038D01*
X197195961Y-71499461D01*
X197195965Y-71499464D01*
X197343446Y-71598009D01*
X197343459Y-71598016D01*
X197466363Y-71648923D01*
X197507334Y-71665894D01*
X197507336Y-71665894D01*
X197507341Y-71665896D01*
X197681304Y-71700499D01*
X197681307Y-71700500D01*
X197681309Y-71700500D01*
X197858693Y-71700500D01*
X197858694Y-71700499D01*
X197916682Y-71688964D01*
X198032658Y-71665896D01*
X198032661Y-71665894D01*
X198032666Y-71665894D01*
X198172535Y-71607958D01*
X198196540Y-71598016D01*
X198196540Y-71598015D01*
X198196547Y-71598013D01*
X198344035Y-71499464D01*
X198469464Y-71374035D01*
X198568013Y-71226547D01*
X198635894Y-71062666D01*
X198637320Y-71055500D01*
X198663144Y-70925672D01*
X198670500Y-70888691D01*
X198670500Y-70711309D01*
X198670500Y-70711306D01*
X198670499Y-70711304D01*
X198639141Y-70553653D01*
X202157000Y-70553653D01*
X202157000Y-70711346D01*
X202187761Y-70865989D01*
X202187764Y-70866001D01*
X202248102Y-71011672D01*
X202248109Y-71011685D01*
X202335710Y-71142788D01*
X202335713Y-71142792D01*
X202447207Y-71254286D01*
X202447211Y-71254289D01*
X202578314Y-71341890D01*
X202578327Y-71341897D01*
X202702912Y-71393501D01*
X202724003Y-71402237D01*
X202878653Y-71432999D01*
X202878656Y-71433000D01*
X202878658Y-71433000D01*
X203036344Y-71433000D01*
X203036345Y-71432999D01*
X203190997Y-71402237D01*
X203304490Y-71355227D01*
X203336672Y-71341897D01*
X203336672Y-71341896D01*
X203336679Y-71341894D01*
X203467789Y-71254289D01*
X203579289Y-71142789D01*
X203666894Y-71011679D01*
X203727237Y-70865997D01*
X203758000Y-70711342D01*
X203758000Y-70553658D01*
X203758000Y-70553655D01*
X203757999Y-70553653D01*
X203754753Y-70537334D01*
X203727237Y-70399003D01*
X203723616Y-70390261D01*
X203666897Y-70253327D01*
X203666890Y-70253314D01*
X203579289Y-70122211D01*
X203579286Y-70122207D01*
X203467792Y-70010713D01*
X203467788Y-70010710D01*
X203336685Y-69923109D01*
X203336672Y-69923102D01*
X203191001Y-69862764D01*
X203190989Y-69862761D01*
X203036345Y-69832000D01*
X203036342Y-69832000D01*
X202878658Y-69832000D01*
X202878655Y-69832000D01*
X202724010Y-69862761D01*
X202723998Y-69862764D01*
X202578327Y-69923102D01*
X202578314Y-69923109D01*
X202447211Y-70010710D01*
X202447207Y-70010713D01*
X202335713Y-70122207D01*
X202335710Y-70122211D01*
X202248109Y-70253314D01*
X202248102Y-70253327D01*
X202187764Y-70398998D01*
X202187761Y-70399010D01*
X202157000Y-70553653D01*
X198639141Y-70553653D01*
X198635896Y-70537341D01*
X198635893Y-70537332D01*
X198627012Y-70515892D01*
X198601529Y-70454368D01*
X198568016Y-70373459D01*
X198568009Y-70373446D01*
X198469464Y-70225965D01*
X198469461Y-70225961D01*
X198344038Y-70100538D01*
X198344034Y-70100535D01*
X198196553Y-70001990D01*
X198196540Y-70001983D01*
X198032667Y-69934106D01*
X198032658Y-69934103D01*
X197858694Y-69899500D01*
X197858691Y-69899500D01*
X197681309Y-69899500D01*
X197681306Y-69899500D01*
X197507341Y-69934103D01*
X197507332Y-69934106D01*
X197343459Y-70001983D01*
X197343446Y-70001990D01*
X197195965Y-70100535D01*
X197195961Y-70100538D01*
X197070538Y-70225961D01*
X197070535Y-70225965D01*
X196971990Y-70373446D01*
X196971983Y-70373459D01*
X196904106Y-70537332D01*
X196904103Y-70537341D01*
X196869500Y-70711304D01*
X188101605Y-70711304D01*
X188120890Y-70664747D01*
X188150500Y-70515888D01*
X188150500Y-70364112D01*
X188150500Y-70364109D01*
X188150499Y-70364107D01*
X188148124Y-70352165D01*
X188120890Y-70215253D01*
X188072050Y-70097343D01*
X188062809Y-70075033D01*
X188048618Y-70053795D01*
X188011931Y-69998889D01*
X187991054Y-69932214D01*
X188009538Y-69864834D01*
X188011917Y-69861130D01*
X188062808Y-69784969D01*
X188120890Y-69644747D01*
X188125091Y-69623628D01*
X200262025Y-69623628D01*
X200262025Y-69781321D01*
X200292786Y-69935964D01*
X200292789Y-69935976D01*
X200353127Y-70081647D01*
X200353134Y-70081660D01*
X200440735Y-70212763D01*
X200440738Y-70212767D01*
X200552232Y-70324261D01*
X200552236Y-70324264D01*
X200683339Y-70411865D01*
X200683352Y-70411872D01*
X200829023Y-70472210D01*
X200829028Y-70472212D01*
X200983678Y-70502974D01*
X200983681Y-70502975D01*
X200983683Y-70502975D01*
X201141369Y-70502975D01*
X201141370Y-70502974D01*
X201296022Y-70472212D01*
X201343945Y-70452362D01*
X201390678Y-70433005D01*
X201441697Y-70411872D01*
X201441697Y-70411871D01*
X201441704Y-70411869D01*
X201572814Y-70324264D01*
X201684314Y-70212764D01*
X201771919Y-70081654D01*
X201774662Y-70075033D01*
X201790749Y-70036194D01*
X201832262Y-69935972D01*
X201863025Y-69781317D01*
X201863025Y-69623633D01*
X201863025Y-69623630D01*
X201863024Y-69623628D01*
X201839189Y-69503802D01*
X201832262Y-69468978D01*
X201808040Y-69410500D01*
X201771922Y-69323302D01*
X201771915Y-69323289D01*
X201684314Y-69192186D01*
X201684311Y-69192182D01*
X201572817Y-69080688D01*
X201572813Y-69080685D01*
X201441710Y-68993084D01*
X201441697Y-68993077D01*
X201296026Y-68932739D01*
X201296014Y-68932736D01*
X201141370Y-68901975D01*
X201141367Y-68901975D01*
X200983683Y-68901975D01*
X200983680Y-68901975D01*
X200829035Y-68932736D01*
X200829023Y-68932739D01*
X200683352Y-68993077D01*
X200683339Y-68993084D01*
X200552236Y-69080685D01*
X200552232Y-69080688D01*
X200440738Y-69192182D01*
X200440735Y-69192186D01*
X200353134Y-69323289D01*
X200353127Y-69323302D01*
X200292789Y-69468973D01*
X200292786Y-69468985D01*
X200262025Y-69623628D01*
X188125091Y-69623628D01*
X188131231Y-69592759D01*
X188150500Y-69495890D01*
X188150500Y-69344109D01*
X188150499Y-69344107D01*
X188146358Y-69323289D01*
X188120890Y-69195253D01*
X188073435Y-69080686D01*
X188062809Y-69055032D01*
X187978486Y-68928834D01*
X187871165Y-68821513D01*
X187744967Y-68737190D01*
X187604747Y-68679110D01*
X187604739Y-68679107D01*
X187455891Y-68649500D01*
X187455888Y-68649500D01*
X187304112Y-68649500D01*
X187304109Y-68649500D01*
X187155260Y-68679108D01*
X187155252Y-68679110D01*
X187015032Y-68737190D01*
X186888834Y-68821513D01*
X186781513Y-68928834D01*
X186697190Y-69055032D01*
X186639110Y-69195252D01*
X186639108Y-69195260D01*
X186609500Y-69344107D01*
X174874841Y-69344107D01*
X174802370Y-69235648D01*
X174802367Y-69235644D01*
X174694355Y-69127632D01*
X174694351Y-69127629D01*
X174567343Y-69042764D01*
X174567334Y-69042759D01*
X174426205Y-68984302D01*
X174426197Y-68984300D01*
X174276384Y-68954500D01*
X174276380Y-68954500D01*
X174123620Y-68954500D01*
X174123615Y-68954500D01*
X173973802Y-68984300D01*
X173973794Y-68984302D01*
X173832665Y-69042759D01*
X173832656Y-69042764D01*
X173705648Y-69127629D01*
X173705644Y-69127632D01*
X173597632Y-69235644D01*
X173597629Y-69235648D01*
X173512764Y-69362656D01*
X173512759Y-69362665D01*
X173454302Y-69503794D01*
X173454300Y-69503802D01*
X173424500Y-69653615D01*
X171228124Y-69653615D01*
X171203250Y-69643312D01*
X171204046Y-69641388D01*
X171153531Y-69608283D01*
X171125075Y-69544470D01*
X171135637Y-69475403D01*
X171169626Y-69431802D01*
X171567048Y-69107903D01*
X171570288Y-69105353D01*
X172335161Y-68523938D01*
X172338478Y-68521503D01*
X172579071Y-68351153D01*
X177259500Y-68351153D01*
X177259500Y-68508846D01*
X177290261Y-68663489D01*
X177290264Y-68663501D01*
X177350602Y-68809172D01*
X177350609Y-68809185D01*
X177438210Y-68940288D01*
X177438213Y-68940292D01*
X177549707Y-69051786D01*
X177549711Y-69051789D01*
X177680814Y-69139390D01*
X177680827Y-69139397D01*
X177815694Y-69195260D01*
X177826503Y-69199737D01*
X177981153Y-69230499D01*
X177981156Y-69230500D01*
X177981158Y-69230500D01*
X178138844Y-69230500D01*
X178138845Y-69230499D01*
X178156597Y-69226968D01*
X178209715Y-69216403D01*
X178252303Y-69207930D01*
X178293497Y-69199737D01*
X178439179Y-69139394D01*
X178570289Y-69051789D01*
X178681789Y-68940289D01*
X178769394Y-68809179D01*
X178829737Y-68663497D01*
X178849507Y-68564107D01*
X202629500Y-68564107D01*
X202629500Y-68715892D01*
X202659108Y-68864739D01*
X202659110Y-68864747D01*
X202717190Y-69004967D01*
X202801513Y-69131165D01*
X202908834Y-69238486D01*
X203035032Y-69322809D01*
X203086451Y-69344107D01*
X203175253Y-69380890D01*
X203324107Y-69410499D01*
X203324110Y-69410500D01*
X203324112Y-69410500D01*
X203475890Y-69410500D01*
X203475891Y-69410499D01*
X203624747Y-69380890D01*
X203744432Y-69331314D01*
X203764967Y-69322809D01*
X203764967Y-69322808D01*
X203764969Y-69322808D01*
X203891165Y-69238486D01*
X203998486Y-69131165D01*
X204082808Y-69004969D01*
X204140890Y-68864747D01*
X204170500Y-68715888D01*
X204170500Y-68564112D01*
X204170500Y-68564109D01*
X204170499Y-68564107D01*
X204140891Y-68415260D01*
X204140890Y-68415253D01*
X204111849Y-68345142D01*
X204082809Y-68275032D01*
X203998486Y-68148834D01*
X203891165Y-68041513D01*
X203764967Y-67957190D01*
X203624747Y-67899110D01*
X203624739Y-67899108D01*
X203475891Y-67869500D01*
X203475888Y-67869500D01*
X203324112Y-67869500D01*
X203324109Y-67869500D01*
X203175260Y-67899108D01*
X203175252Y-67899110D01*
X203035032Y-67957190D01*
X202908834Y-68041513D01*
X202801513Y-68148834D01*
X202717190Y-68275032D01*
X202659110Y-68415252D01*
X202659108Y-68415260D01*
X202629500Y-68564107D01*
X178849507Y-68564107D01*
X178860500Y-68508842D01*
X178860500Y-68351158D01*
X178860500Y-68351155D01*
X178860499Y-68351153D01*
X178829738Y-68196510D01*
X178829737Y-68196503D01*
X178829735Y-68196498D01*
X178769397Y-68050827D01*
X178769390Y-68050814D01*
X178681789Y-67919711D01*
X178681786Y-67919707D01*
X178570292Y-67808213D01*
X178570288Y-67808210D01*
X178439185Y-67720609D01*
X178439172Y-67720602D01*
X178293501Y-67660264D01*
X178293489Y-67660261D01*
X178138845Y-67629500D01*
X178138842Y-67629500D01*
X177981158Y-67629500D01*
X177981155Y-67629500D01*
X177826510Y-67660261D01*
X177826498Y-67660264D01*
X177680827Y-67720602D01*
X177680814Y-67720609D01*
X177549711Y-67808210D01*
X177549707Y-67808213D01*
X177438213Y-67919707D01*
X177438210Y-67919711D01*
X177350609Y-68050814D01*
X177350602Y-68050827D01*
X177290264Y-68196498D01*
X177290261Y-68196510D01*
X177259500Y-68351153D01*
X172579071Y-68351153D01*
X173122640Y-67966283D01*
X173126054Y-67963952D01*
X173928509Y-67435630D01*
X173931990Y-67433421D01*
X174610902Y-67018682D01*
X174675545Y-67000500D01*
X203718354Y-67000500D01*
X203782996Y-67018682D01*
G37*
%TD.AperFunction*%
%TD*%
M02*
