%TF.GenerationSoftware,KiCad,Pcbnew,9.0.4*%
%TF.CreationDate,2025-09-15T10:19:01+02:00*%
%TF.ProjectId,gaia-primary,67616961-2d70-4726-996d-6172792e6b69,1.0*%
%TF.SameCoordinates,Original*%
%TF.FileFunction,Copper,L4,Inr*%
%TF.FilePolarity,Positive*%
%FSLAX46Y46*%
G04 Gerber Fmt 4.6, Leading zero omitted, Abs format (unit mm)*
G04 Created by KiCad (PCBNEW 9.0.4) date 2025-09-15 10:19:01*
%MOMM*%
%LPD*%
G01*
G04 APERTURE LIST*
%TA.AperFunction,ComponentPad*%
%ADD10C,0.800000*%
%TD*%
%TA.AperFunction,ComponentPad*%
%ADD11R,2.580000X1.000000*%
%TD*%
%TA.AperFunction,ComponentPad*%
%ADD12C,1.700000*%
%TD*%
%TA.AperFunction,ViaPad*%
%ADD13C,0.800000*%
%TD*%
%TA.AperFunction,ViaPad*%
%ADD14C,0.600000*%
%TD*%
%TA.AperFunction,ViaPad*%
%ADD15C,0.550000*%
%TD*%
%TA.AperFunction,ViaPad*%
%ADD16C,0.540000*%
%TD*%
%TA.AperFunction,ViaPad*%
%ADD17C,0.500000*%
%TD*%
%TA.AperFunction,Conductor*%
%ADD18C,0.400000*%
%TD*%
%TA.AperFunction,Conductor*%
%ADD19C,0.300000*%
%TD*%
G04 APERTURE END LIST*
D10*
%TO.N,Net-(U5-FORCE+)*%
%TO.C,TH3*%
X177520000Y-115450000D03*
%TO.N,Net-(U5-FORCE-)*%
X178520000Y-115450000D03*
%TD*%
D11*
%TO.N,/VOUT_A1*%
%TO.C,J3*%
X207306938Y-82500000D03*
X211476938Y-82500000D03*
%TO.N,unconnected-(J3-Pin_3-Pad3)*%
X207306938Y-84500000D03*
%TO.N,unconnected-(J3-Pin_4-Pad4)*%
X211476938Y-84500000D03*
%TO.N,unconnected-(J3-Pin_5-Pad5)*%
X207306938Y-86500000D03*
%TO.N,unconnected-(J3-Pin_6-Pad6)*%
X211476938Y-86500000D03*
%TO.N,/VOUT_B1*%
X207306938Y-88500000D03*
X211476938Y-88500000D03*
%TO.N,unconnected-(J3-Pin_9-Pad9)*%
X207306938Y-90500000D03*
%TO.N,unconnected-(J3-Pin_10-Pad10)*%
X211476938Y-90500000D03*
%TO.N,unconnected-(J3-Pin_11-Pad11)*%
X207306938Y-92500000D03*
%TO.N,unconnected-(J3-Pin_12-Pad12)*%
X211476938Y-92500000D03*
%TO.N,GND*%
X207306938Y-94500000D03*
X211476938Y-94500000D03*
X207306938Y-96500000D03*
X211476938Y-96500000D03*
%TO.N,unconnected-(J3-Pin_17-Pad17)*%
X207306938Y-98500000D03*
%TO.N,unconnected-(J3-Pin_18-Pad18)*%
X211476938Y-98500000D03*
%TO.N,unconnected-(J3-Pin_19-Pad19)*%
X207306938Y-100500000D03*
%TO.N,unconnected-(J3-Pin_20-Pad20)*%
X211476938Y-100500000D03*
%TD*%
%TO.N,I2C_2_SDA*%
%TO.C,J2*%
X166916938Y-82500000D03*
%TO.N,I2C_1_SDA*%
X171086938Y-82500000D03*
%TO.N,I2C_2_SCL*%
X166916938Y-84500000D03*
%TO.N,I2C_1_SCL*%
X171086938Y-84500000D03*
%TO.N,unconnected-(J2-Pin_5-Pad5)*%
X166916938Y-86500000D03*
%TO.N,unconnected-(J2-Pin_6-Pad6)*%
X171086938Y-86500000D03*
%TO.N,GND*%
X166916938Y-88500000D03*
%TO.N,unconnected-(J2-Pin_8-Pad8)*%
X171086938Y-88500000D03*
%TO.N,GND*%
X166916938Y-90500000D03*
%TO.N,unconnected-(J2-Pin_10-Pad10)*%
X171086938Y-90500000D03*
%TO.N,unconnected-(J2-Pin_11-Pad11)*%
X166916938Y-92500000D03*
%TO.N,unconnected-(J2-Pin_12-Pad12)*%
X171086938Y-92500000D03*
%TO.N,unconnected-(J2-Pin_13-Pad13)*%
X166916938Y-94500000D03*
%TO.N,unconnected-(J2-Pin_14-Pad14)*%
X171086938Y-94500000D03*
%TO.N,unconnected-(J2-Pin_15-Pad15)*%
X166916938Y-96500000D03*
%TO.N,unconnected-(J2-Pin_16-Pad16)*%
X171086938Y-96500000D03*
%TO.N,GND*%
X166916938Y-98500000D03*
X171086938Y-98500000D03*
X166916938Y-100500000D03*
X171086938Y-100500000D03*
%TD*%
D10*
%TO.N,Net-(U7-FORCE+)*%
%TO.C,TH4*%
X199770000Y-115450000D03*
%TO.N,Net-(U7-FORCE-)*%
X200770000Y-115450000D03*
%TD*%
D12*
%TO.N,+3.3V*%
%TO.C,J1*%
X181576938Y-107770000D03*
%TO.N,/DEBUG_SWD_CLK*%
X184116938Y-107770000D03*
%TO.N,/DEBUG_SWD_IO*%
X186656938Y-107770000D03*
%TO.N,/DEBUG_USART_RX*%
X189196938Y-107770000D03*
%TO.N,/DEBUG_USART_TX*%
X191736938Y-107770000D03*
%TO.N,/DEBUG_NRST*%
X194276938Y-107770000D03*
%TO.N,GND*%
X196816938Y-107770000D03*
%TD*%
D13*
%TO.N,GND*%
X175730000Y-80860000D03*
X181480000Y-78710000D03*
X203700000Y-79320000D03*
X167250000Y-74800000D03*
X165370000Y-78410000D03*
X175790000Y-84480000D03*
X177730000Y-111490000D03*
X181930000Y-115010000D03*
X178970000Y-105850000D03*
X212160000Y-103170000D03*
X201340000Y-76620000D03*
X201080000Y-78820000D03*
X212840000Y-79910000D03*
X210900000Y-77120000D03*
X180030000Y-67850000D03*
X185570000Y-67630000D03*
X197520000Y-69090000D03*
X190190000Y-69090000D03*
X180410000Y-71410000D03*
X177610000Y-71930000D03*
X175790000Y-73860000D03*
X175290000Y-97240000D03*
X165740000Y-102680000D03*
X203170000Y-97400000D03*
X177080000Y-103990000D03*
X198020000Y-105030000D03*
X211700000Y-106530000D03*
X203980000Y-115170000D03*
X200150000Y-112290000D03*
X197630000Y-114930000D03*
X190400000Y-112290000D03*
X189610000Y-115110000D03*
X180420000Y-112610000D03*
X167810000Y-108470000D03*
X172300000Y-112670000D03*
X170760000Y-103860000D03*
X166970000Y-105710000D03*
D14*
%TO.N,/SPI1_SCK*%
X205530000Y-113570000D03*
%TO.N,GND*%
X174120000Y-108870000D03*
X174120000Y-108130000D03*
X175593333Y-108870000D03*
X174846667Y-108870000D03*
X176300000Y-108870000D03*
X174846667Y-108130000D03*
X176300000Y-108130000D03*
X174120000Y-107420000D03*
X174846667Y-107420000D03*
X176300000Y-107420000D03*
X174120000Y-106740000D03*
X175593333Y-106740000D03*
X175593333Y-108130000D03*
X175593333Y-107420000D03*
X174846667Y-106740000D03*
X176300000Y-106740000D03*
X203900000Y-106740000D03*
X204626667Y-106740000D03*
X205373333Y-106740000D03*
X206080000Y-107420000D03*
X203900000Y-107420000D03*
X204626667Y-107420000D03*
X205373333Y-107420000D03*
X206080000Y-108130000D03*
X203900000Y-108130000D03*
X204626667Y-108130000D03*
X205373333Y-108130000D03*
X206080000Y-108870000D03*
X203900000Y-108870000D03*
X204626667Y-108870000D03*
X205373333Y-108870000D03*
X206080000Y-106740000D03*
D15*
%TO.N,+3.3V*%
X179150000Y-79520000D03*
D14*
%TO.N,/LOCAL_SDA*%
X198030000Y-111770000D03*
%TO.N,/SPI1_MOSI*%
X210050000Y-103820000D03*
%TO.N,/SPI1_CS1*%
X170975380Y-70415380D03*
X170970000Y-107850000D03*
D15*
%TO.N,+3.3V*%
X182020000Y-70280000D03*
D14*
%TO.N,/GLOBAL_SCL*%
X169130000Y-79660000D03*
%TO.N,/DEBUG_NRST*%
X173581000Y-78780000D03*
%TO.N,/DEBUG_USART_TX*%
X178060000Y-68430000D03*
%TO.N,/DEBUG_SWD_CLK*%
X172350000Y-71160000D03*
D15*
%TO.N,GND*%
X176650000Y-75440000D03*
X175200000Y-75420000D03*
X172650000Y-77540000D03*
%TO.N,+3.3V*%
X174660000Y-104250000D03*
X173730000Y-104250000D03*
%TO.N,GND*%
X174660000Y-103290000D03*
X173730000Y-103290000D03*
%TO.N,+3.3V*%
X204420000Y-104260000D03*
X203520000Y-104260000D03*
%TO.N,GND*%
X204440000Y-103290000D03*
D16*
%TO.N,+3.3V*%
X196920000Y-112700000D03*
D14*
%TO.N,/LOCAL_SCL*%
X195960000Y-111080000D03*
D15*
%TO.N,+3.3V*%
X187310000Y-75460000D03*
%TO.N,GND*%
X188270000Y-75480000D03*
X188220000Y-74000000D03*
X190580000Y-75520000D03*
X189820000Y-73982500D03*
X190620000Y-73982500D03*
%TO.N,+3.3V*%
X191540000Y-75520000D03*
D14*
%TO.N,/LOCAL_SCL*%
X202957500Y-70632500D03*
D16*
%TO.N,+3.3V*%
X187380000Y-69420000D03*
D15*
%TO.N,GND*%
X195170000Y-71510000D03*
D14*
X175146068Y-71042030D03*
D17*
X184580000Y-114197500D03*
D15*
X195100000Y-115240000D03*
D16*
X185460000Y-68970000D03*
D14*
X178780000Y-74260000D03*
D17*
X193300000Y-114197500D03*
D15*
X207390000Y-77610000D03*
X182980000Y-70280000D03*
D17*
X183780000Y-111822500D03*
D15*
X174200000Y-68770000D03*
X198170000Y-75730000D03*
X203950000Y-77610000D03*
D17*
X192500000Y-111822500D03*
D15*
X186370000Y-115240000D03*
D16*
X172160000Y-75980000D03*
D14*
X202880000Y-71470000D03*
D15*
X203513984Y-103290000D03*
D14*
X200210000Y-73810000D03*
D15*
X188220000Y-71787500D03*
D13*
X207110000Y-71710000D03*
D15*
X194270000Y-73370000D03*
D14*
X208837623Y-74969463D03*
D15*
X179150000Y-80480000D03*
%TO.N,Net-(C12-Pad1)*%
X177270000Y-80540000D03*
D14*
%TO.N,Net-(U4-PD0)*%
X175860000Y-76499998D03*
%TO.N,+1V8*%
X201620000Y-72220000D03*
X194060000Y-71980000D03*
%TO.N,/DEBUG_SWD_IO*%
X176070000Y-71110000D03*
%TO.N,/DEBUG_USART_RX*%
X179219972Y-72390028D03*
%TO.N,/GLOBAL_SCL*%
X172280000Y-73300000D03*
X169140000Y-74290000D03*
%TO.N,/GLOBAL_SDA*%
X172260000Y-74120000D03*
D15*
%TO.N,+3.3V*%
X178220000Y-80540000D03*
D13*
X210280000Y-74560000D03*
D16*
X188170000Y-112700000D03*
D14*
X186660000Y-73982500D03*
D13*
X197770000Y-70800000D03*
D16*
X203400000Y-68640000D03*
D15*
X174200000Y-69730000D03*
X173605000Y-77540000D03*
D14*
%TO.N,/READY2*%
X203755000Y-86370000D03*
X192590000Y-76845000D03*
%TO.N,/SPI1_CS1*%
X180840000Y-76660000D03*
X178548106Y-107845000D03*
%TO.N,/SPI1_SCK*%
X185776745Y-75884130D03*
X179040000Y-108530000D03*
X208645000Y-108495000D03*
%TO.N,/READY1*%
X170890000Y-72470000D03*
X177720000Y-73470000D03*
%TO.N,/SPI1_CS2*%
X184450737Y-76285000D03*
X203551942Y-81048058D03*
X204614939Y-99428945D03*
X208140000Y-107820000D03*
%TO.N,/SPI1_MOSI*%
X197000707Y-110196707D03*
%TO.N,/SPI1_MISO*%
X181870000Y-109571000D03*
X209425000Y-107170000D03*
X185246606Y-75285000D03*
%TO.N,/LOCAL_SCL*%
X184650000Y-72940000D03*
X187190000Y-111080000D03*
D16*
%TO.N,/LOCAL_SDA*%
X187380000Y-70440000D03*
D14*
%TO.N,/SCL_1V8*%
X201062525Y-69702475D03*
%TO.N,/SDA_1V8*%
X200115000Y-74800000D03*
%TD*%
D18*
%TO.N,/SPI1_SCK*%
X208645000Y-110455000D02*
X205530000Y-113570000D01*
X208645000Y-108495000D02*
X208645000Y-110455000D01*
D19*
%TO.N,/DEBUG_USART_TX*%
X177600000Y-67970000D02*
X178060000Y-68430000D01*
X173920000Y-67970000D02*
X177600000Y-67970000D01*
X172980000Y-68910000D02*
X173920000Y-67970000D01*
X172980000Y-69330000D02*
X172980000Y-68910000D01*
X171626380Y-70683620D02*
X172980000Y-69330000D01*
X171626380Y-70685034D02*
X171626380Y-70683620D01*
X171245034Y-71066380D02*
X171626380Y-70685034D01*
X171243620Y-71066380D02*
X171245034Y-71066380D01*
X170239000Y-72071000D02*
X171243620Y-71066380D01*
X170239000Y-80841000D02*
X170239000Y-72071000D01*
X169445938Y-81634062D02*
X170239000Y-80841000D01*
X169445938Y-105415938D02*
X169445938Y-81634062D01*
X171229000Y-107199000D02*
X169445938Y-105415938D01*
X171239654Y-107199000D02*
X171229000Y-107199000D01*
X171621000Y-107591000D02*
X171621000Y-107580346D01*
X174252000Y-110222000D02*
X171621000Y-107591000D01*
X189284938Y-110222000D02*
X174252000Y-110222000D01*
X171621000Y-107580346D02*
X171239654Y-107199000D01*
X191736938Y-107770000D02*
X189284938Y-110222000D01*
D18*
%TO.N,/SPI1_CS1*%
X170924620Y-70415380D02*
X170975380Y-70415380D01*
X168607938Y-80129302D02*
X168429000Y-79950364D01*
X168429000Y-79950364D02*
X168429000Y-72911000D01*
X169240000Y-107850000D02*
X168607938Y-107217938D01*
X170970000Y-107850000D02*
X169240000Y-107850000D01*
X168429000Y-72911000D02*
X170924620Y-70415380D01*
X168607938Y-107217938D02*
X168607938Y-80129302D01*
%TO.N,/LOCAL_SDA*%
X201061000Y-108739000D02*
X198030000Y-111770000D01*
X201061000Y-101835526D02*
X201061000Y-108739000D01*
X205057000Y-97839526D02*
X201061000Y-101835526D01*
X205057000Y-85007058D02*
X205057000Y-97839526D01*
X198760000Y-78710058D02*
X205057000Y-85007058D01*
X198760000Y-76096009D02*
X198760000Y-78710058D01*
X198846000Y-76010009D02*
X198760000Y-76096009D01*
X198760000Y-75363991D02*
X198846000Y-75449991D01*
X198101786Y-69999000D02*
X198760000Y-70657214D01*
X187821000Y-69999000D02*
X198101786Y-69999000D01*
X198760000Y-70657214D02*
X198760000Y-75363991D01*
X198846000Y-75449991D02*
X198846000Y-76010009D01*
X187380000Y-70440000D02*
X187821000Y-69999000D01*
D19*
%TO.N,/DEBUG_USART_RX*%
X187995938Y-106569000D02*
X189196938Y-107770000D01*
X186164458Y-106569000D02*
X187995938Y-106569000D01*
X185624459Y-106029000D02*
X186164458Y-106569000D01*
X182951450Y-106029000D02*
X185624459Y-106029000D01*
X182373930Y-105451480D02*
X182951450Y-106029000D01*
X173729938Y-97722898D02*
X181458520Y-105451480D01*
X173729938Y-83358582D02*
X173729938Y-97722898D01*
X179431000Y-74529654D02*
X174732000Y-79228654D01*
X179431000Y-72601056D02*
X179431000Y-74529654D01*
X174732000Y-79228654D02*
X174732000Y-82356521D01*
X181458520Y-105451480D02*
X182373930Y-105451480D01*
X179219972Y-72390028D02*
X179431000Y-72601056D01*
X174732000Y-82356521D02*
X173729938Y-83358582D01*
%TO.N,/DEBUG_SWD_IO*%
X174231000Y-72949000D02*
X176070000Y-71110000D01*
X173228938Y-83151062D02*
X174231000Y-82149000D01*
X181366520Y-106068000D02*
X173228938Y-97930418D01*
X182281930Y-106068000D02*
X181366520Y-106068000D01*
X173228938Y-97930418D02*
X173228938Y-83151062D01*
X174231000Y-82149000D02*
X174231000Y-72949000D01*
X182743930Y-106530000D02*
X182281930Y-106068000D01*
X186656938Y-107770000D02*
X185416938Y-106530000D01*
X185416938Y-106530000D02*
X182743930Y-106530000D01*
D18*
%TO.N,/LOCAL_SCL*%
X204456000Y-85256000D02*
X192140000Y-72940000D01*
X204456000Y-97590584D02*
X204456000Y-85256000D01*
X200460000Y-101586584D02*
X204456000Y-97590584D01*
X200460000Y-107727364D02*
X200460000Y-101586584D01*
X197107364Y-111080000D02*
X200460000Y-107727364D01*
X195960000Y-111080000D02*
X197107364Y-111080000D01*
X192140000Y-72940000D02*
X184650000Y-72940000D01*
%TO.N,/GLOBAL_SCL*%
X169100000Y-74330000D02*
X169140000Y-74290000D01*
X169100000Y-79630000D02*
X169100000Y-74330000D01*
X169130000Y-79660000D02*
X169100000Y-79630000D01*
D19*
%TO.N,/DEBUG_SWD_CLK*%
X172350000Y-71930654D02*
X172350000Y-71160000D01*
X171539000Y-72741654D02*
X172350000Y-71930654D01*
X172727938Y-78503236D02*
X171539000Y-77314298D01*
X172727938Y-98137938D02*
X172727938Y-78503236D01*
X181159000Y-106569000D02*
X172727938Y-98137938D01*
X171539000Y-77314298D02*
X171539000Y-72741654D01*
X182777938Y-107272529D02*
X182074409Y-106569000D01*
X182074409Y-106569000D02*
X181159000Y-106569000D01*
X183619467Y-107272529D02*
X182777938Y-107272529D01*
X184116938Y-107770000D02*
X183619467Y-107272529D01*
D18*
%TO.N,/LOCAL_SCL*%
X184650000Y-71201062D02*
X187582062Y-68269000D01*
X187582062Y-68269000D02*
X200619000Y-68269000D01*
X184650000Y-72940000D02*
X184650000Y-71201062D01*
X202957500Y-70607500D02*
X200619000Y-68269000D01*
X202957500Y-70632500D02*
X202957500Y-70607500D01*
X187190000Y-111080000D02*
X195960000Y-111080000D01*
%TD*%
M02*
