M48
; DRILL file {KiCad 9.0.4} date 2025-09-18T12:06:03+0200
; FORMAT={-:-/ absolute / inch / decimal}
; #@! TF.CreationDate,2025-09-18T12:06:03+02:00
; #@! TF.GenerationSoftware,Kicad,Pcbnew,9.0.4
; #@! TF.FileFunction,Plated,1,6,PTH
FMAT,2
INCH
; #@! TA.AperFunction,Plated,PTH,ViaDrill
T1C0.0118
; #@! TA.AperFunction,Plated,PTH,ViaDrill
T2C0.0157
; #@! TA.AperFunction,Plated,PTH,ComponentDrill
T3C0.0157
; #@! TA.AperFunction,Plated,PTH,ComponentDrill
T4C0.0276
; #@! TA.AperFunction,Plated,PTH,ComponentDrill
T5C0.0394
%
G90
G05
T1
X6.6587Y-3.1362
X6.6591Y-2.9248
X6.728Y-2.8531
X6.7311Y-4.2461
X6.7313Y-2.7723
X6.778Y-2.9913
X6.7819Y-2.9181
X6.7827Y-2.8858
X6.7854Y-2.8016
X6.7972Y-3.0528
X6.8339Y-3.1016
X6.8348Y-3.0528
X6.8398Y-4.0665
X6.8398Y-4.1043
X6.8551Y-4.2024
X6.8551Y-4.2291
X6.8551Y-4.2571
X6.8551Y-4.2862
X6.8583Y-2.7075
X6.8583Y-2.7453
X6.8764Y-4.0665
X6.8764Y-4.1043
X6.8837Y-4.2024
X6.8837Y-4.2291
X6.8837Y-4.2571
X6.8837Y-4.2862
X6.8955Y-2.7969
X6.8976Y-2.9693
X6.9131Y-4.2024
X6.9131Y-4.2291
X6.9131Y-4.2571
X6.9131Y-4.2862
X6.9236Y-3.0118
X6.9319Y-2.7996
X6.9409Y-4.2024
X6.9409Y-4.2291
X6.9409Y-4.2571
X6.9409Y-4.2862
X6.9547Y-2.9701
X6.9791Y-3.1709
X6.9969Y-2.8925
X7.0102Y-2.6941
X7.0165Y-3.1709
X7.0295Y-4.2459
X7.0386Y-2.9236
X7.0488Y-4.2728
X7.0531Y-3.1307
X7.0531Y-3.1685
X7.0559Y-2.85
X7.1197Y-3.0181
X7.1602Y-4.3138
X7.1661Y-2.7669
X7.2039Y-2.7669
X7.2354Y-4.4025
X7.2618Y-3.0033
X7.2669Y-4.496
X7.2697Y-2.8717
X7.2932Y-2.964
X7.3016Y-2.7154
X7.314Y-2.9876
X7.3374Y-4.537
X7.3488Y-2.9127
X7.3697Y-4.3732
X7.3744Y-2.9709
X7.3772Y-2.7331
X7.3772Y-2.7732
X7.4083Y-4.437
X7.4102Y-2.8263
X7.4102Y-2.9134
X7.4122Y-2.9717
X7.4732Y-2.9127
X7.5031Y-2.9732
X7.5047Y-2.9127
X7.5409Y-2.9732
X7.5787Y-4.4025
X7.5823Y-3.0254
X7.6102Y-4.496
X7.6402Y-2.8339
X7.6484Y-2.8886
X7.6811Y-4.537
X7.6839Y-2.8154
X7.715Y-4.3732
X7.7528Y-4.437
X7.7559Y-4.3385
X7.7965Y-4.4004
X7.802Y-2.9815
X7.8785Y-2.9449
X7.8823Y-2.9059
X7.9158Y-2.7442
X7.9378Y-2.8433
X7.9874Y-2.8138
X7.9905Y-2.7808
X8.0079Y-2.7024
X8.0124Y-4.0665
X8.0126Y-4.1047
X8.0139Y-3.1909
X8.0219Y-3.4004
X8.0276Y-4.2024
X8.0276Y-4.2291
X8.0276Y-4.2571
X8.0276Y-4.2862
X8.0295Y-3.0555
X8.048Y-4.1047
X8.0488Y-4.0665
X8.0557Y-3.9145
X8.0562Y-4.2024
X8.0562Y-4.2291
X8.0562Y-4.2571
X8.0562Y-4.2862
X8.0856Y-4.2024
X8.0856Y-4.2291
X8.0856Y-4.2571
X8.0856Y-4.2862
X8.0917Y-4.4713
X8.1134Y-4.2024
X8.1134Y-4.2291
X8.1134Y-4.2571
X8.1134Y-4.2862
X8.165Y-3.0555
X8.1945Y-4.2449
X8.2144Y-4.2715
X8.222Y-2.9516
X8.2451Y-4.2193
X8.2697Y-4.0874
T2
X6.5106Y-3.087
X6.5252Y-4.0425
X6.5736Y-4.1618
X6.5846Y-2.9449
X6.6067Y-4.2705
X6.7228Y-4.089
X6.7835Y-4.4358
X6.9012Y-3.8283
X6.9185Y-3.1835
X6.9209Y-2.9079
X6.9209Y-3.326
X6.9717Y-4.0941
X6.9925Y-2.8319
X6.9972Y-4.3894
X7.0461Y-4.1673
X7.0878Y-2.6713
X7.1028Y-2.8114
X7.1031Y-4.4335
X7.1449Y-3.0988
X7.1626Y-4.528
X7.3059Y-2.6626
X7.465Y-4.5319
X7.4878Y-2.7201
X7.4961Y-4.4209
X7.7764Y-2.7201
X7.7807Y-4.5248
X7.7862Y-2.7874
X7.7961Y-4.135
X7.8799Y-4.4209
X7.9165Y-3.1031
X7.9268Y-3.0165
X7.9988Y-3.8346
X8.0197Y-3.1228
X8.0307Y-4.5343
X8.1539Y-2.8232
X8.2787Y-2.9354
X8.3031Y-3.0362
X8.3346Y-4.1941
X8.3528Y-4.0618
X8.3795Y-3.1461
T3
X6.989Y-4.5453
X7.0283Y-4.5453
X7.865Y-4.5453
X7.9043Y-4.5453
T4
X6.5715Y-3.248
X6.5715Y-3.3268
X6.5715Y-3.4055
X6.5715Y-3.4843
X6.5715Y-3.563
X6.5715Y-3.6417
X6.5715Y-3.7205
X6.5715Y-3.7992
X6.5715Y-3.878
X6.5715Y-3.9567
X6.7357Y-3.248
X6.7357Y-3.3268
X6.7357Y-3.4055
X6.7357Y-3.4843
X6.7357Y-3.563
X6.7357Y-3.6417
X6.7357Y-3.7205
X6.7357Y-3.7992
X6.7357Y-3.878
X6.7357Y-3.9567
X8.1617Y-3.248
X8.1617Y-3.3268
X8.1617Y-3.4055
X8.1617Y-3.4843
X8.1617Y-3.563
X8.1617Y-3.6417
X8.1617Y-3.7205
X8.1617Y-3.7992
X8.1617Y-3.878
X8.1617Y-3.9567
X8.3259Y-3.248
X8.3259Y-3.3268
X8.3259Y-3.4055
X8.3259Y-3.4843
X8.3259Y-3.563
X8.3259Y-3.6417
X8.3259Y-3.7205
X8.3259Y-3.7992
X8.3259Y-3.878
X8.3259Y-3.9567
T5
X7.1487Y-4.2429
X7.2487Y-4.2429
X7.3487Y-4.2429
X7.4487Y-4.2429
X7.5487Y-4.2429
X7.6487Y-4.2429
X7.7487Y-4.2429
M30
