%TF.GenerationSoftware,KiCad,Pcbnew,9.0.4*%
%TF.CreationDate,2025-09-18T12:27:23+02:00*%
%TF.ProjectId,gaia-primary-stencil,67616961-2d70-4726-996d-6172792d7374,rev?*%
%TF.SameCoordinates,Original*%
%TF.FileFunction,Paste,Top*%
%TF.FilePolarity,Positive*%
%FSLAX46Y46*%
G04 Gerber Fmt 4.6, Leading zero omitted, Abs format (unit mm)*
G04 Created by KiCad (PCBNEW 9.0.4) date 2025-09-18 12:27:23*
%MOMM*%
%LPD*%
G01*
G04 APERTURE LIST*
G04 Aperture macros list*
%AMRoundRect*
0 Rectangle with rounded corners*
0 $1 Rounding radius*
0 $2 $3 $4 $5 $6 $7 $8 $9 X,Y pos of 4 corners*
0 Add a 4 corners polygon primitive as box body*
4,1,4,$2,$3,$4,$5,$6,$7,$8,$9,$2,$3,0*
0 Add four circle primitives for the rounded corners*
1,1,$1+$1,$2,$3*
1,1,$1+$1,$4,$5*
1,1,$1+$1,$6,$7*
1,1,$1+$1,$8,$9*
0 Add four rect primitives between the rounded corners*
20,1,$1+$1,$2,$3,$4,$5,0*
20,1,$1+$1,$4,$5,$6,$7,0*
20,1,$1+$1,$6,$7,$8,$9,0*
20,1,$1+$1,$8,$9,$2,$3,0*%
G04 Aperture macros list end*
%ADD10RoundRect,0.135000X0.185000X-0.135000X0.185000X0.135000X-0.185000X0.135000X-0.185000X-0.135000X0*%
%ADD11RoundRect,0.225000X0.225000X0.250000X-0.225000X0.250000X-0.225000X-0.250000X0.225000X-0.250000X0*%
%ADD12RoundRect,0.147059X-0.852941X-0.352941X0.852941X-0.352941X0.852941X0.352941X-0.852941X0.352941X0*%
%ADD13RoundRect,0.140000X-0.170000X0.140000X-0.170000X-0.140000X0.170000X-0.140000X0.170000X0.140000X0*%
%ADD14R,0.300000X1.300000*%
%ADD15R,2.000000X1.600000*%
%ADD16R,8.000000X8.000000*%
%ADD17RoundRect,0.135000X-0.185000X0.135000X-0.185000X-0.135000X0.185000X-0.135000X0.185000X0.135000X0*%
%ADD18RoundRect,0.140000X0.170000X-0.140000X0.170000X0.140000X-0.170000X0.140000X-0.170000X-0.140000X0*%
%ADD19RoundRect,0.073750X0.221250X-0.531250X0.221250X0.531250X-0.221250X0.531250X-0.221250X-0.531250X0*%
%ADD20RoundRect,0.225000X-0.225000X-0.250000X0.225000X-0.250000X0.225000X0.250000X-0.225000X0.250000X0*%
%ADD21C,0.400000*%
%ADD22RoundRect,0.140000X0.140000X0.170000X-0.140000X0.170000X-0.140000X-0.170000X0.140000X-0.170000X0*%
%ADD23RoundRect,0.147059X0.352941X-0.852941X0.352941X0.852941X-0.352941X0.852941X-0.352941X-0.852941X0*%
%ADD24RoundRect,0.200000X-0.275000X0.200000X-0.275000X-0.200000X0.275000X-0.200000X0.275000X0.200000X0*%
%ADD25RoundRect,0.150000X-0.512500X-0.150000X0.512500X-0.150000X0.512500X0.150000X-0.512500X0.150000X0*%
%ADD26RoundRect,0.250000X-0.625000X0.312500X-0.625000X-0.312500X0.625000X-0.312500X0.625000X0.312500X0*%
%ADD27RoundRect,0.225000X0.250000X-0.225000X0.250000X0.225000X-0.250000X0.225000X-0.250000X-0.225000X0*%
%ADD28RoundRect,0.125000X-0.125000X-0.137500X0.125000X-0.137500X0.125000X0.137500X-0.125000X0.137500X0*%
%ADD29RoundRect,0.075000X0.075000X-0.662500X0.075000X0.662500X-0.075000X0.662500X-0.075000X-0.662500X0*%
%ADD30RoundRect,0.075000X0.662500X-0.075000X0.662500X0.075000X-0.662500X0.075000X-0.662500X-0.075000X0*%
%ADD31RoundRect,0.250000X0.250000X-1.000000X0.250000X1.000000X-0.250000X1.000000X-0.250000X-1.000000X0*%
%ADD32RoundRect,0.250000X-0.375000X-0.375000X0.375000X-0.375000X0.375000X0.375000X-0.375000X0.375000X0*%
%ADD33RoundRect,0.075000X-0.412500X-0.075000X0.412500X-0.075000X0.412500X0.075000X-0.412500X0.075000X0*%
%ADD34RoundRect,0.075000X-0.075000X-0.412500X0.075000X-0.412500X0.075000X0.412500X-0.075000X0.412500X0*%
%ADD35RoundRect,0.140000X-0.140000X-0.170000X0.140000X-0.170000X0.140000X0.170000X-0.140000X0.170000X0*%
%ADD36RoundRect,0.050000X-0.050000X0.225000X-0.050000X-0.225000X0.050000X-0.225000X0.050000X0.225000X0*%
%ADD37RoundRect,0.050000X-0.225000X-0.050000X0.225000X-0.050000X0.225000X0.050000X-0.225000X0.050000X0*%
%ADD38RoundRect,0.135000X0.135000X0.185000X-0.135000X0.185000X-0.135000X-0.185000X0.135000X-0.185000X0*%
%ADD39RoundRect,0.150000X-0.150000X0.675000X-0.150000X-0.675000X0.150000X-0.675000X0.150000X0.675000X0*%
%ADD40R,0.550000X1.145000*%
%ADD41R,1.145000X0.550000*%
%ADD42RoundRect,0.225000X-0.250000X0.225000X-0.250000X-0.225000X0.250000X-0.225000X0.250000X0.225000X0*%
%ADD43RoundRect,0.218750X0.218750X0.256250X-0.218750X0.256250X-0.218750X-0.256250X0.218750X-0.256250X0*%
%ADD44RoundRect,0.200000X-0.200000X-0.275000X0.200000X-0.275000X0.200000X0.275000X-0.200000X0.275000X0*%
%ADD45RoundRect,0.050000X0.050000X-0.225000X0.050000X0.225000X-0.050000X0.225000X-0.050000X-0.225000X0*%
%ADD46RoundRect,0.050000X0.225000X0.050000X-0.225000X0.050000X-0.225000X-0.050000X0.225000X-0.050000X0*%
G04 APERTURE END LIST*
D10*
%TO.C,R12*%
X116574000Y-143521000D03*
X116574000Y-142501000D03*
%TD*%
D11*
%TO.C,C5*%
X140892000Y-131561000D03*
X139342000Y-131561000D03*
%TD*%
D12*
%TO.C,J3*%
X114785000Y-135893500D03*
X114785000Y-138436000D03*
X114785000Y-140978500D03*
X114785000Y-143521000D03*
X114785000Y-146063500D03*
%TD*%
D13*
%TO.C,C42*%
X118670000Y-124292000D03*
X118670000Y-125252000D03*
%TD*%
D11*
%TO.C,C6*%
X117029500Y-131560500D03*
X115479500Y-131560500D03*
%TD*%
D14*
%TO.C,J6*%
X134470000Y-123025000D03*
X133970000Y-123025000D03*
X133470000Y-123025000D03*
X132970000Y-123025000D03*
X132470000Y-123025000D03*
X131970000Y-123025000D03*
X131470000Y-123025000D03*
X130970000Y-123025000D03*
X130470000Y-123025000D03*
X129970000Y-123025000D03*
X129470000Y-123025000D03*
X128970000Y-123025000D03*
X128470000Y-123025000D03*
X127970000Y-123025000D03*
X127470000Y-123025000D03*
X126970000Y-123025000D03*
X126470000Y-123025000D03*
X125970000Y-123025000D03*
X125470000Y-123025000D03*
X124970000Y-123025000D03*
X124470000Y-123025000D03*
X123970000Y-123025000D03*
X123470000Y-123025000D03*
X122970000Y-123025000D03*
D15*
X121270000Y-125705000D03*
X136170000Y-125705000D03*
D16*
X128720000Y-145300000D03*
%TD*%
D17*
%TO.C,R13*%
X116574000Y-139958500D03*
X116574000Y-140978500D03*
%TD*%
D18*
%TO.C,C43*%
X138765000Y-124196000D03*
X138765000Y-123236000D03*
%TD*%
D19*
%TO.C,IC2*%
X115779500Y-129972500D03*
X116729500Y-129972500D03*
X117679500Y-129972500D03*
X117679500Y-127462500D03*
X115779500Y-127462500D03*
%TD*%
D20*
%TO.C,C44*%
X115734500Y-125878500D03*
X117284500Y-125878500D03*
%TD*%
%TO.C,C38*%
X139598000Y-125878000D03*
X141148000Y-125878000D03*
%TD*%
D19*
%TO.C,U6*%
X139643000Y-129975000D03*
X140593000Y-129975000D03*
X141543000Y-129975000D03*
X141543000Y-127465000D03*
X139643000Y-127465000D03*
%TD*%
D21*
%TO.C,IC1*%
X125067012Y-160029000D03*
X125067012Y-159229000D03*
X125067012Y-158429000D03*
X125067012Y-155229000D03*
X125067012Y-154429000D03*
X125067012Y-153629000D03*
X125867012Y-160029000D03*
X125867012Y-159229000D03*
X125867012Y-158429000D03*
X125867012Y-155229000D03*
X125867012Y-154429000D03*
X125867012Y-153629000D03*
X126667012Y-160029000D03*
X126667012Y-159229000D03*
X126667012Y-158429000D03*
X126667012Y-155229000D03*
X126667012Y-154429000D03*
X126667012Y-153629000D03*
X127467012Y-160029000D03*
X127467012Y-159229000D03*
X127467012Y-158429000D03*
X127467012Y-155229000D03*
X127467012Y-154429000D03*
X127467012Y-153629000D03*
X128267012Y-160029000D03*
X128267012Y-159229000D03*
X128267012Y-158429000D03*
X128267012Y-155229000D03*
X128267012Y-154429000D03*
X128267012Y-153629000D03*
X129067012Y-160029000D03*
X129067012Y-159229000D03*
X129067012Y-158429000D03*
X129067012Y-155229000D03*
X129067012Y-154429000D03*
X129067012Y-153629000D03*
X129867012Y-160029000D03*
X129867012Y-159229000D03*
X129867012Y-158429000D03*
X129867012Y-155229000D03*
X129867012Y-154429000D03*
X129867012Y-153629000D03*
X130667012Y-160029000D03*
X130667012Y-159229000D03*
X130667012Y-158429000D03*
X130667012Y-155229000D03*
X130667012Y-154429000D03*
X130667012Y-153629000D03*
X131467012Y-160029000D03*
X131467012Y-159229000D03*
X131467012Y-158429000D03*
X131467012Y-155229000D03*
X131467012Y-154429000D03*
X131467012Y-153629000D03*
%TD*%
D22*
%TO.C,C8*%
X76450000Y-113220000D03*
X75490000Y-113220000D03*
%TD*%
D18*
%TO.C,C15*%
X94513984Y-102230000D03*
X94513984Y-101270000D03*
%TD*%
D23*
%TO.C,J2*%
X138548159Y-101164498D03*
X141090659Y-101164498D03*
X143633159Y-101164498D03*
X146175659Y-101164498D03*
X148718159Y-101164498D03*
%TD*%
D24*
%TO.C,R1*%
X143252326Y-88619498D03*
X143252326Y-90269498D03*
%TD*%
D25*
%TO.C,U2*%
X142931745Y-77764498D03*
X142931745Y-78714498D03*
X142931745Y-79664498D03*
X145206745Y-79664498D03*
X145206745Y-77764498D03*
%TD*%
D26*
%TO.C,R10*%
X60990000Y-104417500D03*
X60990000Y-107342500D03*
%TD*%
D27*
%TO.C,C4*%
X146891745Y-79449498D03*
X146891745Y-77899498D03*
%TD*%
D28*
%TO.C,U6*%
X73880000Y-159632500D03*
X74680000Y-159632500D03*
X75480000Y-159632500D03*
X76280000Y-159632500D03*
X76280000Y-162007500D03*
X75480000Y-162007500D03*
X74680000Y-162007500D03*
X73880000Y-162007500D03*
%TD*%
D18*
%TO.C,C6*%
X64740000Y-102230000D03*
X64740000Y-101270000D03*
%TD*%
D29*
%TO.C,U4*%
X65140000Y-76052500D03*
X65640000Y-76052500D03*
X66140000Y-76052500D03*
X66640000Y-76052500D03*
X67140000Y-76052500D03*
X67640000Y-76052500D03*
X68140000Y-76052500D03*
X68640000Y-76052500D03*
X69140000Y-76052500D03*
X69640000Y-76052500D03*
X70140000Y-76052500D03*
X70640000Y-76052500D03*
D30*
X72052500Y-74640000D03*
X72052500Y-74140000D03*
X72052500Y-73640000D03*
X72052500Y-73140000D03*
X72052500Y-72640000D03*
X72052500Y-72140000D03*
X72052500Y-71640000D03*
X72052500Y-71140000D03*
X72052500Y-70640000D03*
X72052500Y-70140000D03*
X72052500Y-69640000D03*
X72052500Y-69140000D03*
D29*
X70640000Y-67727500D03*
X70140000Y-67727500D03*
X69640000Y-67727500D03*
X69140000Y-67727500D03*
X68640000Y-67727500D03*
X68140000Y-67727500D03*
X67640000Y-67727500D03*
X67140000Y-67727500D03*
X66640000Y-67727500D03*
X66140000Y-67727500D03*
X65640000Y-67727500D03*
X65140000Y-67727500D03*
D30*
X63727500Y-69140000D03*
X63727500Y-69640000D03*
X63727500Y-70140000D03*
X63727500Y-70640000D03*
X63727500Y-71140000D03*
X63727500Y-71640000D03*
X63727500Y-72140000D03*
X63727500Y-72640000D03*
X63727500Y-73140000D03*
X63727500Y-73640000D03*
X63727500Y-74140000D03*
X63727500Y-74640000D03*
%TD*%
D10*
%TO.C,R15*%
X87000000Y-110680000D03*
X87000000Y-109660000D03*
%TD*%
D31*
%TO.C,J3*%
X113120000Y-71780000D03*
X115620000Y-71780000D03*
X117620000Y-71780000D03*
X120120000Y-71780000D03*
%TD*%
D22*
%TO.C,C30*%
X98390000Y-70710000D03*
X97430000Y-70710000D03*
%TD*%
D32*
%TO.C,U5*%
X64536301Y-154855000D03*
X64536301Y-156405000D03*
X66086301Y-154855000D03*
X66086301Y-156405000D03*
D33*
X62948801Y-154330000D03*
X62948801Y-154980000D03*
X62948801Y-155630000D03*
X62948801Y-156280000D03*
X62948801Y-156930000D03*
D34*
X64011301Y-157992500D03*
X64661301Y-157992500D03*
X65311301Y-157992500D03*
X65961301Y-157992500D03*
X66611301Y-157992500D03*
D33*
X67673801Y-156930000D03*
X67673801Y-156280000D03*
X67673801Y-155630000D03*
X67673801Y-154980000D03*
X67673801Y-154330000D03*
D34*
X66611301Y-153267500D03*
X65961301Y-153267500D03*
X65311301Y-153267500D03*
X64661301Y-153267500D03*
X64011301Y-153267500D03*
%TD*%
D32*
%TO.C,U5*%
X64516301Y-105025000D03*
X64516301Y-106575000D03*
X66066301Y-105025000D03*
X66066301Y-106575000D03*
D33*
X62928801Y-104500000D03*
X62928801Y-105150000D03*
X62928801Y-105800000D03*
X62928801Y-106450000D03*
X62928801Y-107100000D03*
D34*
X63991301Y-108162500D03*
X64641301Y-108162500D03*
X65291301Y-108162500D03*
X65941301Y-108162500D03*
X66591301Y-108162500D03*
D33*
X67653801Y-107100000D03*
X67653801Y-106450000D03*
X67653801Y-105800000D03*
X67653801Y-105150000D03*
X67653801Y-104500000D03*
D34*
X66591301Y-103437500D03*
X65941301Y-103437500D03*
X65291301Y-103437500D03*
X64641301Y-103437500D03*
X63991301Y-103437500D03*
%TD*%
D17*
%TO.C,R14*%
X77460000Y-67400000D03*
X77460000Y-68420000D03*
%TD*%
D35*
%TO.C,C27*%
X84350000Y-71350000D03*
X85310000Y-71350000D03*
%TD*%
D28*
%TO.C,U6*%
X73860000Y-109802500D03*
X74660000Y-109802500D03*
X75460000Y-109802500D03*
X76260000Y-109802500D03*
X76260000Y-112177500D03*
X75460000Y-112177500D03*
X74660000Y-112177500D03*
X73860000Y-112177500D03*
%TD*%
D10*
%TO.C,R5*%
X67350000Y-78520000D03*
X67350000Y-77500000D03*
%TD*%
D13*
%TO.C,C20*%
X69230000Y-77500000D03*
X69230000Y-78460000D03*
%TD*%
D27*
%TO.C,C4*%
X119331745Y-79059498D03*
X119331745Y-77509498D03*
%TD*%
D22*
%TO.C,C9*%
X83320000Y-113220000D03*
X82360000Y-113220000D03*
%TD*%
D13*
%TO.C,C14*%
X93593984Y-101270000D03*
X93593984Y-102230000D03*
%TD*%
D36*
%TO.C,U12*%
X88830000Y-119510000D03*
X88430000Y-119510000D03*
X88030000Y-119510000D03*
X87630000Y-119510000D03*
X87230000Y-119510000D03*
X86830000Y-119510000D03*
D37*
X86330000Y-120010000D03*
X86330000Y-120410000D03*
X86330000Y-120810000D03*
X86330000Y-121210000D03*
X86330000Y-121610000D03*
X86330000Y-122010000D03*
D36*
X86830000Y-122510000D03*
X87230000Y-122510000D03*
X87630000Y-122510000D03*
X88030000Y-122510000D03*
X88430000Y-122510000D03*
X88830000Y-122510000D03*
D37*
X89330000Y-122010000D03*
X89330000Y-121610000D03*
X89330000Y-121210000D03*
X89330000Y-120810000D03*
X89330000Y-120410000D03*
X89330000Y-120010000D03*
%TD*%
D27*
%TO.C,C1*%
X146225659Y-90219498D03*
X146225659Y-88669498D03*
%TD*%
D25*
%TO.C,U2*%
X115371745Y-77374498D03*
X115371745Y-78324498D03*
X115371745Y-79274498D03*
X117646745Y-79274498D03*
X117646745Y-77374498D03*
%TD*%
D10*
%TO.C,R13*%
X77310000Y-110680000D03*
X77310000Y-109660000D03*
%TD*%
D29*
%TO.C,U4*%
X65160000Y-125882500D03*
X65660000Y-125882500D03*
X66160000Y-125882500D03*
X66660000Y-125882500D03*
X67160000Y-125882500D03*
X67660000Y-125882500D03*
X68160000Y-125882500D03*
X68660000Y-125882500D03*
X69160000Y-125882500D03*
X69660000Y-125882500D03*
X70160000Y-125882500D03*
X70660000Y-125882500D03*
D30*
X72072500Y-124470000D03*
X72072500Y-123970000D03*
X72072500Y-123470000D03*
X72072500Y-122970000D03*
X72072500Y-122470000D03*
X72072500Y-121970000D03*
X72072500Y-121470000D03*
X72072500Y-120970000D03*
X72072500Y-120470000D03*
X72072500Y-119970000D03*
X72072500Y-119470000D03*
X72072500Y-118970000D03*
D29*
X70660000Y-117557500D03*
X70160000Y-117557500D03*
X69660000Y-117557500D03*
X69160000Y-117557500D03*
X68660000Y-117557500D03*
X68160000Y-117557500D03*
X67660000Y-117557500D03*
X67160000Y-117557500D03*
X66660000Y-117557500D03*
X66160000Y-117557500D03*
X65660000Y-117557500D03*
X65160000Y-117557500D03*
D30*
X63747500Y-118970000D03*
X63747500Y-119470000D03*
X63747500Y-119970000D03*
X63747500Y-120470000D03*
X63747500Y-120970000D03*
X63747500Y-121470000D03*
X63747500Y-121970000D03*
X63747500Y-122470000D03*
X63747500Y-122970000D03*
X63747500Y-123470000D03*
X63747500Y-123970000D03*
X63747500Y-124470000D03*
%TD*%
D10*
%TO.C,R7*%
X86030000Y-110680000D03*
X86030000Y-109660000D03*
%TD*%
D23*
%TO.C,J2*%
X110988159Y-100774498D03*
X113530659Y-100774498D03*
X116073159Y-100774498D03*
X118615659Y-100774498D03*
X121158159Y-100774498D03*
%TD*%
D17*
%TO.C,R9*%
X68300000Y-77500000D03*
X68300000Y-78520000D03*
%TD*%
D22*
%TO.C,C24*%
X81620000Y-73490000D03*
X80660000Y-73490000D03*
%TD*%
D35*
%TO.C,C17*%
X72100000Y-68260000D03*
X73060000Y-68260000D03*
%TD*%
D38*
%TO.C,R6*%
X75540000Y-66950000D03*
X74520000Y-66950000D03*
%TD*%
D18*
%TO.C,C18*%
X64280000Y-67710000D03*
X64280000Y-66750000D03*
%TD*%
D39*
%TO.C,U1*%
X145909245Y-81559498D03*
X144639245Y-81559498D03*
X143369245Y-81559498D03*
X142099245Y-81559498D03*
X142099245Y-86809498D03*
X143369245Y-86809498D03*
X144639245Y-86809498D03*
X145909245Y-86809498D03*
%TD*%
D32*
%TO.C,U7*%
X94295000Y-154855000D03*
X94295000Y-156405000D03*
X95845000Y-154855000D03*
X95845000Y-156405000D03*
D33*
X92707500Y-154330000D03*
X92707500Y-154980000D03*
X92707500Y-155630000D03*
X92707500Y-156280000D03*
X92707500Y-156930000D03*
D34*
X93770000Y-157992500D03*
X94420000Y-157992500D03*
X95070000Y-157992500D03*
X95720000Y-157992500D03*
X96370000Y-157992500D03*
D33*
X97432500Y-156930000D03*
X97432500Y-156280000D03*
X97432500Y-155630000D03*
X97432500Y-154980000D03*
X97432500Y-154330000D03*
D34*
X96370000Y-153267500D03*
X95720000Y-153267500D03*
X95070000Y-153267500D03*
X94420000Y-153267500D03*
X93770000Y-153267500D03*
%TD*%
D27*
%TO.C,C3*%
X113701745Y-79059498D03*
X113701745Y-77509498D03*
%TD*%
D40*
%TO.C,IC2*%
X77500000Y-71962500D03*
X78300000Y-71962500D03*
X79100000Y-71962500D03*
X79900000Y-71962500D03*
X80700000Y-71962500D03*
X81500000Y-71962500D03*
D41*
X81597500Y-70865000D03*
D40*
X81500000Y-69767500D03*
X80700000Y-69767500D03*
X79900000Y-69767500D03*
X79100000Y-69767500D03*
X78300000Y-69767500D03*
X77500000Y-69767500D03*
D41*
X77402500Y-70865000D03*
%TD*%
D10*
%TO.C,R8*%
X62240000Y-73960000D03*
X62240000Y-72940000D03*
%TD*%
D22*
%TO.C,C19*%
X63690000Y-75520000D03*
X62730000Y-75520000D03*
%TD*%
D35*
%TO.C,C16*%
X94220000Y-109420000D03*
X95180000Y-109420000D03*
%TD*%
D24*
%TO.C,R1*%
X115692326Y-88229498D03*
X115692326Y-89879498D03*
%TD*%
D42*
%TO.C,C2*%
X141765659Y-88669498D03*
X141765659Y-90219498D03*
%TD*%
D22*
%TO.C,C10*%
X74600000Y-113220000D03*
X73640000Y-113220000D03*
%TD*%
D43*
%TO.C,D1*%
X73397500Y-66950000D03*
X71822500Y-66950000D03*
%TD*%
D44*
%TO.C,R3*%
X143236745Y-76174498D03*
X144886745Y-76174498D03*
%TD*%
D26*
%TO.C,R11*%
X90783984Y-104337500D03*
X90783984Y-107262500D03*
%TD*%
D22*
%TO.C,C26*%
X88250000Y-73710000D03*
X87290000Y-73710000D03*
%TD*%
D18*
%TO.C,C28*%
X97450000Y-72920000D03*
X97450000Y-71960000D03*
%TD*%
D27*
%TO.C,C1*%
X118665659Y-89829498D03*
X118665659Y-88279498D03*
%TD*%
D35*
%TO.C,C23*%
X77390000Y-73450000D03*
X78350000Y-73450000D03*
%TD*%
D39*
%TO.C,U1*%
X118349245Y-81169498D03*
X117079245Y-81169498D03*
X115809245Y-81169498D03*
X114539245Y-81169498D03*
X114539245Y-86419498D03*
X115809245Y-86419498D03*
X117079245Y-86419498D03*
X118349245Y-86419498D03*
%TD*%
D44*
%TO.C,D1*%
X143240659Y-74684498D03*
X144890659Y-74684498D03*
%TD*%
D22*
%TO.C,C11*%
X85180000Y-113220000D03*
X84220000Y-113220000D03*
%TD*%
D31*
%TO.C,J3*%
X140680000Y-72170000D03*
X143180000Y-72170000D03*
X145180000Y-72170000D03*
X147680000Y-72170000D03*
%TD*%
D44*
%TO.C,D1*%
X115680659Y-74294498D03*
X117330659Y-74294498D03*
%TD*%
D28*
%TO.C,U9*%
X82600000Y-159632500D03*
X83400000Y-159632500D03*
X84200000Y-159632500D03*
X85000000Y-159632500D03*
X85000000Y-162007500D03*
X84200000Y-162007500D03*
X83400000Y-162007500D03*
X82600000Y-162007500D03*
%TD*%
D13*
%TO.C,C5*%
X63810000Y-101270000D03*
X63810000Y-102230000D03*
%TD*%
D40*
%TO.C,IC2*%
X77520000Y-121792500D03*
X78320000Y-121792500D03*
X79120000Y-121792500D03*
X79920000Y-121792500D03*
X80720000Y-121792500D03*
X81520000Y-121792500D03*
D41*
X81617500Y-120695000D03*
D40*
X81520000Y-119597500D03*
X80720000Y-119597500D03*
X79920000Y-119597500D03*
X79120000Y-119597500D03*
X78320000Y-119597500D03*
X77520000Y-119597500D03*
D41*
X77422500Y-120695000D03*
%TD*%
D24*
%TO.C,R2*%
X144738992Y-88619498D03*
X144738992Y-90269498D03*
%TD*%
D32*
%TO.C,U7*%
X94275000Y-105025000D03*
X94275000Y-106575000D03*
X95825000Y-105025000D03*
X95825000Y-106575000D03*
D33*
X92687500Y-104500000D03*
X92687500Y-105150000D03*
X92687500Y-105800000D03*
X92687500Y-106450000D03*
X92687500Y-107100000D03*
D34*
X93750000Y-108162500D03*
X94400000Y-108162500D03*
X95050000Y-108162500D03*
X95700000Y-108162500D03*
X96350000Y-108162500D03*
D33*
X97412500Y-107100000D03*
X97412500Y-106450000D03*
X97412500Y-105800000D03*
X97412500Y-105150000D03*
X97412500Y-104500000D03*
D34*
X96350000Y-103437500D03*
X95700000Y-103437500D03*
X95050000Y-103437500D03*
X94400000Y-103437500D03*
X93750000Y-103437500D03*
%TD*%
D35*
%TO.C,C29*%
X94390000Y-68630000D03*
X95350000Y-68630000D03*
%TD*%
D36*
%TO.C,U12*%
X88810000Y-69680000D03*
X88410000Y-69680000D03*
X88010000Y-69680000D03*
X87610000Y-69680000D03*
X87210000Y-69680000D03*
X86810000Y-69680000D03*
D37*
X86310000Y-70180000D03*
X86310000Y-70580000D03*
X86310000Y-70980000D03*
X86310000Y-71380000D03*
X86310000Y-71780000D03*
X86310000Y-72180000D03*
D36*
X86810000Y-72680000D03*
X87210000Y-72680000D03*
X87610000Y-72680000D03*
X88010000Y-72680000D03*
X88410000Y-72680000D03*
X88810000Y-72680000D03*
D37*
X89310000Y-72180000D03*
X89310000Y-71780000D03*
X89310000Y-71380000D03*
X89310000Y-70980000D03*
X89310000Y-70580000D03*
X89310000Y-70180000D03*
%TD*%
D42*
%TO.C,C2*%
X114205659Y-88279498D03*
X114205659Y-89829498D03*
%TD*%
D27*
%TO.C,C3*%
X141261745Y-79449498D03*
X141261745Y-77899498D03*
%TD*%
D35*
%TO.C,C7*%
X64510000Y-109410000D03*
X65470000Y-109410000D03*
%TD*%
D13*
%TO.C,C25*%
X85250000Y-69490000D03*
X85250000Y-70450000D03*
%TD*%
D45*
%TO.C,U13*%
X93930000Y-122510000D03*
X94330000Y-122510000D03*
X94730000Y-122510000D03*
X95130000Y-122510000D03*
X95530000Y-122510000D03*
X95930000Y-122510000D03*
D46*
X96430000Y-122010000D03*
X96430000Y-121610000D03*
X96430000Y-121210000D03*
X96430000Y-120810000D03*
X96430000Y-120410000D03*
X96430000Y-120010000D03*
D45*
X95930000Y-119510000D03*
X95530000Y-119510000D03*
X95130000Y-119510000D03*
X94730000Y-119510000D03*
X94330000Y-119510000D03*
X93930000Y-119510000D03*
D46*
X93430000Y-120010000D03*
X93430000Y-120410000D03*
X93430000Y-120810000D03*
X93430000Y-121210000D03*
X93430000Y-121610000D03*
X93430000Y-122010000D03*
%TD*%
D44*
%TO.C,R3*%
X115676745Y-75784498D03*
X117326745Y-75784498D03*
%TD*%
D10*
%TO.C,R12*%
X75980000Y-71940000D03*
X75980000Y-70920000D03*
%TD*%
D28*
%TO.C,U9*%
X82580000Y-109802500D03*
X83380000Y-109802500D03*
X84180000Y-109802500D03*
X84980000Y-109802500D03*
X84980000Y-112177500D03*
X84180000Y-112177500D03*
X83380000Y-112177500D03*
X82580000Y-112177500D03*
%TD*%
D24*
%TO.C,R2*%
X117178992Y-88229498D03*
X117178992Y-89879498D03*
%TD*%
D45*
%TO.C,U13*%
X93910000Y-72680000D03*
X94310000Y-72680000D03*
X94710000Y-72680000D03*
X95110000Y-72680000D03*
X95510000Y-72680000D03*
X95910000Y-72680000D03*
D46*
X96410000Y-72180000D03*
X96410000Y-71780000D03*
X96410000Y-71380000D03*
X96410000Y-70980000D03*
X96410000Y-70580000D03*
X96410000Y-70180000D03*
D45*
X95910000Y-69680000D03*
X95510000Y-69680000D03*
X95110000Y-69680000D03*
X94710000Y-69680000D03*
X94310000Y-69680000D03*
X93910000Y-69680000D03*
D46*
X93410000Y-70180000D03*
X93410000Y-70580000D03*
X93410000Y-70980000D03*
X93410000Y-71380000D03*
X93410000Y-71780000D03*
X93410000Y-72180000D03*
%TD*%
D10*
%TO.C,R16*%
X78250000Y-110680000D03*
X78250000Y-109660000D03*
%TD*%
M02*
